DJKK_Header:
	smpsHeaderStartSong 1
	smpsHeaderVoice	DJKK_Voices
	smpsHeaderChan	$06,	$03
	smpsHeaderTempo	$01,	$00

	smpsHeaderDAC	DJKK_DAC
	smpsHeaderFM	DJKK_FM1,	smpsPitch00,	$00
	smpsHeaderFM	DJKK_FM2,	smpsPitch00,	$00
	smpsHeaderFM	DJKK_FM3,	smpsPitch00,	$00
	smpsHeaderFM	DJKK_FM4,	smpsPitch00,	$00
	smpsHeaderFM	DJKK_FM5,	smpsPitch00,	$00
	smpsHeaderPSG       DJKK_PSG1,	$00, $00, $00, $00
	smpsHeaderPSG       DJKK_PSG2,	$00, $00, $00, $00
	smpsHeaderPSG       DJKK_PSG3,	$00, $00, $00, $00
	dc.b		$00,	$00,	$00,	$00	

; PSG2 Data
DJKK_PSG2:
	smpsStop

; FM1 Data
DJKK_FM1:
	smpsPan		panCentre,	$00
	dc.b		nRst,	$7F,	$3A
DJKK_Jump01:
	dc.b		nRst,	$7F,	$7F,	$7F,	$7F,	$7F,	$27
	smpsFMvoice	$04
	smpsAlterVol	$05
	dc.b		nE4,	$0B,	nRst,	$0C
	smpsFMvoice	$05
	dc.b		nE4,	smpsNoAttack
	smpsAlterNote	$0F
	dc.b		nE4,	$01,	smpsNoAttack
	smpsAlterNote	$10
	dc.b		nE4,	$01,	smpsNoAttack
	smpsAlterNote	$02
	dc.b		nE4,	$01,	smpsNoAttack
	smpsAlterNote	$F2
	dc.b		nE4,	$01,	smpsNoAttack
	smpsAlterNote	$EE
	dc.b		nE4,	$01,	smpsNoAttack
	smpsAlterNote	$FA
	dc.b		nE4,	$01,	smpsNoAttack
	smpsAlterNote	$0B
	dc.b		nE4,	$01,	smpsNoAttack
	smpsAlterNote	$12
	dc.b		nE4,	$01,	smpsNoAttack
	smpsAlterNote	$07
	dc.b		nE4,	$01,	smpsNoAttack
	smpsAlterNote	$F6
	dc.b		nE4,	$01,	smpsNoAttack
	smpsAlterNote	$ED
	dc.b		nE4,	$01
	smpsAlterNote	$00
	dc.b		nD4,	$0C,	nE4,	$0B,	nG4,	$0C,	nD4,	$0B
	dc.b		nRst,	$0C,	nD4,	$18,	smpsNoAttack
	smpsAlterNote	$0F
	dc.b		nD4,	$01,	smpsNoAttack
	smpsAlterNote	$10
	dc.b		nD4,	$01,	smpsNoAttack
	smpsAlterNote	$02
	dc.b		nD4,	$01,	smpsNoAttack
	smpsAlterNote	$F2
	dc.b		nD4,	$01,	smpsNoAttack
	smpsAlterNote	$12
	dc.b		nCs4,	smpsNoAttack
	smpsAlterNote	$FA
	dc.b		nD4,	smpsNoAttack
	smpsAlterNote	$0B
	dc.b		nD4,	$01,	smpsNoAttack
	smpsAlterNote	$12
	dc.b		nD4,	$01,	smpsNoAttack
	smpsAlterNote	$07
	dc.b		nD4,	$01,	smpsNoAttack
	smpsAlterNote	$F6
	dc.b		nD4,	$01,	smpsNoAttack
	smpsAlterNote	$11
	dc.b		nCs4,	smpsNoAttack
	smpsAlterNote	$F6
	dc.b		nD4,	smpsNoAttack
	smpsAlterNote	$07
	dc.b		nD4,	$01,	smpsNoAttack
	smpsAlterNote	$12
	dc.b		nD4,	$01,	smpsNoAttack
	smpsAlterNote	$0B
	dc.b		nD4,	$01,	smpsNoAttack
	smpsAlterNote	$FA
	dc.b		nD4,	$01,	smpsNoAttack
	smpsAlterNote	$12
	dc.b		nCs4,	smpsNoAttack
	smpsAlterNote	$F2
	dc.b		nD4,	smpsNoAttack
	smpsAlterNote	$02
	dc.b		nD4,	$01,	smpsNoAttack
	smpsAlterNote	$10
	dc.b		nD4,	$01,	smpsNoAttack
	smpsAlterNote	$FF
	dc.b		nD4,	$01,	smpsNoAttack
	smpsAlterNote	$F0
	dc.b		nD4,	$01,	smpsNoAttack
	smpsAlterNote	$EF
	dc.b		nD4,	$01,	smpsNoAttack
	smpsAlterNote	$FD
	dc.b		nD4,	$01,	smpsNoAttack
	smpsAlterNote	$0D
	dc.b		nD4,	$01,	smpsNoAttack
	smpsAlterNote	$11
	dc.b		nD4,	$01,	smpsNoAttack
	smpsAlterNote	$04
	dc.b		nD4,	$01,	smpsNoAttack
	smpsAlterNote	$F3
	dc.b		nD4,	$01,	smpsNoAttack
	smpsAlterNote	$11
	dc.b		nCs4,	smpsNoAttack
	smpsAlterNote	$F8
	dc.b		nD4,	smpsNoAttack
	smpsAlterNote	$0A
	dc.b		nD4,	$01,	smpsNoAttack
	smpsAlterNote	$12
	dc.b		nD4,	$01,	smpsNoAttack
	smpsAlterNote	$09
	dc.b		nD4,	$01,	smpsNoAttack
	smpsAlterNote	$F8
	dc.b		nD4,	$01,	nRst,	$17
	smpsFMvoice	$04
	smpsAlterNote	$00
	dc.b		nE4,	$0C,	nRst,	$0B
	smpsFMvoice	$05
	dc.b		nE4,	$0D,	smpsNoAttack
	smpsAlterNote	$0F
	dc.b		nE4,	$01,	smpsNoAttack
	smpsAlterNote	$10
	dc.b		nE4,	$01,	smpsNoAttack
	smpsAlterNote	$02
	dc.b		nE4,	$01,	smpsNoAttack
	smpsAlterNote	$F2
	dc.b		nE4,	$01,	smpsNoAttack
	smpsAlterNote	$EE
	dc.b		nE4,	$01,	smpsNoAttack
	smpsAlterNote	$FA
	dc.b		nE4,	$01,	smpsNoAttack
	smpsAlterNote	$0B
	dc.b		nE4,	$01,	smpsNoAttack
	smpsAlterNote	$12
	dc.b		nE4,	$01,	smpsNoAttack
	smpsAlterNote	$07
	dc.b		nE4,	$01,	smpsNoAttack
	smpsAlterNote	$F6
	dc.b		nE4,	$01,	smpsNoAttack
	smpsAlterNote	$ED
	dc.b		nE4,	$01
	smpsAlterNote	$00
	dc.b		nD4,	$0B,	nC4,	$0C,	nB3,	$0B,	nC4,	$0C
	dc.b		nRst,	nD4,	smpsNoAttack
	smpsAlterNote	$0F
	dc.b		nD4,	$01,	smpsNoAttack
	smpsAlterNote	$10
	dc.b		nD4,	$01,	smpsNoAttack
	smpsAlterNote	$02
	dc.b		nD4,	$01,	smpsNoAttack
	smpsAlterNote	$F2
	dc.b		nD4,	$01,	smpsNoAttack
	smpsAlterNote	$12
	dc.b		nCs4,	smpsNoAttack
	smpsAlterNote	$FA
	dc.b		nD4,	smpsNoAttack
	smpsAlterNote	$0B
	dc.b		nD4,	$01,	smpsNoAttack
	smpsAlterNote	$12
	dc.b		nD4,	$01,	smpsNoAttack
	smpsAlterNote	$07
	dc.b		nD4,	$01,	smpsNoAttack
	smpsAlterNote	$F6
	dc.b		nD4,	$01,	smpsNoAttack
	smpsAlterNote	$11
	dc.b		nCs4
	smpsAlterNote	$00
	dc.b		nC4,	$0C,	nB3,	$0B,	nC4,	$0C,	nRst,	$0D
	smpsAlterVol	$1D
	dc.b		nE4,	$04
	smpsAlterVol	$F7
	dc.b		nE4,	$02
	smpsAlterVol	$FA
	dc.b		nE4,	$04
	smpsAlterVol	$F2
	dc.b		nE4,	$0C,	nRst,	$0B,	nE4,	$0D,	smpsNoAttack
	smpsAlterNote	$0F
	dc.b		nE4,	$01,	smpsNoAttack
	smpsAlterNote	$10
	dc.b		nE4,	$01,	smpsNoAttack
	smpsAlterNote	$02
	dc.b		nE4,	$01,	smpsNoAttack
	smpsAlterNote	$F2
	dc.b		nE4,	$01,	smpsNoAttack
	smpsAlterNote	$EE
	dc.b		nE4,	$01,	smpsNoAttack
	smpsAlterNote	$FA
	dc.b		nE4,	$01,	smpsNoAttack
	smpsAlterNote	$0B
	dc.b		nE4,	$01,	smpsNoAttack
	smpsAlterNote	$07
	dc.b		nE4,	$01,	smpsNoAttack
	smpsAlterNote	$F6
	dc.b		nE4,	$01,	smpsNoAttack
	smpsAlterNote	$ED
	dc.b		nE4,	$01
	smpsAlterNote	$00
	dc.b		nD4,	$0C,	nE4,	nG4,	$0B,	nD4,	$0C,	nRst
	dc.b		$0B,	nD4,	$19,	smpsNoAttack
	smpsAlterNote	$0F
	dc.b		nD4,	$01,	smpsNoAttack
	smpsAlterNote	$10
	dc.b		nD4,	$01,	smpsNoAttack
	smpsAlterNote	$02
	dc.b		nD4,	$01,	smpsNoAttack
	smpsAlterNote	$12
	dc.b		nCs4,	smpsNoAttack
	smpsAlterNote	$FA
	dc.b		nD4,	smpsNoAttack
	smpsAlterNote	$0B
	dc.b		nD4,	$01,	smpsNoAttack
	smpsAlterNote	$12
	dc.b		nD4,	$01,	smpsNoAttack
	smpsAlterNote	$07
	dc.b		nD4,	$01,	smpsNoAttack
	smpsAlterNote	$F6
	dc.b		nD4,	$01,	smpsNoAttack
	smpsAlterNote	$11
	dc.b		nCs4,	smpsNoAttack
	smpsAlterNote	$F6
	dc.b		nD4,	smpsNoAttack
	smpsAlterNote	$07
	dc.b		nD4,	$01,	smpsNoAttack
	smpsAlterNote	$12
	dc.b		nD4,	$01,	smpsNoAttack
	smpsAlterNote	$0B
	dc.b		nD4,	$01,	smpsNoAttack
	smpsAlterNote	$FA
	dc.b		nD4,	$01,	smpsNoAttack
	smpsAlterNote	$12
	dc.b		nCs4,	smpsNoAttack
	smpsAlterNote	$F2
	dc.b		nD4,	smpsNoAttack
	smpsAlterNote	$02
	dc.b		nD4,	$01,	smpsNoAttack
	smpsAlterNote	$10
	dc.b		nD4,	$01,	smpsNoAttack
	smpsAlterNote	$0F
	dc.b		nD4,	$01,	smpsNoAttack
	smpsAlterNote	$FF
	dc.b		nD4,	$01,	smpsNoAttack
	smpsAlterNote	$F0
	dc.b		nD4,	$01,	smpsNoAttack
	smpsAlterNote	$EF
	dc.b		nD4,	$01,	smpsNoAttack
	smpsAlterNote	$FD
	dc.b		nD4,	$01,	smpsNoAttack
	smpsAlterNote	$0D
	dc.b		nD4,	$01,	smpsNoAttack
	smpsAlterNote	$11
	dc.b		nD4,	$01,	smpsNoAttack
	smpsAlterNote	$04
	dc.b		nD4,	$01,	smpsNoAttack
	smpsAlterNote	$F3
	dc.b		nD4,	$01,	smpsNoAttack
	smpsAlterNote	$11
	dc.b		nCs4,	smpsNoAttack
	smpsAlterNote	$F8
	dc.b		nD4,	smpsNoAttack
	smpsAlterNote	$0A
	dc.b		nD4,	$01,	smpsNoAttack
	smpsAlterNote	$12
	dc.b		nD4,	$01,	smpsNoAttack
	smpsAlterNote	$09
	dc.b		nD4,	$01,	nRst,	$18
	smpsAlterNote	$00
	dc.b		nE4,	$0B,	nG4,	$0D,	smpsNoAttack
	smpsAlterNote	$0F
	dc.b		nG4,	$01,	smpsNoAttack
	smpsAlterNote	$10
	dc.b		nG4,	$01,	smpsNoAttack
	smpsAlterNote	$02
	dc.b		nG4,	$01,	smpsNoAttack
	smpsAlterNote	$F2
	dc.b		nG4,	$01,	smpsNoAttack
	smpsAlterNote	$EE
	dc.b		nG4,	$01,	smpsNoAttack
	smpsAlterNote	$FA
	dc.b		nG4,	$01,	smpsNoAttack
	smpsAlterNote	$0B
	dc.b		nG4,	$01,	smpsNoAttack
	smpsAlterNote	$12
	dc.b		nG4,	$01,	smpsNoAttack
	smpsAlterNote	$07
	dc.b		nG4,	$01,	smpsNoAttack
	smpsAlterNote	$F6
	dc.b		nG4,	$01,	smpsNoAttack
	smpsAlterNote	$ED
	dc.b		nG4,	$01
	smpsAlterNote	$00
	dc.b		nE4,	$0B,	nB4,	$0C,	nA4,	$0B,	nRst,	$5D
	smpsFMvoice	$06
	smpsAlterVol	$FD
	smpsAlterNote	$08
	dc.b		nB4,	$01,	smpsNoAttack
	smpsAlterNote	$10
	dc.b		nB4,	$01,	smpsNoAttack
	smpsAlterNote	$18
	dc.b		nB4,	$01,	smpsNoAttack
	smpsAlterNote	$20
	dc.b		nB4,	$01,	smpsNoAttack
	smpsAlterNote	$E0
	dc.b		nC5,	smpsNoAttack
	smpsAlterNote	$E8
	dc.b		nC5,	$01,	nRst,	$06
	smpsAlterNote	$00
	dc.b		nC5,	nRst,	$05,	nC5,	$08,	smpsNoAttack,	nC5,	$01
	dc.b		smpsNoAttack
	smpsAlterNote	$0F
	dc.b		nC5,	$01,	smpsNoAttack
	smpsAlterNote	$10
	dc.b		nC5,	$01,	smpsNoAttack
	smpsAlterNote	$02
	dc.b		nC5,	$01,	smpsNoAttack
	smpsAlterNote	$F2
	dc.b		nC5,	$01,	smpsNoAttack
	smpsAlterNote	$EE
	dc.b		nC5,	$01,	smpsNoAttack
	smpsAlterNote	$FA
	dc.b		nC5,	$01,	smpsNoAttack
	smpsAlterNote	$0B
	dc.b		nC5,	$01,	smpsNoAttack
	smpsAlterNote	$12
	dc.b		nC5,	$01,	smpsNoAttack
	smpsAlterNote	$07
	dc.b		nC5,	$01,	nRst,	$06
	smpsAlterNote	$00
	dc.b		nBb4,	$01,	smpsNoAttack
	smpsAlterNote	$08
	dc.b		nBb4,	$01,	smpsNoAttack
	smpsAlterNote	$10
	dc.b		nBb4,	$01,	smpsNoAttack
	smpsAlterNote	$18
	dc.b		nBb4,	$01,	smpsNoAttack
	smpsAlterNote	$EC
	dc.b		nB4,	smpsNoAttack
	smpsAlterNote	$F4
	dc.b		nB4,	$01,	smpsNoAttack
	smpsAlterNote	$FC
	dc.b		nB4,	$01,	smpsNoAttack
	smpsAlterNote	$04
	dc.b		nB4,	$01,	smpsNoAttack
	smpsAlterNote	$0C
	dc.b		nB4,	$01,	smpsNoAttack
	smpsAlterNote	$14
	dc.b		nB4,	$01,	smpsNoAttack
	smpsAlterNote	$1C
	dc.b		nB4,	$01
	smpsAlterNote	$00
	dc.b		nA4,	$0C,	nG4,	$0B,	nA4,	$0C,	nRst,	nEb4
	dc.b		$01,	smpsNoAttack
	smpsAlterNote	$04
	dc.b		nEb4,	$01,	smpsNoAttack
	smpsAlterNote	$08
	dc.b		nEb4,	$01,	smpsNoAttack
	smpsAlterNote	$0C
	dc.b		nEb4,	$01,	smpsNoAttack
	smpsAlterNote	$10
	dc.b		nEb4,	$01,	smpsNoAttack
	smpsAlterNote	$EF
	dc.b		nE4,	smpsNoAttack
	smpsAlterNote	$F3
	dc.b		nE4,	$01,	smpsNoAttack
	smpsAlterNote	$F7
	dc.b		nE4,	$01,	smpsNoAttack
	smpsAlterNote	$FB
	dc.b		nE4,	$01,	smpsNoAttack
	smpsAlterNote	$FF
	dc.b		nE4,	$01,	smpsNoAttack
	smpsAlterNote	$03
	dc.b		nE4,	$01,	nRst,	$0C
	smpsAlterNote	$00
	dc.b		nE4,	nG4,	$0B,	nA4,	$0D,	smpsNoAttack
	smpsAlterNote	$0F
	dc.b		nA4,	$01,	smpsNoAttack
	smpsAlterNote	$10
	dc.b		nA4,	$01,	smpsNoAttack
	smpsAlterNote	$02
	dc.b		nA4,	$01,	smpsNoAttack
	smpsAlterNote	$F2
	dc.b		nA4,	$01,	smpsNoAttack
	smpsAlterNote	$EE
	dc.b		nA4,	$01,	smpsNoAttack
	smpsAlterNote	$0B
	dc.b		nA4,	$01,	smpsNoAttack
	smpsAlterNote	$12
	dc.b		nA4,	$01,	smpsNoAttack
	smpsAlterNote	$07
	dc.b		nA4,	$01,	smpsNoAttack
	smpsAlterNote	$F6
	dc.b		nA4,	$01,	smpsNoAttack
	smpsAlterNote	$ED
	dc.b		nA4,	$01,	nRst,	$0C
	smpsAlterNote	$08
	dc.b		nB4,	$01,	smpsNoAttack
	smpsAlterNote	$10
	dc.b		nB4,	$01,	smpsNoAttack
	smpsAlterNote	$18
	dc.b		nB4,	$01,	smpsNoAttack
	smpsAlterNote	$20
	dc.b		nB4,	$01,	smpsNoAttack
	smpsAlterNote	$E0
	dc.b		nC5,	smpsNoAttack
	smpsAlterNote	$E8
	dc.b		nC5,	$01,	nRst,	$06
	smpsAlterNote	$00
	dc.b		nC5,	$05,	nRst,	$06,	nC5,	$12,	nRst,	$05
	dc.b		nBb4,	$01,	smpsNoAttack
	smpsAlterNote	$08
	dc.b		nBb4,	$01,	smpsNoAttack
	smpsAlterNote	$10
	dc.b		nBb4,	$01,	smpsNoAttack
	smpsAlterNote	$18
	dc.b		nBb4,	$01,	smpsNoAttack
	smpsAlterNote	$E4
	dc.b		nB4,	smpsNoAttack
	smpsAlterNote	$EC
	dc.b		nB4,	$01,	smpsNoAttack
	smpsAlterNote	$F4
	dc.b		nB4,	$01,	smpsNoAttack
	smpsAlterNote	$FC
	dc.b		nB4,	$01,	smpsNoAttack
	smpsAlterNote	$04
	dc.b		nB4,	$01,	smpsNoAttack
	smpsAlterNote	$0C
	dc.b		nB4,	$01,	smpsNoAttack
	smpsAlterNote	$14
	dc.b		nB4,	$01,	smpsNoAttack
	smpsAlterNote	$1C
	dc.b		nB4,	$01
	smpsAlterNote	$00
	dc.b		nA4,	$0C,	nG4,	$0B,	nA4,	$0C,	nRst,	$5D
	smpsAlterNote	$08
	dc.b		nB4,	$01,	smpsNoAttack
	smpsAlterNote	$10
	dc.b		nB4,	$01,	smpsNoAttack
	smpsAlterNote	$18
	dc.b		nB4,	$01,	smpsNoAttack
	smpsAlterNote	$20
	dc.b		nB4,	$01,	smpsNoAttack
	smpsAlterNote	$E0
	dc.b		nC5,	nRst,	$06
	smpsAlterNote	$00
	dc.b		nC5,	nRst,	nC5,	$02,	nC5,	$04,	nC5,	$02
	dc.b		nC5,	$03,	nC5,	$02,	nC5,	$04,	nC5,	$02
	dc.b		nRst,	$04,	nBb4,	$01,	smpsNoAttack
	smpsAlterNote	$08
	dc.b		nBb4,	$01,	smpsNoAttack
	smpsAlterNote	$10
	dc.b		nBb4,	$01,	smpsNoAttack
	smpsAlterNote	$18
	dc.b		nBb4,	$01,	smpsNoAttack
	smpsAlterNote	$E4
	dc.b		nB4,	smpsNoAttack
	smpsAlterNote	$EC
	dc.b		nB4,	$01,	smpsNoAttack
	smpsAlterNote	$F4
	dc.b		nB4,	$01,	smpsNoAttack
	smpsAlterNote	$FC
	dc.b		nB4,	$01,	smpsNoAttack
	smpsAlterNote	$04
	dc.b		nB4,	$01,	smpsNoAttack
	smpsAlterNote	$0C
	dc.b		nB4,	$01,	smpsNoAttack
	smpsAlterNote	$14
	dc.b		nB4,	$01,	smpsNoAttack
	smpsAlterNote	$1C
	dc.b		nB4,	$01
	smpsAlterNote	$00
	dc.b		nA4,	$0B,	nG4,	$0C,	nA4,	nRst,	$0B,	nEb4
	dc.b		$01,	smpsNoAttack
	smpsAlterNote	$04
	dc.b		nEb4,	$01,	smpsNoAttack
	smpsAlterNote	$08
	dc.b		nEb4,	$01,	smpsNoAttack
	smpsAlterNote	$0C
	dc.b		nEb4,	$01,	smpsNoAttack
	smpsAlterNote	$10
	dc.b		nEb4,	$01,	smpsNoAttack
	smpsAlterNote	$14
	dc.b		nEb4,	$01,	smpsNoAttack
	smpsAlterNote	$EF
	dc.b		nE4,	smpsNoAttack
	smpsAlterNote	$F3
	dc.b		nE4,	$01,	smpsNoAttack
	smpsAlterNote	$F7
	dc.b		nE4,	$01,	smpsNoAttack
	smpsAlterNote	$FB
	dc.b		nE4,	$01,	smpsNoAttack
	smpsAlterNote	$FF
	dc.b		nE4,	$01,	smpsNoAttack
	smpsAlterNote	$03
	dc.b		nE4,	$01,	nRst,	$0B
	smpsAlterNote	$00
	dc.b		nE4,	$0C,	nG4,	nA4,	smpsNoAttack
	smpsAlterNote	$0F
	dc.b		nA4,	$01,	smpsNoAttack
	smpsAlterNote	$10
	dc.b		nA4,	$01,	smpsNoAttack
	smpsAlterNote	$02
	dc.b		nA4,	$01,	smpsNoAttack
	smpsAlterNote	$F2
	dc.b		nA4,	$01,	smpsNoAttack
	smpsAlterNote	$EE
	dc.b		nA4,	$01,	smpsNoAttack
	smpsAlterNote	$FA
	dc.b		nA4,	$01,	smpsNoAttack
	smpsAlterNote	$0B
	dc.b		nA4,	$01,	smpsNoAttack
	smpsAlterNote	$12
	dc.b		nA4,	$01,	smpsNoAttack
	smpsAlterNote	$07
	dc.b		nA4,	$01,	smpsNoAttack
	smpsAlterNote	$F6
	dc.b		nA4,	$01,	smpsNoAttack
	smpsAlterNote	$ED
	dc.b		nA4,	$01,	nRst,	$0B
	smpsAlterNote	$08
	dc.b		nB4,	$01,	smpsNoAttack
	smpsAlterNote	$10
	dc.b		nB4,	$01,	smpsNoAttack
	smpsAlterNote	$18
	dc.b		nB4,	$01,	smpsNoAttack
	smpsAlterNote	$20
	dc.b		nB4,	$01,	smpsNoAttack
	smpsAlterNote	$E0
	dc.b		nC5,	smpsNoAttack
	smpsAlterNote	$E8
	dc.b		nC5,	$01,	nRst,	$06
	smpsAlterNote	$00
	dc.b		nC5,	nRst,	nC5,	$07,	smpsNoAttack,	nC5,	$01,	smpsNoAttack
	smpsAlterNote	$0B
	dc.b		nC5,	$01,	smpsNoAttack
	smpsAlterNote	$0C
	dc.b		nC5,	$01,	smpsNoAttack
	smpsAlterNote	$01
	dc.b		nC5,	$01,	smpsNoAttack
	smpsAlterNote	$F5
	dc.b		nC5,	$01,	smpsNoAttack
	smpsAlterNote	$F2
	dc.b		nC5,	$01,	smpsNoAttack
	smpsAlterNote	$FC
	dc.b		nC5,	$01,	smpsNoAttack
	smpsAlterNote	$08
	dc.b		nC5,	$01,	smpsNoAttack
	smpsAlterNote	$0D
	dc.b		nC5,	$01,	smpsNoAttack
	smpsAlterNote	$05
	dc.b		nC5,	$01,	nRst,	$06
	smpsAlterNote	$00
	dc.b		nCs5,	$01,	smpsNoAttack
	smpsAlterNote	$05
	dc.b		nCs5,	$01,	smpsNoAttack
	smpsAlterNote	$0A
	dc.b		nCs5,	$01,	smpsNoAttack
	smpsAlterNote	$0F
	dc.b		nCs5,	$01,	smpsNoAttack
	smpsAlterNote	$F0
	dc.b		nD5,	smpsNoAttack
	smpsAlterNote	$F5
	dc.b		nD5,	$01,	smpsNoAttack
	smpsAlterNote	$FA
	dc.b		nD5,	$01,	smpsNoAttack
	smpsAlterNote	$FF
	dc.b		nD5,	$01,	smpsNoAttack
	smpsAlterNote	$04
	dc.b		nD5,	$01,	smpsNoAttack
	smpsAlterNote	$09
	dc.b		nD5,	$01,	smpsNoAttack
	smpsAlterNote	$13
	dc.b		nD5,	$01
	smpsAlterNote	$00
	dc.b		nC5,	$0C,	nB4,	nA4,	$0B,	nRst,	$5D
	smpsAlterVol	$FE
	smpsPan		panCentre,	$00
	smpsJump	DJKK_Jump01

; FM2 Data
DJKK_FM2:
	smpsPan		panCentre,	$00
	dc.b		nRst,	$7F,	$3A
DJKK_Jump02:
	smpsFMvoice	$01
	smpsAlterVol	$03
	dc.b		nD1,	$0C,	nD2,	$06,	nRst,	$05,	nD1,	$0C
	dc.b		nD2,	$06,	nRst,	nE1,	$0B,	nE2,	$06,	nRst
	dc.b		nE1,	$0B,	nE2,	$06,	nE2,	nA1,	$0C,	nA2
	dc.b		$06,	nRst,	$05,	nA1,	$0C,	nA2,	$06,	nRst
	dc.b		nA1,	$0B,	nA2,	$06,	nRst,	nA1,	$0B,	nA2
	dc.b		$06,	nRst,	nD1,	$0C,	nD2,	$05,	nRst,	$06
	dc.b		nD1,	$0C,	nD2,	$06,	nRst,	$05,	nE1,	$0C
	dc.b		nE2,	$06,	nRst,	nE1,	$0B,	nE2,	$06,	nE2
	dc.b		nA1,	$0B,	nA2,	$06,	nRst,	nA1,	$0C,	nA2
	dc.b		$05,	nRst,	$06,	nA1,	$0C,	nA2,	$06,	nA2
	dc.b		$05,	nA1,	$06,	nA2,	nA1,	nA2,	nD1,	$0B
	dc.b		nD2,	$06,	nRst,	nD1,	$0C,	nD2,	$05,	nRst
	dc.b		$06,	nE1,	$0C,	nE2,	$06,	nRst,	$05,	nE1
	dc.b		$0C,	nE2,	$06,	nE2,	nA1,	$0B,	nA2,	$06
	dc.b		nRst,	nA1,	$0B,	nA2,	$06,	nRst,	nA1,	$0C
	dc.b		nA2,	$05,	nRst,	$06,	nA1,	$0C,	nA2,	$06
	dc.b		nRst,	$05,	nD1,	$0C,	nD2,	$06,	nRst,	nD1
	dc.b		$0B,	nD2,	$06,	nRst,	nE1,	$0B,	nE2,	$06
	dc.b		nRst,	nE1,	$0C,	nE2,	$05,	nE2,	$06,	nA1
	dc.b		$0C,	nA2,	$06,	nRst,	nA1,	$0B,	nA2,	$06
	dc.b		nRst,	nA1,	$0B,	nA2,	$06,	nRst,	nA1,	$0C
	dc.b		nA2,	$05,	nA2,	$06,	nG1,	$0C,	nG2,	$06
	dc.b		nRst,	$05,	nG1,	$0C,	nG2,	$06,	nRst,	nG1
	dc.b		$0B,	nG2,	$06,	nRst,	nG1,	$0B,	nG2,	$06
	dc.b		nRst,	nF1,	$0C,	nF2,	$05,	nRst,	$06,	nF1
	dc.b		$0C,	nF2,	$06,	nRst,	$05,	nF1,	$0C,	nF2
	dc.b		$06,	nRst,	nF1,	$0B,	nF2,	$06,	nF2,	nE1
	dc.b		$0B,	nE2,	$06,	nRst,	nE1,	$0C,	nE2,	$06
	dc.b		nRst,	$05,	nE1,	$0C,	nE2,	$06,	nE2,	nE1
	dc.b		$05,	nF1,	$06,	nG1,	nAb1,	nA1,	$0B,	nA2
	dc.b		$06,	nRst,	nA1,	$0C,	nA2,	$05,	nRst,	$06
	dc.b		nA1,	$0C,	nA2,	$06,	nRst,	$05,	nA1,	$0C
	dc.b		nA2,	$06,	nA2,	nG1,	$0B,	nG2,	$06,	nRst
	dc.b		nG1,	$0B,	nG2,	$06,	nRst,	nG1,	$0C,	nG2
	dc.b		$05,	nRst,	$06,	nG1,	$0C,	nG2,	$06,	nRst
	dc.b		$05,	nF1,	$0C,	nF2,	$06,	nRst,	nF1,	$0B
	dc.b		nF2,	$06,	nRst,	nG1,	$0C,	nG2,	$05,	nRst
	dc.b		$06,	nG1,	$0C,	nG2,	$06,	nRst,	$05,	nA1
	dc.b		$06,	nA1,	nA1,	nA1,	nRst,	$45,	nD1,	$0C
	dc.b		nD2,	$06,	nRst,	$05,	nD1,	$0C,	nD2,	$06
	dc.b		nRst,	nE1,	$0B,	nE2,	$06,	nRst,	nE1,	$0B
	dc.b		nE2,	$06,	nE2,	nA1,	$0C,	nA2,	$05,	nRst
	dc.b		$06,	nA1,	$0C,	nA2,	$06,	nRst,	nA1,	$0B
	dc.b		nA2,	$06,	nRst,	nA1,	$0B,	nA2,	$06,	nRst
	dc.b		nD1,	$0C,	nD2,	$05,	nRst,	$06,	nD1,	$0C
	dc.b		nD2,	$06,	nRst,	$05,	nE1,	$0C,	nE2,	$06
	dc.b		nRst,	nE1,	$0B,	nE2,	$06,	nE2,	nA1,	$0B
	dc.b		nA2,	$06,	nRst,	nA1,	$0C,	nA2,	$05,	nRst
	dc.b		$06,	nA1,	$0C,	nA2,	$06,	nA2,	$05,	nA1
	dc.b		$06,	nA2,	nA1,	nA2,	nD1,	$0B,	nD2,	$06
	dc.b		nRst,	nD1,	$0B,	nD2,	$06,	nRst,	nE1,	$0C
	dc.b		nE2,	$06,	nRst,	$05,	nE1,	$0C,	nE2,	$06
	dc.b		nE2,	nA1,	$0B,	nA2,	$06,	nRst,	nA1,	$0B
	dc.b		nA2,	$06,	nRst,	nA1,	$0C,	nA2,	$05,	nRst
	dc.b		$06,	nA1,	$0C,	nA2,	$06,	nRst,	$05,	nD1
	dc.b		$0C,	nD2,	$06,	nRst,	nD1,	$0B,	nD2,	$06
	dc.b		nRst,	nE1,	$0B,	nE2,	$06,	nRst,	nE1,	$0C
	dc.b		nE2,	$05,	nE2,	$06,	nA1,	$0C,	nA2,	$06
	dc.b		nRst,	$05,	nA1,	$0C,	nA2,	$06,	nRst,	nA1
	dc.b		$0B,	nA2,	$06,	nA2,	nA1,	nA2,	nA1,	$05
	dc.b		nA2,	$06
	smpsAlterVol	$FD
	smpsPan		panCentre,	$00
	smpsJump	DJKK_Jump02

; FM3 Data
DJKK_FM3:
	smpsPan		panCentre,	$00
	dc.b		nRst,	$7F,	$3A
DJKK_Jump03:
	smpsFMvoice	$02
	smpsAlterVol	$06
	dc.b		nF5,	$02,	nRst,	$04,	nF5,	$02,	nRst,	$04
	dc.b		nF5,	$02,	nRst,	$04,	nF5,	$0B,	nF5,	$02
	dc.b		nRst,	$04,	nF5,	$02,	nRst,	$04,	nG5,	$0B
	dc.b		nG5,	$02,	nRst,	$04,	nG5,	$02,	nRst,	$04
	dc.b		nG5,	$02,	nRst,	$04,	nG5,	$06,	nE5,	$05
	dc.b		nG5,	$06,	nA5,	nRst,	$5D,	nF5,	$02,	nRst
	dc.b		$04,	nF5,	$02,	nRst,	$04,	nF5,	$02,	nRst
	dc.b		$03,	nF5,	$0C,	nF5,	$02,	nRst,	$04,	nF5
	dc.b		$02,	nRst,	$04,	nG5,	$0B,	nG5,	$02,	nRst
	dc.b		$04,	nG5,	$02,	nRst,	$04,	nG5,	$02,	nRst
	dc.b		$04,	nG5,	$05,	nE5,	$06,	nG5,	nA5,	nRst
	dc.b		$5D,	nF5,	$02,	nRst,	$03,	nF5,	$02,	nRst
	dc.b		$04,	nF5,	$02,	nRst,	$04,	nF5,	$0C,	nF5
	dc.b		$02,	nRst,	$04,	nF5,	$01,	nRst,	$04,	nG5
	dc.b		$0C,	nG5,	$02,	nRst,	$04,	nG5,	$02,	nRst
	dc.b		$04,	nG5,	$01,	nRst,	$04,	nG5,	$06,	nE5
	dc.b		nG5,	nA5,	nRst,	$5C,	nF5,	$02,	nRst,	$04
	dc.b		nF5,	$02,	nRst,	$04,	nF5,	$02,	nRst,	$04
	dc.b		nF5,	$0B,	nF5,	$02,	nRst,	$04,	nF5,	$02
	dc.b		nRst,	$04,	nG5,	$0C,	nG5,	$02,	nRst,	$03
	dc.b		nG5,	$02,	nRst,	$04,	nG5,	$02,	nRst,	$04
	dc.b		nG5,	$06,	nE5,	nG5,	$05,	nA5,	$06,	nRst
	dc.b		$7F,	$7F,	$7F,	$7F,	$7F,	$7F,	$7F,	$7F
	dc.b		$7F,	$7F,	$7F,	$59
	smpsAlterVol	$FA
	smpsPan		panCentre,	$00
	smpsJump	DJKK_Jump03

; FM4 Data
DJKK_FM4:
	smpsPan		panCentre,	$00
	dc.b		nRst,	$7F,	$3A
DJKK_Jump04:
	smpsFMvoice	$02
	smpsAlterVol	$06
	dc.b		nC5,	$02,	nRst,	$04,	nC5,	$02,	nRst,	$04
	dc.b		nC5,	$02,	nRst,	$04,	nC5,	$0B,	nC5,	$02
	dc.b		nRst,	$04,	nC5,	$02,	nRst,	$04,	nD5,	$0B
	dc.b		nD5,	$02,	nRst,	$04,	nD5,	$02,	nRst,	$04
	dc.b		nD5,	$02,	nRst,	$04,	nD5,	$06,	nB4,	$05
	dc.b		nD5,	$06,	nE5,	nRst,	$5D,	nC5,	$02,	nRst
	dc.b		$04,	nC5,	$02,	nRst,	$04,	nC5,	$02,	nRst
	dc.b		$03,	nC5,	$0C,	nC5,	$02,	nRst,	$04,	nC5
	dc.b		$02,	nRst,	$04,	nD5,	$0B,	nD5,	$02,	nRst
	dc.b		$04,	nD5,	$02,	nRst,	$04,	nD5,	$02,	nRst
	dc.b		$04,	nD5,	$05,	nB4,	$06,	nD5,	nE5,	nRst
	dc.b		$5D,	nC5,	$02,	nRst,	$03,	nC5,	$02,	nRst
	dc.b		$04,	nC5,	$02,	nRst,	$04,	nC5,	$0C,	nC5
	dc.b		$02,	nRst,	$04,	nC5,	$01,	nRst,	$04,	nD5
	dc.b		$0C,	nD5,	$02,	nRst,	$04,	nD5,	$02,	nRst
	dc.b		$04,	nD5,	$01,	nRst,	$04,	nD5,	$06,	nB4
	dc.b		nD5,	nE5,	nRst,	$5C,	nC5,	$02,	nRst,	$04
	dc.b		nC5,	$02,	nRst,	$04,	nC5,	$02,	nRst,	$04
	dc.b		nC5,	$0B,	nC5,	$02,	nRst,	$04,	nC5,	$02
	dc.b		nRst,	$04,	nD5,	$0C,	nD5,	$02,	nRst,	$03
	dc.b		nD5,	$02,	nRst,	$04,	nD5,	$02,	nRst,	$04
	dc.b		nD5,	$06,	nB4,	nD5,	$05,	nE5,	$06,	nRst
	dc.b		$7F,	$7F,	$7F,	$7F,	$7F,	$7F,	$7F,	$7F
	dc.b		$7F,	$7F,	$7F,	$59
	smpsAlterVol	$FA
	smpsPan		panCentre,	$00
	smpsJump	DJKK_Jump04

; FM5 Data
DJKK_FM5:
	smpsFMvoice	$00
	smpsAlterVol	$06
	smpsPan		panCentre,	$00
	dc.b		nB6,	$2E,	nB6,	nB6,	$18,	nB6,	$17,	nB6
	dc.b		nB6,	$17
DJKK_Jump05:
	dc.b		smpsNoAttack,	nB6,	$0C,	nB6,	$17,	nB6,	nB6,	nB6
	dc.b		$18,	nB6,	$17,	nB6,	nB6,	nB6,	$18,	nB6
	dc.b		$17,	nB6,	nB6,	nB6,	nB6,	$18,	nB6,	$17
	dc.b		nB6,	nB6,	nB6,	$18,	nB6,	$17,	nB6,	nB6
	dc.b		nB6,	nB6,	$18,	nB6,	$17,	nB6,	$11
	smpsFMvoice	$03
	smpsAlterVol	$FA
	dc.b		nA5,	$06
	smpsFMvoice	$00
	smpsAlterVol	$06
	dc.b		nB6,	$13
	smpsFMvoice	$03
	smpsAlterVol	$FA
	dc.b		nA5,	$04
	smpsFMvoice	$00
	smpsAlterVol	$06
	dc.b		nB6,	$0C
	smpsFMvoice	$03
	smpsAlterVol	$FA
	dc.b		nE5,	$0B
	smpsFMvoice	$00
	smpsAlterVol	$06
	dc.b		nB6,	$06
	smpsFMvoice	$03
	smpsAlterVol	$FA
	dc.b		nD5,	nB4,	nA4
	smpsFMvoice	$00
	smpsAlterVol	$06
	dc.b		nB6,	$05
	smpsFMvoice	$03
	smpsAlterVol	$FA
	dc.b		nB3,	$12
	smpsFMvoice	$00
	smpsAlterVol	$06
	dc.b		nB6,	$17,	nB6,	nB6,	$18,	nB6,	$17,	nB6
	dc.b		nB6,	nB6,	nB6,	$18,	nB6,	$17,	nB6,	nB6
	dc.b		nB6,	nB6,	$18,	nB6,	$17,	nB6,	nB6,	nB6
	dc.b		$18,	nB6,	$17,	nB6,	nB6,	nB6,	nB6,	$18
	dc.b		nB6,	$17,	nB6,	nB6,	nB6,	$18,	nB6,	$17
	dc.b		nB6,	$57
	smpsFMvoice	$03
	smpsAlterVol	$FA
	dc.b		nA4,	$1D
	smpsFMvoice	$00
	smpsAlterVol	$06
	dc.b		nB6,	$17,	nB6,	nB6,	nB6,	$18,	nB6,	$17
	dc.b		nB6,	nB6,	nB6,	$18,	nB6,	$17,	nB6,	nB6
	dc.b		nB6,	nB6,	$18,	nB6,	$17,	nB6,	$06
	smpsFMvoice	$03
	smpsAlterVol	$FA
	dc.b		nA4,	$0B,	nA4,	$06
	smpsFMvoice	$00
	smpsAlterVol	$06
	dc.b		nB6
	smpsFMvoice	$03
	smpsAlterVol	$FA
	dc.b		nA4,	$11
	smpsFMvoice	$00
	smpsAlterVol	$06
	dc.b		nB6,	$17,	nB6,	$18,	nB6,	$17,	nB6,	nB6
	dc.b		nB6,	$18,	nB6,	$17,	nB6,	nB6,	nB6,	nB6
	dc.b		$18,	nB6,	$17,	nB6,	nB6,	nB6,	$06
	smpsFMvoice	$03
	smpsAlterVol	$FA
	dc.b		nA4,	$0C,	nA4,	$06
	smpsFMvoice	$00
	smpsAlterVol	$06
	dc.b		nB6,	$05
	smpsFMvoice	$03
	smpsAlterVol	$FA
	dc.b		nA4,	$06
	smpsFMvoice	$00
	smpsAlterVol	$06
	smpsPan		panCentre,	$00
	smpsJump	DJKK_Jump05

; PSG1 Data
DJKK_PSG1:
	dc.b		nRst,	$7F,	$3E
DJKK_Jump06:
	dc.b		nRst,	$7F,	$7F,	$19
	smpsAlterNote	$23
	dc.b		nC0,	$03
	smpsPSGAlterVol	$01
	smpsAlterNote	$23
	dc.b		nC0,	$01
	smpsPSGAlterVol	$02
	smpsAlterNote	$23
	dc.b		nC0
	smpsPSGAlterVol	$01
	smpsAlterNote	$23
	dc.b		nC0
	smpsPSGAlterVol	$FC
	smpsAlterNote	$02
	dc.b		nE0,	$03
	smpsPSGAlterVol	$01
	smpsAlterNote	$02
	dc.b		nE0,	$01
	smpsPSGAlterVol	$03
	smpsAlterNote	$02
	dc.b		nE0
	smpsPSGAlterVol	$FC
	smpsAlterNote	$01
	dc.b		nA0,	$03
	smpsPSGAlterVol	$01
	smpsAlterNote	$01
	dc.b		nA0,	$01
	smpsPSGAlterVol	$02
	smpsAlterNote	$01
	dc.b		nA0
	smpsPSGAlterVol	$01
	smpsAlterNote	$01
	dc.b		nA0
	smpsPSGAlterVol	$FC
	dc.b		nC1,	$03
	smpsPSGAlterVol	$01
	dc.b		nC1,	$01
	smpsPSGAlterVol	$02
	dc.b		nC1
	smpsPSGAlterVol	$01
	dc.b		nC1
	smpsPSGAlterVol	$FC
	smpsAlterNote	$00
	dc.b		nE1,	$03
	smpsPSGAlterVol	$01
	smpsAlterNote	$00
	dc.b		nE1,	$01
	smpsPSGAlterVol	$02
	smpsAlterNote	$00
	dc.b		nE1
	smpsPSGAlterVol	$01
	smpsAlterNote	$00
	dc.b		nE1
	smpsPSGAlterVol	$FC
	dc.b		nA1,	$03
	smpsPSGAlterVol	$01
	dc.b		nA1,	$01
	smpsPSGAlterVol	$02
	dc.b		nA1
	smpsPSGAlterVol	$01
	dc.b		nA1
	smpsPSGAlterVol	$FC
	smpsAlterNote	$01
	dc.b		nE2,	$03
	smpsPSGAlterVol	$01
	smpsAlterNote	$01
	dc.b		nE2,	$01
	smpsPSGAlterVol	$03
	smpsAlterNote	$01
	dc.b		nE2
	smpsPSGAlterVol	$FC
	smpsAlterNote	$00
	dc.b		nA2,	$03
	smpsPSGAlterVol	$01
	smpsAlterNote	$00
	dc.b		nA2,	$01
	smpsPSGAlterVol	$02
	smpsAlterNote	$00
	dc.b		nA2
	smpsPSGAlterVol	$01
	smpsAlterNote	$00
	dc.b		nA2
	smpsPSGAlterVol	$FC
	dc.b		nE3,	$03
	smpsPSGAlterVol	$01
	dc.b		nE3,	$01
	smpsPSGAlterVol	$02
	dc.b		nE3
	smpsPSGAlterVol	$01
	dc.b		nE3
	smpsPSGAlterVol	$FC
	dc.b		nA3,	$03
	smpsPSGAlterVol	$01
	dc.b		nA3,	$01
	smpsPSGAlterVol	$02
	dc.b		nA3
	smpsPSGAlterVol	$01
	dc.b		nA3
	smpsPSGAlterVol	$FC
	dc.b		nC3,	$03
	smpsPSGAlterVol	$01
	dc.b		nC3,	$01
	smpsPSGAlterVol	$02
	dc.b		nC3
	smpsPSGAlterVol	$01
	dc.b		nC3
	smpsPSGAlterVol	$FC
	dc.b		nA2,	$03
	smpsPSGAlterVol	$01
	dc.b		nA2,	$01
	smpsPSGAlterVol	$02
	dc.b		nA2
	smpsPSGAlterVol	$FD
	smpsAlterNote	$01
	dc.b		nE2,	$03
	smpsPSGAlterVol	$01
	smpsAlterNote	$01
	dc.b		nE2,	$01
	smpsPSGAlterVol	$02
	smpsAlterNote	$01
	dc.b		nE2
	smpsPSGAlterVol	$01
	smpsAlterNote	$01
	dc.b		nE2
	smpsPSGAlterVol	$FC
	smpsAlterNote	$00
	dc.b		nC2,	$03
	smpsPSGAlterVol	$01
	smpsAlterNote	$00
	dc.b		nC2,	$01
	smpsPSGAlterVol	$02
	smpsAlterNote	$00
	dc.b		nC2
	smpsPSGAlterVol	$01
	smpsAlterNote	$00
	dc.b		nC2
	smpsPSGAlterVol	$FC
	dc.b		nA1,	$03
	smpsPSGAlterVol	$01
	dc.b		nA1,	$01
	smpsPSGAlterVol	$02
	dc.b		nA1
	smpsPSGAlterVol	$01
	dc.b		nA1
	smpsPSGAlterVol	$FC
	dc.b		nE1,	$03
	smpsPSGAlterVol	$01
	dc.b		nE1,	$01
	smpsPSGAlterVol	$02
	dc.b		nE1
	smpsPSGAlterVol	$01
	dc.b		nE1
	smpsPSGAlterVol	$01
	dc.b		nE1,	$02
	smpsPSGAlterVol	$01
	dc.b		nE1,	$01
	smpsPSGAlterVol	$01
	dc.b		nE1,	$02
	smpsPSGAlterVol	$02
	dc.b		nE1,	$01
	smpsPSGAlterVol	$01
	dc.b		nE1,	$03
	smpsPSGAlterVol	$01
	dc.b		nE1,	$02
	smpsPSGAlterVol	$01
	dc.b		nE1,	$03
	smpsPSGAlterVol	$01
	dc.b		nE1,	$08
	smpsPSGAlterVol	$01
	dc.b		nE1,	$01,	nRst,	$7F,	$7F,	$7F,	$7F,	$7F
	dc.b		$7F,	$7F,	$2D
	smpsPSGAlterVol	$F2
	smpsAlterNote	$01
	dc.b		nA0,	$04
	smpsPSGAlterVol	$01
	smpsAlterNote	$01
	dc.b		nA0,	$02
	smpsPSGAlterVol	$FF
	dc.b		nC1,	$04
	smpsPSGAlterVol	$01
	dc.b		nC1,	$02
	smpsPSGAlterVol	$FF
	smpsAlterNote	$00
	dc.b		nD1,	$04
	smpsPSGAlterVol	$01
	smpsAlterNote	$00
	dc.b		nD1,	$02
	smpsPSGAlterVol	$FF
	smpsAlterNote	$01
	dc.b		nEb1,	$04
	smpsPSGAlterVol	$01
	smpsAlterNote	$01
	dc.b		nEb1,	$02
	smpsPSGAlterVol	$FF
	smpsAlterNote	$00
	dc.b		nD1,	$03
	smpsPSGAlterVol	$01
	smpsAlterNote	$00
	dc.b		nD1,	$02
	smpsPSGAlterVol	$FF
	smpsAlterNote	$01
	dc.b		nC1,	$04
	smpsPSGAlterVol	$01
	smpsAlterNote	$01
	dc.b		nC1,	$02
	smpsPSGAlterVol	$FF
	dc.b		nA0,	$04
	smpsPSGAlterVol	$01
	dc.b		nA0,	$02,	nRst,	$06
	smpsPSGAlterVol	$FF
	smpsAlterNote	$00
	dc.b		nA3,	$04
	smpsPSGAlterVol	$01
	smpsAlterNote	$00
	dc.b		nA3,	$02,	nRst,	$7F,	$7F,	$7F,	$7F,	$7F
	dc.b		$26
	smpsPSGAlterVol	$FF
	smpsAlterNote	$01
	dc.b		nA0,	$03
	smpsPSGAlterVol	$01
	smpsAlterNote	$01
	dc.b		nA0,	$01
	smpsPSGAlterVol	$02
	smpsAlterNote	$01
	dc.b		nA0
	smpsPSGAlterVol	$01
	smpsAlterNote	$01
	dc.b		nA0
	smpsPSGAlterVol	$FC
	dc.b		nC1,	$03
	smpsPSGAlterVol	$01
	dc.b		nC1,	$01
	smpsPSGAlterVol	$02
	dc.b		nC1
	smpsPSGAlterVol	$FD
	smpsAlterNote	$00
	dc.b		nE1,	$03
	smpsPSGAlterVol	$01
	smpsAlterNote	$00
	dc.b		nE1,	$01
	smpsPSGAlterVol	$02
	smpsAlterNote	$00
	dc.b		nE1
	smpsPSGAlterVol	$01
	smpsAlterNote	$00
	dc.b		nE1
	smpsPSGAlterVol	$FC
	dc.b		nA1,	$03
	smpsPSGAlterVol	$01
	dc.b		nA1,	$01
	smpsPSGAlterVol	$02
	dc.b		nA1
	smpsPSGAlterVol	$01
	dc.b		nA1
	smpsPSGAlterVol	$FC
	smpsAlterNote	$01
	dc.b		nE2,	$03
	smpsPSGAlterVol	$01
	smpsAlterNote	$01
	dc.b		nE2,	$01
	smpsPSGAlterVol	$02
	smpsAlterNote	$01
	dc.b		nE2
	smpsPSGAlterVol	$01
	smpsAlterNote	$01
	dc.b		nE2
	smpsPSGAlterVol	$FC
	smpsAlterNote	$00
	dc.b		nA2,	$03
	smpsPSGAlterVol	$01
	smpsAlterNote	$00
	dc.b		nA2,	$01
	smpsPSGAlterVol	$02
	smpsAlterNote	$00
	dc.b		nA2
	smpsPSGAlterVol	$01
	smpsAlterNote	$00
	dc.b		nA2
	smpsPSGAlterVol	$FC
	dc.b		nE3,	$03
	smpsPSGAlterVol	$01
	dc.b		nE3,	$01
	smpsPSGAlterVol	$02
	dc.b		nE3
	smpsPSGAlterVol	$01
	dc.b		nE3
	smpsPSGAlterVol	$FC
	dc.b		nA3,	$02
	smpsPSGAlterVol	$01
	dc.b		nA3,	$01
	smpsPSGAlterVol	$02
	dc.b		nA3
	smpsPSGAlterVol	$01
	dc.b		nA3
	smpsPSGAlterVol	$FC
	dc.b		nC3,	$03
	smpsPSGAlterVol	$01
	dc.b		nC3,	$01
	smpsPSGAlterVol	$02
	dc.b		nC3
	smpsPSGAlterVol	$01
	dc.b		nC3
	smpsPSGAlterVol	$FC
	dc.b		nA2,	$03
	smpsPSGAlterVol	$01
	dc.b		nA2,	$01
	smpsPSGAlterVol	$02
	dc.b		nA2
	smpsPSGAlterVol	$01
	dc.b		nA2
	smpsPSGAlterVol	$FC
	smpsAlterNote	$01
	dc.b		nE2,	$03
	smpsPSGAlterVol	$01
	smpsAlterNote	$01
	dc.b		nE2,	$01
	smpsPSGAlterVol	$02
	smpsAlterNote	$01
	dc.b		nE2
	smpsPSGAlterVol	$01
	smpsAlterNote	$01
	dc.b		nE2
	smpsPSGAlterVol	$FC
	smpsAlterNote	$00
	dc.b		nC2,	$03
	smpsPSGAlterVol	$01
	smpsAlterNote	$00
	dc.b		nC2,	$01
	smpsPSGAlterVol	$02
	smpsAlterNote	$00
	dc.b		nC2
	smpsPSGAlterVol	$01
	smpsAlterNote	$00
	dc.b		nC2
	smpsPSGAlterVol	$FC
	dc.b		nA1,	$02
	smpsPSGAlterVol	$01
	dc.b		nA1,	$01
	smpsPSGAlterVol	$02
	dc.b		nA1
	smpsPSGAlterVol	$01
	dc.b		nA1
	smpsPSGAlterVol	$FC
	dc.b		nE1,	$03
	smpsPSGAlterVol	$01
	dc.b		nE1,	$01
	smpsPSGAlterVol	$02
	dc.b		nE1
	smpsPSGAlterVol	$01
	dc.b		nE1
	smpsPSGAlterVol	$FC
	smpsJump	DJKK_Jump06

; PSG3 Data
DJKK_PSG3:
	smpsPSGform	$E7
	smpsAlterNote	$01
	dc.b		nA5,	$02
	smpsPSGAlterVol	$01
	smpsAlterNote	$01
	dc.b		nA5,	$01
	smpsPSGAlterVol	$02
	smpsAlterNote	$01
	dc.b		nA5
	smpsPSGAlterVol	$01
	smpsAlterNote	$01
	dc.b		nA5
	smpsPSGAlterVol	$01
	smpsAlterNote	$01
	dc.b		nA5,	$02
	smpsPSGAlterVol	$01
	smpsAlterNote	$01
	dc.b		nA5,	$01
	smpsPSGAlterVol	$01
	smpsAlterNote	$01
	dc.b		nA5,	$02
	smpsPSGAlterVol	$02
	smpsAlterNote	$01
	dc.b		nA5
	smpsPSGAlterVol	$01
	smpsAlterNote	$01
	dc.b		nA5,	$03
	smpsPSGAlterVol	$01
	smpsAlterNote	$01
	dc.b		nA5,	$02
	smpsPSGAlterVol	$01
	smpsAlterNote	$01
	dc.b		nA5,	$03
	smpsPSGAlterVol	$01
	smpsAlterNote	$01
	dc.b		nA5,	$08
	smpsPSGAlterVol	$01
	smpsAlterNote	$01
	dc.b		nA5,	$01,	nRst,	$11
	smpsPSGAlterVol	$F2
	smpsAlterNote	$01
	dc.b		nA5,	$03
	smpsPSGAlterVol	$01
	smpsAlterNote	$01
	dc.b		nA5,	$01
	smpsPSGAlterVol	$02
	smpsAlterNote	$01
	dc.b		nA5
	smpsPSGAlterVol	$01
	smpsAlterNote	$01
	dc.b		nA5
	smpsPSGAlterVol	$01
	smpsAlterNote	$01
	dc.b		nA5,	$02
	smpsPSGAlterVol	$01
	smpsAlterNote	$01
	dc.b		nA5,	$01
	smpsPSGAlterVol	$01
	smpsAlterNote	$01
	dc.b		nA5,	$02
	smpsPSGAlterVol	$02
	smpsAlterNote	$01
	dc.b		nA5
	smpsPSGAlterVol	$01
	smpsAlterNote	$01
	dc.b		nA5
	smpsPSGAlterVol	$01
	smpsAlterNote	$01
	dc.b		nA5
	smpsPSGAlterVol	$01
	smpsAlterNote	$01
	dc.b		nA5,	$03
	smpsPSGAlterVol	$01
	smpsAlterNote	$01
	dc.b		nA5,	$08
	smpsPSGAlterVol	$01
	smpsAlterNote	$01
	dc.b		nA5,	$01,	nRst,	$11
	smpsPSGAlterVol	$F2
	smpsAlterNote	$01
	dc.b		nA5,	$03
	smpsPSGAlterVol	$01
	smpsAlterNote	$01
	dc.b		nA5,	$01
	smpsPSGAlterVol	$02
	smpsAlterNote	$01
	dc.b		nA5
	smpsPSGAlterVol	$01
	smpsAlterNote	$01
	dc.b		nA5
	smpsPSGAlterVol	$01
	smpsAlterNote	$01
	dc.b		nA5,	$02
	smpsPSGAlterVol	$01
	smpsAlterNote	$01
	dc.b		nA5,	$01
	smpsPSGAlterVol	$01
	smpsAlterNote	$01
	dc.b		nA5,	$02
	smpsPSGAlterVol	$02
	smpsAlterNote	$01
	dc.b		nA5
	smpsPSGAlterVol	$01
	smpsAlterNote	$01
	dc.b		nA5,	$03
	smpsPSGAlterVol	$01
	smpsAlterNote	$01
	dc.b		nA5,	$02
	smpsPSGAlterVol	$01
	smpsAlterNote	$01
	dc.b		nA5,	$03
	smpsPSGAlterVol	$01
	smpsAlterNote	$01
	dc.b		nA5
	smpsPSGAlterVol	$F3
	smpsAlterNote	$01
	dc.b		nA5,	$02
	smpsPSGAlterVol	$01
	smpsAlterNote	$01
	dc.b		nA5,	$01
	smpsPSGAlterVol	$02
	smpsAlterNote	$01
	dc.b		nA5
	smpsPSGAlterVol	$01
	smpsAlterNote	$01
	dc.b		nA5
	smpsPSGAlterVol	$01
	smpsAlterNote	$01
	dc.b		nA5,	$02
	smpsPSGAlterVol	$01
	smpsAlterNote	$01
	dc.b		nA5,	$01
	smpsPSGAlterVol	$01
	smpsAlterNote	$01
	dc.b		nA5,	$02
	smpsPSGAlterVol	$02
	smpsAlterNote	$01
	dc.b		nA5
	smpsPSGAlterVol	$01
	smpsAlterNote	$01
	dc.b		nA5,	$03
	smpsPSGAlterVol	$01
	smpsAlterNote	$01
	dc.b		nA5,	$02
	smpsPSGAlterVol	$01
	smpsAlterNote	$01
	dc.b		nA5,	$03
	smpsPSGAlterVol	$01
	smpsAlterNote	$01
	dc.b		nA5
	smpsPSGAlterVol	$F3
	smpsAlterNote	$01
	dc.b		nA5
	smpsPSGAlterVol	$01
	smpsAlterNote	$01
	dc.b		nA5,	$01
	smpsPSGAlterVol	$02
	smpsAlterNote	$01
	dc.b		nA5
	smpsPSGAlterVol	$01
	smpsAlterNote	$01
	dc.b		nA5
	smpsPSGAlterVol	$01
	smpsAlterNote	$01
	dc.b		nA5,	$02
	smpsPSGAlterVol	$01
	smpsAlterNote	$01
	dc.b		nA5,	$01
	smpsPSGAlterVol	$01
	smpsAlterNote	$01
	dc.b		nA5
	smpsPSGAlterVol	$02
	smpsAlterNote	$01
	dc.b		nA5,	$02
	smpsPSGAlterVol	$01
	smpsAlterNote	$01
	dc.b		nA5,	$03
	smpsPSGAlterVol	$01
	smpsAlterNote	$01
	dc.b		nA5,	$02
	smpsPSGAlterVol	$01
	smpsAlterNote	$01
	dc.b		nA5,	$03
	smpsPSGAlterVol	$01
	smpsAlterNote	$01
	dc.b		nA5
	smpsPSGAlterVol	$F3
	smpsAlterNote	$01
	dc.b		nA5
	smpsPSGAlterVol	$01
	smpsAlterNote	$01
	dc.b		nA5,	$01
	smpsPSGAlterVol	$02
	smpsAlterNote	$01
	dc.b		nA5
	smpsPSGAlterVol	$01
	smpsAlterNote	$01
	dc.b		nA5
	smpsPSGAlterVol	$01
	smpsAlterNote	$01
	dc.b		nA5,	$02
	smpsPSGAlterVol	$01
	smpsAlterNote	$01
	dc.b		nA5,	$01
	smpsPSGAlterVol	$01
	smpsAlterNote	$01
	dc.b		nA5,	$02
	smpsPSGAlterVol	$02
	smpsAlterNote	$01
	dc.b		nA5
	smpsPSGAlterVol	$01
	smpsAlterNote	$01
	dc.b		nA5
	smpsPSGAlterVol	$01
	smpsAlterNote	$01
	dc.b		nA5
	smpsPSGAlterVol	$01
	smpsAlterNote	$01
	dc.b		nA5,	$03
	smpsPSGAlterVol	$01
	smpsAlterNote	$01
	dc.b		nA5,	$08
DJKK_Jump07:
	dc.b		nA5,	$05
	smpsPSGAlterVol	$01
	smpsAlterNote	$01
	dc.b		nA5,	$01,	nRst,	$02
	smpsPSGAlterVol	$F2
	smpsAlterNote	$01
	dc.b		nA5,	$03
	smpsPSGAlterVol	$01
	smpsAlterNote	$01
	dc.b		nA5,	$01
	smpsPSGAlterVol	$02
	smpsAlterNote	$01
	dc.b		nA5
	smpsPSGAlterVol	$01
	smpsAlterNote	$01
	dc.b		nA5
	smpsPSGAlterVol	$01
	smpsAlterNote	$01
	dc.b		nA5,	$02
	smpsPSGAlterVol	$01
	smpsAlterNote	$01
	dc.b		nA5,	$01
	smpsPSGAlterVol	$01
	smpsAlterNote	$01
	dc.b		nA5
	smpsPSGAlterVol	$02
	smpsAlterNote	$01
	dc.b		nA5,	$02
	smpsPSGAlterVol	$01
	smpsAlterNote	$01
	dc.b		nA5,	$03
	smpsPSGAlterVol	$01
	smpsAlterNote	$01
	dc.b		nA5,	$02
	smpsPSGAlterVol	$01
	smpsAlterNote	$01
	dc.b		nA5,	$03
	smpsPSGAlterVol	$01
	smpsAlterNote	$01
	dc.b		nA5
	smpsPSGAlterVol	$F3
	smpsAlterNote	$01
	dc.b		nA5
	smpsPSGAlterVol	$01
	smpsAlterNote	$01
	dc.b		nA5,	$01
	smpsPSGAlterVol	$02
	smpsAlterNote	$01
	dc.b		nA5
	smpsPSGAlterVol	$01
	smpsAlterNote	$01
	dc.b		nA5
	smpsPSGAlterVol	$01
	smpsAlterNote	$01
	dc.b		nA5,	$02
	smpsPSGAlterVol	$01
	smpsAlterNote	$01
	dc.b		nA5,	$01
	smpsPSGAlterVol	$01
	smpsAlterNote	$01
	dc.b		nA5,	$02
	smpsPSGAlterVol	$02
	smpsAlterNote	$01
	dc.b		nA5
	smpsPSGAlterVol	$01
	smpsAlterNote	$01
	dc.b		nA5,	$03
	smpsPSGAlterVol	$01
	smpsAlterNote	$01
	dc.b		nA5,	$01
	smpsPSGAlterVol	$01
	smpsAlterNote	$01
	dc.b		nA5,	$03
	smpsPSGAlterVol	$01
	smpsAlterNote	$01
	dc.b		nA5
	smpsPSGAlterVol	$F3
	smpsAlterNote	$01
	dc.b		nA5
	smpsPSGAlterVol	$01
	smpsAlterNote	$01
	dc.b		nA5,	$01
	smpsPSGAlterVol	$02
	smpsAlterNote	$01
	dc.b		nA5
	smpsPSGAlterVol	$01
	smpsAlterNote	$01
	dc.b		nA5
	smpsPSGAlterVol	$01
	smpsAlterNote	$01
	dc.b		nA5,	$02
	smpsPSGAlterVol	$01
	smpsAlterNote	$01
	dc.b		nA5,	$01
	smpsPSGAlterVol	$01
	smpsAlterNote	$01
	dc.b		nA5,	$02
	smpsPSGAlterVol	$02
	smpsAlterNote	$01
	dc.b		nA5
	smpsPSGAlterVol	$01
	smpsAlterNote	$01
	dc.b		nA5,	$03
	smpsPSGAlterVol	$01
	smpsAlterNote	$01
	dc.b		nA5,	$02
	smpsPSGAlterVol	$01
	smpsAlterNote	$01
	dc.b		nA5,	$03
	smpsPSGAlterVol	$01
	smpsAlterNote	$01
	dc.b		nA5,	$02
	smpsPSGAlterVol	$F3
	smpsAlterNote	$01
	dc.b		nA5,	$03
	smpsPSGAlterVol	$01
	smpsAlterNote	$01
	dc.b		nA5,	$01
	smpsPSGAlterVol	$02
	smpsAlterNote	$01
	dc.b		nA5
	smpsPSGAlterVol	$01
	smpsAlterNote	$01
	dc.b		nA5
	smpsPSGAlterVol	$01
	smpsAlterNote	$01
	dc.b		nA5,	$02
	smpsPSGAlterVol	$01
	smpsAlterNote	$01
	dc.b		nA5,	$01
	smpsPSGAlterVol	$01
	smpsAlterNote	$01
	dc.b		nA5,	$02
	smpsPSGAlterVol	$02
	smpsAlterNote	$01
	dc.b		nA5
	smpsPSGAlterVol	$01
	smpsAlterNote	$01
	dc.b		nA5,	$03
	smpsPSGAlterVol	$01
	smpsAlterNote	$01
	dc.b		nA5,	$02
	smpsPSGAlterVol	$01
	smpsAlterNote	$01
	dc.b		nA5,	$03
	smpsPSGAlterVol	$01
	smpsAlterNote	$01
	dc.b		nA5
	smpsPSGAlterVol	$F3
	smpsAlterNote	$01
	dc.b		nA5
	smpsPSGAlterVol	$01
	smpsAlterNote	$01
	dc.b		nA5,	$01
	smpsPSGAlterVol	$02
	smpsAlterNote	$01
	dc.b		nA5
	smpsPSGAlterVol	$01
	smpsAlterNote	$01
	dc.b		nA5
	smpsPSGAlterVol	$01
	smpsAlterNote	$01
	dc.b		nA5
	smpsPSGAlterVol	$01
	smpsAlterNote	$01
	dc.b		nA5
	smpsPSGAlterVol	$01
	smpsAlterNote	$01
	dc.b		nA5,	$02
	smpsPSGAlterVol	$02
	smpsAlterNote	$01
	dc.b		nA5
	smpsPSGAlterVol	$01
	smpsAlterNote	$01
	dc.b		nA5,	$03
	smpsPSGAlterVol	$01
	smpsAlterNote	$01
	dc.b		nA5,	$02
	smpsPSGAlterVol	$01
	smpsAlterNote	$01
	dc.b		nA5,	$03
	smpsPSGAlterVol	$01
	smpsAlterNote	$01
	dc.b		nA5
	smpsPSGAlterVol	$F3
	smpsAlterNote	$01
	dc.b		nA5
	smpsPSGAlterVol	$01
	smpsAlterNote	$01
	dc.b		nA5,	$01
	smpsPSGAlterVol	$02
	smpsAlterNote	$01
	dc.b		nA5
	smpsPSGAlterVol	$01
	smpsAlterNote	$01
	dc.b		nA5
	smpsPSGAlterVol	$01
	smpsAlterNote	$01
	dc.b		nA5,	$02
	smpsPSGAlterVol	$01
	smpsAlterNote	$01
	dc.b		nA5,	$01
	smpsPSGAlterVol	$01
	smpsAlterNote	$01
	dc.b		nA5,	$02
	smpsPSGAlterVol	$02
	smpsAlterNote	$01
	dc.b		nA5,	$01
	smpsPSGAlterVol	$01
	smpsAlterNote	$01
	dc.b		nA5,	$03
	smpsPSGAlterVol	$01
	smpsAlterNote	$01
	dc.b		nA5,	$02
	smpsPSGAlterVol	$01
	smpsAlterNote	$01
	dc.b		nA5,	$03
	smpsPSGAlterVol	$01
	smpsAlterNote	$01
	dc.b		nA5
	smpsPSGAlterVol	$F3
	smpsAlterNote	$01
	dc.b		nA5
	smpsPSGAlterVol	$01
	smpsAlterNote	$01
	dc.b		nA5,	$01
	smpsPSGAlterVol	$02
	smpsAlterNote	$01
	dc.b		nA5
	smpsPSGAlterVol	$01
	smpsAlterNote	$01
	dc.b		nA5
	smpsPSGAlterVol	$01
	smpsAlterNote	$01
	dc.b		nA5,	$02
	smpsPSGAlterVol	$01
	smpsAlterNote	$01
	dc.b		nA5,	$01
	smpsPSGAlterVol	$01
	smpsAlterNote	$01
	dc.b		nA5,	$02
	smpsPSGAlterVol	$02
	smpsAlterNote	$01
	dc.b		nA5
	smpsPSGAlterVol	$01
	smpsAlterNote	$01
	dc.b		nA5,	$03
	smpsPSGAlterVol	$01
	smpsAlterNote	$01
	dc.b		nA5,	$02
	smpsPSGAlterVol	$01
	smpsAlterNote	$01
	dc.b		nA5
	smpsPSGAlterVol	$01
	smpsAlterNote	$01
	dc.b		nA5,	$03
	smpsPSGAlterVol	$F3
	smpsAlterNote	$01
	dc.b		nA5
	smpsPSGAlterVol	$01
	smpsAlterNote	$01
	dc.b		nA5,	$01
	smpsPSGAlterVol	$02
	smpsAlterNote	$01
	dc.b		nA5
	smpsPSGAlterVol	$01
	smpsAlterNote	$01
	dc.b		nA5
	smpsPSGAlterVol	$01
	smpsAlterNote	$01
	dc.b		nA5,	$02
	smpsPSGAlterVol	$01
	smpsAlterNote	$01
	dc.b		nA5,	$01
	smpsPSGAlterVol	$01
	smpsAlterNote	$01
	dc.b		nA5,	$02
	smpsPSGAlterVol	$02
	smpsAlterNote	$01
	dc.b		nA5
	smpsPSGAlterVol	$01
	smpsAlterNote	$01
	dc.b		nA5,	$03
	smpsPSGAlterVol	$01
	smpsAlterNote	$01
	dc.b		nA5,	$02
	smpsPSGAlterVol	$01
	smpsAlterNote	$01
	dc.b		nA5,	$03
	smpsPSGAlterVol	$01
	smpsAlterNote	$01
	dc.b		nA5
	smpsPSGAlterVol	$F3
	smpsAlterNote	$01
	dc.b		nA5,	$02
	smpsPSGAlterVol	$01
	smpsAlterNote	$01
	dc.b		nA5,	$01
	smpsPSGAlterVol	$02
	smpsAlterNote	$01
	dc.b		nA5
	smpsPSGAlterVol	$01
	smpsAlterNote	$01
	dc.b		nA5
	smpsPSGAlterVol	$01
	smpsAlterNote	$01
	dc.b		nA5,	$02
	smpsPSGAlterVol	$01
	smpsAlterNote	$01
	dc.b		nA5,	$01
	smpsPSGAlterVol	$01
	smpsAlterNote	$01
	dc.b		nA5,	$02
	smpsPSGAlterVol	$02
	smpsAlterNote	$01
	dc.b		nA5
	smpsPSGAlterVol	$01
	smpsAlterNote	$01
	dc.b		nA5,	$03
	smpsPSGAlterVol	$01
	smpsAlterNote	$01
	dc.b		nA5,	$02
	smpsPSGAlterVol	$01
	smpsAlterNote	$01
	dc.b		nA5,	$03
	smpsPSGAlterVol	$01
	smpsAlterNote	$01
	dc.b		nA5
	smpsPSGAlterVol	$F3
	smpsAlterNote	$01
	dc.b		nA5
	smpsPSGAlterVol	$01
	smpsAlterNote	$01
	dc.b		nA5,	$01
	smpsPSGAlterVol	$02
	smpsAlterNote	$01
	dc.b		nA5
	smpsPSGAlterVol	$01
	smpsAlterNote	$01
	dc.b		nA5
	smpsPSGAlterVol	$01
	smpsAlterNote	$01
	dc.b		nA5,	$02
	smpsPSGAlterVol	$02
	smpsAlterNote	$01
	dc.b		nA5
	smpsPSGAlterVol	$02
	smpsAlterNote	$01
	dc.b		nA5
	smpsPSGAlterVol	$01
	smpsAlterNote	$01
	dc.b		nA5,	$03
	smpsPSGAlterVol	$01
	smpsAlterNote	$01
	dc.b		nA5,	$02
	smpsPSGAlterVol	$01
	smpsAlterNote	$01
	dc.b		nA5,	$03
	smpsPSGAlterVol	$01
	smpsAlterNote	$01
	dc.b		nA5
	smpsPSGAlterVol	$F3
	smpsAlterNote	$01
	dc.b		nA5
	smpsPSGAlterVol	$01
	smpsAlterNote	$01
	dc.b		nA5,	$01
	smpsPSGAlterVol	$02
	smpsAlterNote	$01
	dc.b		nA5
	smpsPSGAlterVol	$01
	smpsAlterNote	$01
	dc.b		nA5
	smpsPSGAlterVol	$01
	smpsAlterNote	$01
	dc.b		nA5,	$02
	smpsPSGAlterVol	$01
	smpsAlterNote	$01
	dc.b		nA5,	$01
	smpsPSGAlterVol	$01
	smpsAlterNote	$01
	dc.b		nA5,	$02
	smpsPSGAlterVol	$02
	smpsAlterNote	$01
	dc.b		nA5
	smpsPSGAlterVol	$01
	smpsAlterNote	$01
	dc.b		nA5
	smpsPSGAlterVol	$01
	smpsAlterNote	$01
	dc.b		nA5
	smpsPSGAlterVol	$01
	smpsAlterNote	$01
	dc.b		nA5,	$03
	smpsPSGAlterVol	$01
	smpsAlterNote	$01
	dc.b		nA5
	smpsPSGAlterVol	$F3
	smpsAlterNote	$01
	dc.b		nA5
	smpsPSGAlterVol	$01
	smpsAlterNote	$01
	dc.b		nA5,	$01
	smpsPSGAlterVol	$02
	smpsAlterNote	$01
	dc.b		nA5
	smpsPSGAlterVol	$01
	smpsAlterNote	$01
	dc.b		nA5
	smpsPSGAlterVol	$01
	smpsAlterNote	$01
	dc.b		nA5,	$02
	smpsPSGAlterVol	$01
	smpsAlterNote	$01
	dc.b		nA5,	$01
	smpsPSGAlterVol	$01
	smpsAlterNote	$01
	dc.b		nA5,	$02
	smpsPSGAlterVol	$02
	smpsAlterNote	$01
	dc.b		nA5
	smpsPSGAlterVol	$01
	smpsAlterNote	$01
	dc.b		nA5,	$03
	smpsPSGAlterVol	$01
	smpsAlterNote	$01
	dc.b		nA5,	$02
	smpsPSGAlterVol	$01
	smpsAlterNote	$01
	dc.b		nA5,	$03
	smpsPSGAlterVol	$01
	smpsAlterNote	$01
	dc.b		nA5,	$02
	smpsPSGAlterVol	$F3
	smpsAlterNote	$01
	dc.b		nA5,	$03
	smpsPSGAlterVol	$01
	smpsAlterNote	$01
	dc.b		nA5,	$01
	smpsPSGAlterVol	$02
	smpsAlterNote	$01
	dc.b		nA5
	smpsPSGAlterVol	$01
	smpsAlterNote	$01
	dc.b		nA5
	smpsPSGAlterVol	$01
	smpsAlterNote	$01
	dc.b		nA5,	$02
	smpsPSGAlterVol	$01
	smpsAlterNote	$01
	dc.b		nA5,	$01
	smpsPSGAlterVol	$01
	smpsAlterNote	$01
	dc.b		nA5,	$02
	smpsPSGAlterVol	$02
	smpsAlterNote	$01
	dc.b		nA5
	smpsPSGAlterVol	$01
	smpsAlterNote	$01
	dc.b		nA5,	$03
	smpsPSGAlterVol	$01
	smpsAlterNote	$01
	dc.b		nA5,	$02
	smpsPSGAlterVol	$01
	smpsAlterNote	$01
	dc.b		nA5,	$03
	smpsPSGAlterVol	$01
	smpsAlterNote	$01
	dc.b		nA5
	smpsPSGAlterVol	$F3
	smpsAlterNote	$01
	dc.b		nA5
	smpsPSGAlterVol	$01
	smpsAlterNote	$01
	dc.b		nA5,	$01
	smpsPSGAlterVol	$03
	smpsAlterNote	$01
	dc.b		nA5
	smpsPSGAlterVol	$01
	smpsAlterNote	$01
	dc.b		nA5,	$02
	smpsPSGAlterVol	$01
	smpsAlterNote	$01
	dc.b		nA5,	$01
	smpsPSGAlterVol	$01
	smpsAlterNote	$01
	dc.b		nA5,	$02
	smpsPSGAlterVol	$02
	smpsAlterNote	$01
	dc.b		nA5
	smpsPSGAlterVol	$01
	smpsAlterNote	$01
	dc.b		nA5,	$03
	smpsPSGAlterVol	$01
	smpsAlterNote	$01
	dc.b		nA5,	$02
	smpsPSGAlterVol	$01
	smpsAlterNote	$01
	dc.b		nA5,	$03
	smpsPSGAlterVol	$01
	smpsAlterNote	$01
	dc.b		nA5
	smpsPSGAlterVol	$F3
	smpsAlterNote	$01
	dc.b		nA5
	smpsPSGAlterVol	$01
	smpsAlterNote	$01
	dc.b		nA5,	$01
	smpsPSGAlterVol	$02
	smpsAlterNote	$01
	dc.b		nA5
	smpsPSGAlterVol	$01
	smpsAlterNote	$01
	dc.b		nA5
	smpsPSGAlterVol	$01
	smpsAlterNote	$01
	dc.b		nA5,	$02
	smpsPSGAlterVol	$01
	smpsAlterNote	$01
	dc.b		nA5,	$01
	smpsPSGAlterVol	$01
	smpsAlterNote	$01
	dc.b		nA5,	$02
	smpsPSGAlterVol	$02
	smpsAlterNote	$01
	dc.b		nA5,	$01
	smpsPSGAlterVol	$01
	smpsAlterNote	$01
	dc.b		nA5,	$03
	smpsPSGAlterVol	$01
	smpsAlterNote	$01
	dc.b		nA5,	$02
	smpsPSGAlterVol	$01
	smpsAlterNote	$01
	dc.b		nA5,	$03
	smpsPSGAlterVol	$01
	smpsAlterNote	$01
	dc.b		nA5
	smpsPSGAlterVol	$F3
	smpsAlterNote	$01
	dc.b		nA5
	smpsPSGAlterVol	$01
	smpsAlterNote	$01
	dc.b		nA5,	$01
	smpsPSGAlterVol	$02
	smpsAlterNote	$01
	dc.b		nA5
	smpsPSGAlterVol	$01
	smpsAlterNote	$01
	dc.b		nA5
	smpsPSGAlterVol	$01
	smpsAlterNote	$01
	dc.b		nA5,	$02
	smpsPSGAlterVol	$01
	smpsAlterNote	$01
	dc.b		nA5,	$01
	smpsPSGAlterVol	$01
	smpsAlterNote	$01
	dc.b		nA5,	$02
	smpsPSGAlterVol	$02
	smpsAlterNote	$01
	dc.b		nA5
	smpsPSGAlterVol	$01
	smpsAlterNote	$01
	dc.b		nA5,	$03
	smpsPSGAlterVol	$01
	smpsAlterNote	$01
	dc.b		nA5,	$01
	smpsPSGAlterVol	$01
	smpsAlterNote	$01
	dc.b		nA5,	$03
	smpsPSGAlterVol	$01
	smpsAlterNote	$01
	dc.b		nA5
	smpsPSGAlterVol	$F3
	smpsAlterNote	$01
	dc.b		nA5
	smpsPSGAlterVol	$01
	smpsAlterNote	$01
	dc.b		nA5,	$01
	smpsPSGAlterVol	$02
	smpsAlterNote	$01
	dc.b		nA5
	smpsPSGAlterVol	$01
	smpsAlterNote	$01
	dc.b		nA5
	smpsPSGAlterVol	$01
	smpsAlterNote	$01
	dc.b		nA5,	$02
	smpsPSGAlterVol	$01
	smpsAlterNote	$01
	dc.b		nA5,	$01
	smpsPSGAlterVol	$01
	smpsAlterNote	$01
	dc.b		nA5,	$02
	smpsPSGAlterVol	$02
	smpsAlterNote	$01
	dc.b		nA5
	smpsPSGAlterVol	$01
	smpsAlterNote	$01
	dc.b		nA5,	$03
	smpsPSGAlterVol	$01
	smpsAlterNote	$01
	dc.b		nA5,	$02
	smpsPSGAlterVol	$01
	smpsAlterNote	$01
	dc.b		nA5,	$03
	smpsPSGAlterVol	$01
	smpsAlterNote	$01
	dc.b		nA5
	smpsPSGAlterVol	$F3
	smpsAlterNote	$01
	dc.b		nA5,	$02
	smpsPSGAlterVol	$01
	smpsAlterNote	$01
	dc.b		nA5,	$01
	smpsPSGAlterVol	$02
	smpsAlterNote	$01
	dc.b		nA5
	smpsPSGAlterVol	$01
	smpsAlterNote	$01
	dc.b		nA5
	smpsPSGAlterVol	$01
	smpsAlterNote	$01
	dc.b		nA5,	$02
	smpsPSGAlterVol	$01
	smpsAlterNote	$01
	dc.b		nA5,	$01
	smpsPSGAlterVol	$01
	smpsAlterNote	$01
	dc.b		nA5,	$02
	smpsPSGAlterVol	$02
	smpsAlterNote	$01
	dc.b		nA5
	smpsPSGAlterVol	$01
	smpsAlterNote	$01
	dc.b		nA5,	$03
	smpsPSGAlterVol	$01
	smpsAlterNote	$01
	dc.b		nA5,	$02
	smpsPSGAlterVol	$01
	smpsAlterNote	$01
	dc.b		nA5,	$03
	smpsPSGAlterVol	$01
	smpsAlterNote	$01
	dc.b		nA5
	smpsPSGAlterVol	$F3
	smpsAlterNote	$01
	dc.b		nA5
	smpsPSGAlterVol	$01
	smpsAlterNote	$01
	dc.b		nA5,	$01
	smpsPSGAlterVol	$02
	smpsAlterNote	$01
	dc.b		nA5
	smpsPSGAlterVol	$01
	smpsAlterNote	$01
	dc.b		nA5
	smpsPSGAlterVol	$01
	smpsAlterNote	$01
	dc.b		nA5
	smpsPSGAlterVol	$01
	smpsAlterNote	$01
	dc.b		nA5
	smpsPSGAlterVol	$01
	smpsAlterNote	$01
	dc.b		nA5,	$02
	smpsPSGAlterVol	$02
	smpsAlterNote	$01
	dc.b		nA5
	smpsPSGAlterVol	$01
	smpsAlterNote	$01
	dc.b		nA5,	$03
	smpsPSGAlterVol	$01
	smpsAlterNote	$01
	dc.b		nA5,	$02
	smpsPSGAlterVol	$01
	smpsAlterNote	$01
	dc.b		nA5,	$03
	smpsPSGAlterVol	$01
	smpsAlterNote	$01
	dc.b		nA5
	smpsPSGAlterVol	$F3
	smpsAlterNote	$01
	dc.b		nA5
	smpsPSGAlterVol	$01
	smpsAlterNote	$01
	dc.b		nA5,	$01
	smpsPSGAlterVol	$02
	smpsAlterNote	$01
	dc.b		nA5
	smpsPSGAlterVol	$01
	smpsAlterNote	$01
	dc.b		nA5
	smpsPSGAlterVol	$01
	smpsAlterNote	$01
	dc.b		nA5,	$02
	smpsPSGAlterVol	$01
	smpsAlterNote	$01
	dc.b		nA5,	$01
	smpsPSGAlterVol	$01
	smpsAlterNote	$01
	dc.b		nA5,	$02
	smpsPSGAlterVol	$02
	smpsAlterNote	$01
	dc.b		nA5
	smpsPSGAlterVol	$01
	smpsAlterNote	$01
	dc.b		nA5
	smpsPSGAlterVol	$01
	smpsAlterNote	$01
	dc.b		nA5
	smpsPSGAlterVol	$01
	smpsAlterNote	$01
	dc.b		nA5,	$03
	smpsPSGAlterVol	$01
	smpsAlterNote	$01
	dc.b		nA5
	smpsPSGAlterVol	$F3
	smpsAlterNote	$01
	dc.b		nA5
	smpsPSGAlterVol	$01
	smpsAlterNote	$01
	dc.b		nA5,	$01
	smpsPSGAlterVol	$02
	smpsAlterNote	$01
	dc.b		nA5
	smpsPSGAlterVol	$01
	smpsAlterNote	$01
	dc.b		nA5
	smpsPSGAlterVol	$01
	smpsAlterNote	$01
	dc.b		nA5,	$02
	smpsPSGAlterVol	$01
	smpsAlterNote	$01
	dc.b		nA5,	$01
	smpsPSGAlterVol	$01
	smpsAlterNote	$01
	dc.b		nA5,	$02
	smpsPSGAlterVol	$02
	smpsAlterNote	$01
	dc.b		nA5
	smpsPSGAlterVol	$01
	smpsAlterNote	$01
	dc.b		nA5,	$03
	smpsPSGAlterVol	$01
	smpsAlterNote	$01
	dc.b		nA5,	$02
	smpsPSGAlterVol	$01
	smpsAlterNote	$01
	dc.b		nA5
	smpsPSGAlterVol	$01
	smpsAlterNote	$01
	dc.b		nA5,	$03
	smpsPSGAlterVol	$F3
	smpsAlterNote	$01
	dc.b		nA5
	smpsPSGAlterVol	$01
	smpsAlterNote	$01
	dc.b		nA5,	$01
	smpsPSGAlterVol	$02
	smpsAlterNote	$01
	dc.b		nA5
	smpsPSGAlterVol	$01
	smpsAlterNote	$01
	dc.b		nA5
	smpsPSGAlterVol	$01
	smpsAlterNote	$01
	dc.b		nA5,	$02
	smpsPSGAlterVol	$01
	smpsAlterNote	$01
	dc.b		nA5,	$01
	smpsPSGAlterVol	$01
	smpsAlterNote	$01
	dc.b		nA5,	$02
	smpsPSGAlterVol	$02
	smpsAlterNote	$01
	dc.b		nA5
	smpsPSGAlterVol	$01
	smpsAlterNote	$01
	dc.b		nA5,	$03
	smpsPSGAlterVol	$01
	smpsAlterNote	$01
	dc.b		nA5,	$02
	smpsPSGAlterVol	$01
	smpsAlterNote	$01
	dc.b		nA5,	$03
	smpsPSGAlterVol	$01
	smpsAlterNote	$01
	dc.b		nA5
	smpsPSGAlterVol	$F3
	smpsAlterNote	$01
	dc.b		nA5
	smpsPSGAlterVol	$03
	smpsAlterNote	$01
	dc.b		nA5,	$01
	smpsPSGAlterVol	$01
	smpsAlterNote	$01
	dc.b		nA5
	smpsPSGAlterVol	$01
	smpsAlterNote	$01
	dc.b		nA5,	$02
	smpsPSGAlterVol	$01
	smpsAlterNote	$01
	dc.b		nA5,	$01
	smpsPSGAlterVol	$01
	smpsAlterNote	$01
	dc.b		nA5,	$02
	smpsPSGAlterVol	$02
	smpsAlterNote	$01
	dc.b		nA5
	smpsPSGAlterVol	$01
	smpsAlterNote	$01
	dc.b		nA5,	$03
	smpsPSGAlterVol	$01
	smpsAlterNote	$01
	dc.b		nA5,	$02
	smpsPSGAlterVol	$01
	smpsAlterNote	$01
	dc.b		nA5,	$03
	smpsPSGAlterVol	$01
	smpsAlterNote	$01
	dc.b		nA5
	smpsPSGAlterVol	$F3
	smpsAlterNote	$01
	dc.b		nA5
	smpsPSGAlterVol	$01
	smpsAlterNote	$01
	dc.b		nA5,	$01
	smpsPSGAlterVol	$02
	smpsAlterNote	$01
	dc.b		nA5
	smpsPSGAlterVol	$01
	smpsAlterNote	$01
	dc.b		nA5
	smpsPSGAlterVol	$01
	smpsAlterNote	$01
	dc.b		nA5,	$02
	smpsPSGAlterVol	$01
	smpsAlterNote	$01
	dc.b		nA5,	$01
	smpsPSGAlterVol	$01
	smpsAlterNote	$01
	dc.b		nA5
	smpsPSGAlterVol	$02
	smpsAlterNote	$01
	dc.b		nA5,	$02
	smpsPSGAlterVol	$01
	smpsAlterNote	$01
	dc.b		nA5,	$03
	smpsPSGAlterVol	$01
	smpsAlterNote	$01
	dc.b		nA5,	$02
	smpsPSGAlterVol	$01
	smpsAlterNote	$01
	dc.b		nA5,	$03
	smpsPSGAlterVol	$01
	smpsAlterNote	$01
	dc.b		nA5
	smpsPSGAlterVol	$F3
	smpsAlterNote	$01
	dc.b		nA5
	smpsPSGAlterVol	$01
	smpsAlterNote	$01
	dc.b		nA5,	$01
	smpsPSGAlterVol	$02
	smpsAlterNote	$01
	dc.b		nA5
	smpsPSGAlterVol	$01
	smpsAlterNote	$01
	dc.b		nA5
	smpsPSGAlterVol	$01
	smpsAlterNote	$01
	dc.b		nA5,	$02
	smpsPSGAlterVol	$01
	smpsAlterNote	$01
	dc.b		nA5,	$01
	smpsPSGAlterVol	$01
	smpsAlterNote	$01
	dc.b		nA5,	$02
	smpsPSGAlterVol	$02
	smpsAlterNote	$01
	dc.b		nA5
	smpsPSGAlterVol	$01
	smpsAlterNote	$01
	dc.b		nA5,	$03
	smpsPSGAlterVol	$01
	smpsAlterNote	$01
	dc.b		nA5,	$01
	smpsPSGAlterVol	$01
	smpsAlterNote	$01
	dc.b		nA5,	$03
	smpsPSGAlterVol	$01
	smpsAlterNote	$01
	dc.b		nA5
	smpsPSGAlterVol	$F3
	smpsAlterNote	$01
	dc.b		nA5
	smpsPSGAlterVol	$01
	smpsAlterNote	$01
	dc.b		nA5,	$01
	smpsPSGAlterVol	$02
	smpsAlterNote	$01
	dc.b		nA5
	smpsPSGAlterVol	$01
	smpsAlterNote	$01
	dc.b		nA5
	smpsPSGAlterVol	$01
	smpsAlterNote	$01
	dc.b		nA5,	$02
	smpsPSGAlterVol	$01
	smpsAlterNote	$01
	dc.b		nA5,	$01
	smpsPSGAlterVol	$01
	smpsAlterNote	$01
	dc.b		nA5,	$02
	smpsPSGAlterVol	$02
	smpsAlterNote	$01
	dc.b		nA5
	smpsPSGAlterVol	$01
	smpsAlterNote	$01
	dc.b		nA5,	$03
	smpsPSGAlterVol	$01
	smpsAlterNote	$01
	dc.b		nA5,	$02
	smpsPSGAlterVol	$01
	smpsAlterNote	$01
	dc.b		nA5,	$03
	smpsPSGAlterVol	$01
	smpsAlterNote	$01
	dc.b		nA5,	$02
	smpsPSGAlterVol	$F3
	smpsAlterNote	$01
	dc.b		nA5,	$03
	smpsPSGAlterVol	$01
	smpsAlterNote	$01
	dc.b		nA5,	$01
	smpsPSGAlterVol	$02
	smpsAlterNote	$01
	dc.b		nA5
	smpsPSGAlterVol	$01
	smpsAlterNote	$01
	dc.b		nA5
	smpsPSGAlterVol	$01
	smpsAlterNote	$01
	dc.b		nA5,	$02
	smpsPSGAlterVol	$01
	smpsAlterNote	$01
	dc.b		nA5,	$01
	smpsPSGAlterVol	$01
	smpsAlterNote	$01
	dc.b		nA5,	$02
	smpsPSGAlterVol	$02
	smpsAlterNote	$01
	dc.b		nA5
	smpsPSGAlterVol	$01
	smpsAlterNote	$01
	dc.b		nA5,	$03
	smpsPSGAlterVol	$01
	smpsAlterNote	$01
	dc.b		nA5,	$02
	smpsPSGAlterVol	$01
	smpsAlterNote	$01
	dc.b		nA5,	$03
	smpsPSGAlterVol	$01
	smpsAlterNote	$01
	dc.b		nA5
	smpsPSGAlterVol	$F3
	smpsAlterNote	$01
	dc.b		nA5
	smpsPSGAlterVol	$01
	smpsAlterNote	$01
	dc.b		nA5,	$01
	smpsPSGAlterVol	$02
	smpsAlterNote	$01
	dc.b		nA5
	smpsPSGAlterVol	$02
	smpsAlterNote	$01
	dc.b		nA5,	$02
	smpsPSGAlterVol	$01
	smpsAlterNote	$01
	dc.b		nA5,	$01
	smpsPSGAlterVol	$01
	smpsAlterNote	$01
	dc.b		nA5,	$02
	smpsPSGAlterVol	$02
	smpsAlterNote	$01
	dc.b		nA5
	smpsPSGAlterVol	$01
	smpsAlterNote	$01
	dc.b		nA5,	$03
	smpsPSGAlterVol	$01
	smpsAlterNote	$01
	dc.b		nA5,	$02
	smpsPSGAlterVol	$01
	smpsAlterNote	$01
	dc.b		nA5,	$03
	smpsPSGAlterVol	$01
	smpsAlterNote	$01
	dc.b		nA5
	smpsPSGAlterVol	$F3
	smpsAlterNote	$01
	dc.b		nA5
	smpsPSGAlterVol	$01
	smpsAlterNote	$01
	dc.b		nA5,	$01
	smpsPSGAlterVol	$02
	smpsAlterNote	$01
	dc.b		nA5
	smpsPSGAlterVol	$01
	smpsAlterNote	$01
	dc.b		nA5
	smpsPSGAlterVol	$01
	smpsAlterNote	$01
	dc.b		nA5,	$02
	smpsPSGAlterVol	$01
	smpsAlterNote	$01
	dc.b		nA5,	$01
	smpsPSGAlterVol	$01
	smpsAlterNote	$01
	dc.b		nA5,	$02
	smpsPSGAlterVol	$02
	smpsAlterNote	$01
	dc.b		nA5,	$01
	smpsPSGAlterVol	$01
	smpsAlterNote	$01
	dc.b		nA5,	$03
	smpsPSGAlterVol	$01
	smpsAlterNote	$01
	dc.b		nA5,	$02
	smpsPSGAlterVol	$01
	smpsAlterNote	$01
	dc.b		nA5,	$03
	smpsPSGAlterVol	$01
	smpsAlterNote	$01
	dc.b		nA5
	smpsPSGAlterVol	$F3
	smpsAlterNote	$01
	dc.b		nA5
	smpsPSGAlterVol	$01
	smpsAlterNote	$01
	dc.b		nA5,	$01
	smpsPSGAlterVol	$02
	smpsAlterNote	$01
	dc.b		nA5
	smpsPSGAlterVol	$01
	smpsAlterNote	$01
	dc.b		nA5
	smpsPSGAlterVol	$01
	smpsAlterNote	$01
	dc.b		nA5,	$02
	smpsPSGAlterVol	$01
	smpsAlterNote	$01
	dc.b		nA5,	$01
	smpsPSGAlterVol	$01
	smpsAlterNote	$01
	dc.b		nA5,	$02
	smpsPSGAlterVol	$02
	smpsAlterNote	$01
	dc.b		nA5
	smpsPSGAlterVol	$01
	smpsAlterNote	$01
	dc.b		nA5,	$03
	smpsPSGAlterVol	$01
	smpsAlterNote	$01
	dc.b		nA5,	$02
	smpsPSGAlterVol	$01
	smpsAlterNote	$01
	dc.b		nA5
	smpsPSGAlterVol	$01
	smpsAlterNote	$01
	dc.b		nA5,	$03
	smpsPSGAlterVol	$F3
	smpsAlterNote	$01
	dc.b		nA5
	smpsPSGAlterVol	$01
	smpsAlterNote	$01
	dc.b		nA5,	$01
	smpsPSGAlterVol	$02
	smpsAlterNote	$01
	dc.b		nA5
	smpsPSGAlterVol	$01
	smpsAlterNote	$01
	dc.b		nA5
	smpsPSGAlterVol	$01
	smpsAlterNote	$01
	dc.b		nA5,	$02
	smpsPSGAlterVol	$01
	smpsAlterNote	$01
	dc.b		nA5,	$01
	smpsPSGAlterVol	$01
	smpsAlterNote	$01
	dc.b		nA5,	$02
	smpsPSGAlterVol	$02
	smpsAlterNote	$01
	dc.b		nA5
	smpsPSGAlterVol	$01
	smpsAlterNote	$01
	dc.b		nA5,	$03
	smpsPSGAlterVol	$01
	smpsAlterNote	$01
	dc.b		nA5,	$02
	smpsPSGAlterVol	$01
	smpsAlterNote	$01
	dc.b		nA5,	$03
	smpsPSGAlterVol	$01
	smpsAlterNote	$01
	dc.b		nA5
	smpsPSGAlterVol	$F3
	smpsAlterNote	$01
	dc.b		nA5,	$02
	smpsPSGAlterVol	$01
	smpsAlterNote	$01
	dc.b		nA5,	$01
	smpsPSGAlterVol	$02
	smpsAlterNote	$01
	dc.b		nA5
	smpsPSGAlterVol	$01
	smpsAlterNote	$01
	dc.b		nA5
	smpsPSGAlterVol	$01
	smpsAlterNote	$01
	dc.b		nA5,	$02
	smpsPSGAlterVol	$01
	smpsAlterNote	$01
	dc.b		nA5,	$01
	smpsPSGAlterVol	$01
	smpsAlterNote	$01
	dc.b		nA5,	$02
	smpsPSGAlterVol	$02
	smpsAlterNote	$01
	dc.b		nA5
	smpsPSGAlterVol	$01
	smpsAlterNote	$01
	dc.b		nA5,	$03
	smpsPSGAlterVol	$01
	smpsAlterNote	$01
	dc.b		nA5,	$02
	smpsPSGAlterVol	$01
	smpsAlterNote	$01
	dc.b		nA5,	$03
	smpsPSGAlterVol	$01
	smpsAlterNote	$01
	dc.b		nA5
	smpsPSGAlterVol	$F3
	smpsAlterNote	$01
	dc.b		nA5
	smpsPSGAlterVol	$01
	smpsAlterNote	$01
	dc.b		nA5,	$01
	smpsPSGAlterVol	$02
	smpsAlterNote	$01
	dc.b		nA5
	smpsPSGAlterVol	$01
	smpsAlterNote	$01
	dc.b		nA5
	smpsPSGAlterVol	$01
	smpsAlterNote	$01
	dc.b		nA5,	$02
	smpsPSGAlterVol	$02
	smpsAlterNote	$01
	dc.b		nA5
	smpsPSGAlterVol	$02
	smpsAlterNote	$01
	dc.b		nA5
	smpsPSGAlterVol	$01
	smpsAlterNote	$01
	dc.b		nA5,	$03
	smpsPSGAlterVol	$01
	smpsAlterNote	$01
	dc.b		nA5,	$02
	smpsPSGAlterVol	$01
	smpsAlterNote	$01
	dc.b		nA5,	$03
	smpsPSGAlterVol	$01
	smpsAlterNote	$01
	dc.b		nA5
	smpsPSGAlterVol	$F3
	smpsAlterNote	$01
	dc.b		nA5
	smpsPSGAlterVol	$01
	smpsAlterNote	$01
	dc.b		nA5,	$01
	smpsPSGAlterVol	$02
	smpsAlterNote	$01
	dc.b		nA5
	smpsPSGAlterVol	$01
	smpsAlterNote	$01
	dc.b		nA5
	smpsPSGAlterVol	$01
	smpsAlterNote	$01
	dc.b		nA5,	$02
	smpsPSGAlterVol	$01
	smpsAlterNote	$01
	dc.b		nA5,	$01
	smpsPSGAlterVol	$01
	smpsAlterNote	$01
	dc.b		nA5,	$02
	smpsPSGAlterVol	$02
	smpsAlterNote	$01
	dc.b		nA5
	smpsPSGAlterVol	$01
	smpsAlterNote	$01
	dc.b		nA5
	smpsPSGAlterVol	$01
	smpsAlterNote	$01
	dc.b		nA5
	smpsPSGAlterVol	$01
	smpsAlterNote	$01
	dc.b		nA5,	$03
	smpsPSGAlterVol	$01
	smpsAlterNote	$01
	dc.b		nA5
	smpsPSGAlterVol	$F3
	smpsAlterNote	$01
	dc.b		nA5
	smpsPSGAlterVol	$01
	smpsAlterNote	$01
	dc.b		nA5,	$01
	smpsPSGAlterVol	$02
	smpsAlterNote	$01
	dc.b		nA5
	smpsPSGAlterVol	$01
	smpsAlterNote	$01
	dc.b		nA5
	smpsPSGAlterVol	$01
	smpsAlterNote	$01
	dc.b		nA5,	$02
	smpsPSGAlterVol	$01
	smpsAlterNote	$01
	dc.b		nA5,	$01
	smpsPSGAlterVol	$01
	smpsAlterNote	$01
	dc.b		nA5,	$02
	smpsPSGAlterVol	$02
	smpsAlterNote	$01
	dc.b		nA5
	smpsPSGAlterVol	$01
	smpsAlterNote	$01
	dc.b		nA5,	$03
	smpsPSGAlterVol	$01
	smpsAlterNote	$01
	dc.b		nA5,	$02
	smpsPSGAlterVol	$01
	smpsAlterNote	$01
	dc.b		nA5,	$03
	smpsPSGAlterVol	$01
	smpsAlterNote	$01
	dc.b		nA5,	$02
	smpsPSGAlterVol	$F3
	smpsAlterNote	$01
	dc.b		nA5,	$03
	smpsPSGAlterVol	$01
	smpsAlterNote	$01
	dc.b		nA5,	$01
	smpsPSGAlterVol	$02
	smpsAlterNote	$01
	dc.b		nA5
	smpsPSGAlterVol	$01
	smpsAlterNote	$01
	dc.b		nA5
	smpsPSGAlterVol	$01
	smpsAlterNote	$01
	dc.b		nA5,	$02
	smpsPSGAlterVol	$01
	smpsAlterNote	$01
	dc.b		nA5,	$01
	smpsPSGAlterVol	$01
	smpsAlterNote	$01
	dc.b		nA5,	$02
	smpsPSGAlterVol	$02
	smpsAlterNote	$01
	dc.b		nA5
	smpsPSGAlterVol	$01
	smpsAlterNote	$01
	dc.b		nA5,	$03
	smpsPSGAlterVol	$01
	smpsAlterNote	$01
	dc.b		nA5,	$02
	smpsPSGAlterVol	$01
	smpsAlterNote	$01
	dc.b		nA5,	$03
	smpsPSGAlterVol	$01
	smpsAlterNote	$01
	dc.b		nA5
	smpsPSGAlterVol	$F3
	smpsAlterNote	$01
	dc.b		nA5
	smpsPSGAlterVol	$03
	smpsAlterNote	$01
	dc.b		nA5,	$01
	smpsPSGAlterVol	$01
	smpsAlterNote	$01
	dc.b		nA5
	smpsPSGAlterVol	$01
	smpsAlterNote	$01
	dc.b		nA5,	$02
	smpsPSGAlterVol	$01
	smpsAlterNote	$01
	dc.b		nA5,	$01
	smpsPSGAlterVol	$01
	smpsAlterNote	$01
	dc.b		nA5,	$02
	smpsPSGAlterVol	$02
	smpsAlterNote	$01
	dc.b		nA5
	smpsPSGAlterVol	$01
	smpsAlterNote	$01
	dc.b		nA5,	$03
	smpsPSGAlterVol	$01
	smpsAlterNote	$01
	dc.b		nA5,	$02
	smpsPSGAlterVol	$01
	smpsAlterNote	$01
	dc.b		nA5,	$03
	smpsPSGAlterVol	$01
	smpsAlterNote	$01
	dc.b		nA5
	smpsPSGAlterVol	$F3
	smpsAlterNote	$01
	dc.b		nA5
	smpsPSGAlterVol	$01
	smpsAlterNote	$01
	dc.b		nA5,	$01
	smpsPSGAlterVol	$02
	smpsAlterNote	$01
	dc.b		nA5
	smpsPSGAlterVol	$01
	smpsAlterNote	$01
	dc.b		nA5
	smpsPSGAlterVol	$01
	smpsAlterNote	$01
	dc.b		nA5,	$02
	smpsPSGAlterVol	$01
	smpsAlterNote	$01
	dc.b		nA5,	$01
	smpsPSGAlterVol	$01
	smpsAlterNote	$01
	dc.b		nA5
	smpsPSGAlterVol	$02
	smpsAlterNote	$01
	dc.b		nA5,	$02
	smpsPSGAlterVol	$01
	smpsAlterNote	$01
	dc.b		nA5,	$03
	smpsPSGAlterVol	$01
	smpsAlterNote	$01
	dc.b		nA5,	$02
	smpsPSGAlterVol	$01
	smpsAlterNote	$01
	dc.b		nA5,	$03
	smpsPSGAlterVol	$01
	smpsAlterNote	$01
	dc.b		nA5
	smpsPSGAlterVol	$F3
	smpsAlterNote	$01
	dc.b		nA5
	smpsPSGAlterVol	$01
	smpsAlterNote	$01
	dc.b		nA5,	$01
	smpsPSGAlterVol	$02
	smpsAlterNote	$01
	dc.b		nA5
	smpsPSGAlterVol	$01
	smpsAlterNote	$01
	dc.b		nA5
	smpsPSGAlterVol	$01
	smpsAlterNote	$01
	dc.b		nA5,	$02
	smpsPSGAlterVol	$01
	smpsAlterNote	$01
	dc.b		nA5,	$01
	smpsPSGAlterVol	$01
	smpsAlterNote	$01
	dc.b		nA5,	$02
	smpsPSGAlterVol	$02
	smpsAlterNote	$01
	dc.b		nA5
	smpsPSGAlterVol	$01
	smpsAlterNote	$01
	dc.b		nA5,	$03
	smpsPSGAlterVol	$01
	smpsAlterNote	$01
	dc.b		nA5,	$01
	smpsPSGAlterVol	$01
	smpsAlterNote	$01
	dc.b		nA5,	$03
	smpsPSGAlterVol	$01
	smpsAlterNote	$01
	dc.b		nA5
	smpsPSGAlterVol	$F3
	smpsAlterNote	$01
	dc.b		nA5
	smpsPSGAlterVol	$01
	smpsAlterNote	$01
	dc.b		nA5,	$01
	smpsPSGAlterVol	$02
	smpsAlterNote	$01
	dc.b		nA5
	smpsPSGAlterVol	$01
	smpsAlterNote	$01
	dc.b		nA5
	smpsPSGAlterVol	$01
	smpsAlterNote	$01
	dc.b		nA5,	$02
	smpsPSGAlterVol	$01
	smpsAlterNote	$01
	dc.b		nA5,	$01
	smpsPSGAlterVol	$01
	smpsAlterNote	$01
	dc.b		nA5,	$02
	smpsPSGAlterVol	$02
	smpsAlterNote	$01
	dc.b		nA5
	smpsPSGAlterVol	$01
	smpsAlterNote	$01
	dc.b		nA5,	$03
	smpsPSGAlterVol	$01
	smpsAlterNote	$01
	dc.b		nA5,	$02
	smpsPSGAlterVol	$01
	smpsAlterNote	$01
	dc.b		nA5,	$03
	smpsPSGAlterVol	$01
	smpsAlterNote	$01
	dc.b		nA5,	$02
	smpsPSGAlterVol	$F3
	smpsAlterNote	$01
	dc.b		nA5,	$03
	smpsPSGAlterVol	$01
	smpsAlterNote	$01
	dc.b		nA5,	$01
	smpsPSGAlterVol	$02
	smpsAlterNote	$01
	dc.b		nA5
	smpsPSGAlterVol	$01
	smpsAlterNote	$01
	dc.b		nA5
	smpsPSGAlterVol	$01
	smpsAlterNote	$01
	dc.b		nA5,	$02
	smpsPSGAlterVol	$01
	smpsAlterNote	$01
	dc.b		nA5,	$01
	smpsPSGAlterVol	$01
	smpsAlterNote	$01
	dc.b		nA5,	$02
	smpsPSGAlterVol	$02
	smpsAlterNote	$01
	dc.b		nA5
	smpsPSGAlterVol	$01
	smpsAlterNote	$01
	dc.b		nA5,	$03
	smpsPSGAlterVol	$01
	smpsAlterNote	$01
	dc.b		nA5,	$02
	smpsPSGAlterVol	$01
	smpsAlterNote	$01
	dc.b		nA5,	$03
	smpsPSGAlterVol	$01
	smpsAlterNote	$01
	dc.b		nA5
	smpsPSGAlterVol	$F3
	smpsAlterNote	$01
	dc.b		nA5
	smpsPSGAlterVol	$01
	smpsAlterNote	$01
	dc.b		nA5,	$01
	smpsPSGAlterVol	$02
	smpsAlterNote	$01
	dc.b		nA5
	smpsPSGAlterVol	$01
	smpsAlterNote	$01
	dc.b		nA5
	smpsPSGAlterVol	$01
	smpsAlterNote	$01
	dc.b		nA5
	smpsPSGAlterVol	$01
	smpsAlterNote	$01
	dc.b		nA5
	smpsPSGAlterVol	$01
	smpsAlterNote	$01
	dc.b		nA5,	$02
	smpsPSGAlterVol	$02
	smpsAlterNote	$01
	dc.b		nA5
	smpsPSGAlterVol	$01
	smpsAlterNote	$01
	dc.b		nA5,	$03
	smpsPSGAlterVol	$01
	smpsAlterNote	$01
	dc.b		nA5,	$02
	smpsPSGAlterVol	$01
	smpsAlterNote	$01
	dc.b		nA5,	$03
	smpsPSGAlterVol	$01
	smpsAlterNote	$01
	dc.b		nA5
	smpsPSGAlterVol	$F3
	smpsAlterNote	$01
	dc.b		nA5
	smpsPSGAlterVol	$01
	smpsAlterNote	$01
	dc.b		nA5,	$01
	smpsPSGAlterVol	$02
	smpsAlterNote	$01
	dc.b		nA5
	smpsPSGAlterVol	$01
	smpsAlterNote	$01
	dc.b		nA5
	smpsPSGAlterVol	$01
	smpsAlterNote	$01
	dc.b		nA5,	$02
	smpsPSGAlterVol	$01
	smpsAlterNote	$01
	dc.b		nA5,	$01
	smpsPSGAlterVol	$01
	smpsAlterNote	$01
	dc.b		nA5,	$02
	smpsPSGAlterVol	$02
	smpsAlterNote	$01
	dc.b		nA5
	smpsPSGAlterVol	$01
	smpsAlterNote	$01
	dc.b		nA5
	smpsPSGAlterVol	$01
	smpsAlterNote	$01
	dc.b		nA5
	smpsPSGAlterVol	$01
	smpsAlterNote	$01
	dc.b		nA5,	$03
	smpsPSGAlterVol	$01
	smpsAlterNote	$01
	dc.b		nA5
	smpsPSGAlterVol	$F3
	smpsAlterNote	$01
	dc.b		nA5
	smpsPSGAlterVol	$01
	smpsAlterNote	$01
	dc.b		nA5,	$01
	smpsPSGAlterVol	$02
	smpsAlterNote	$01
	dc.b		nA5
	smpsPSGAlterVol	$01
	smpsAlterNote	$01
	dc.b		nA5
	smpsPSGAlterVol	$01
	smpsAlterNote	$01
	dc.b		nA5,	$02
	smpsPSGAlterVol	$01
	smpsAlterNote	$01
	dc.b		nA5,	$01
	smpsPSGAlterVol	$01
	smpsAlterNote	$01
	dc.b		nA5,	$02
	smpsPSGAlterVol	$02
	smpsAlterNote	$01
	dc.b		nA5
	smpsPSGAlterVol	$01
	smpsAlterNote	$01
	dc.b		nA5,	$03
	smpsPSGAlterVol	$01
	smpsAlterNote	$01
	dc.b		nA5,	$02
	smpsPSGAlterVol	$01
	smpsAlterNote	$01
	dc.b		nA5
	smpsPSGAlterVol	$01
	smpsAlterNote	$01
	dc.b		nA5,	$03
	smpsPSGAlterVol	$F3
	smpsAlterNote	$01
	dc.b		nA5
	smpsPSGAlterVol	$01
	smpsAlterNote	$01
	dc.b		nA5,	$01
	smpsPSGAlterVol	$02
	smpsAlterNote	$01
	dc.b		nA5
	smpsPSGAlterVol	$01
	smpsAlterNote	$01
	dc.b		nA5
	smpsPSGAlterVol	$01
	smpsAlterNote	$01
	dc.b		nA5,	$02
	smpsPSGAlterVol	$01
	smpsAlterNote	$01
	dc.b		nA5,	$01
	smpsPSGAlterVol	$01
	smpsAlterNote	$01
	dc.b		nA5,	$02
	smpsPSGAlterVol	$02
	smpsAlterNote	$01
	dc.b		nA5
	smpsPSGAlterVol	$01
	smpsAlterNote	$01
	dc.b		nA5,	$03
	smpsPSGAlterVol	$01
	smpsAlterNote	$01
	dc.b		nA5,	$02
	smpsPSGAlterVol	$01
	smpsAlterNote	$01
	dc.b		nA5,	$03
	smpsPSGAlterVol	$01
	smpsAlterNote	$01
	dc.b		nA5
	smpsPSGAlterVol	$F3
	smpsAlterNote	$01
	dc.b		nA5,	$02
	smpsPSGAlterVol	$01
	smpsAlterNote	$01
	dc.b		nA5,	$01
	smpsPSGAlterVol	$02
	smpsAlterNote	$01
	dc.b		nA5
	smpsPSGAlterVol	$01
	smpsAlterNote	$01
	dc.b		nA5
	smpsPSGAlterVol	$01
	smpsAlterNote	$01
	dc.b		nA5,	$02
	smpsPSGAlterVol	$01
	smpsAlterNote	$01
	dc.b		nA5,	$01
	smpsPSGAlterVol	$01
	smpsAlterNote	$01
	dc.b		nA5,	$02
	smpsPSGAlterVol	$02
	smpsAlterNote	$01
	dc.b		nA5
	smpsPSGAlterVol	$01
	smpsAlterNote	$01
	dc.b		nA5,	$03
	smpsPSGAlterVol	$01
	smpsAlterNote	$01
	dc.b		nA5,	$02
	smpsPSGAlterVol	$01
	smpsAlterNote	$01
	dc.b		nA5,	$03
	smpsPSGAlterVol	$01
	smpsAlterNote	$01
	dc.b		nA5
	smpsPSGAlterVol	$F3
	smpsAlterNote	$01
	dc.b		nA5
	smpsPSGAlterVol	$01
	smpsAlterNote	$01
	dc.b		nA5,	$01
	smpsPSGAlterVol	$02
	smpsAlterNote	$01
	dc.b		nA5
	smpsPSGAlterVol	$01
	smpsAlterNote	$01
	dc.b		nA5
	smpsPSGAlterVol	$01
	smpsAlterNote	$01
	dc.b		nA5,	$02
	smpsPSGAlterVol	$02
	smpsAlterNote	$01
	dc.b		nA5
	smpsPSGAlterVol	$02
	smpsAlterNote	$01
	dc.b		nA5
	smpsPSGAlterVol	$01
	smpsAlterNote	$01
	dc.b		nA5,	$03
	smpsPSGAlterVol	$01
	smpsAlterNote	$01
	dc.b		nA5,	$02
	smpsPSGAlterVol	$01
	smpsAlterNote	$01
	dc.b		nA5,	$03
	smpsPSGAlterVol	$01
	smpsAlterNote	$01
	dc.b		nA5
	smpsPSGAlterVol	$F3
	smpsAlterNote	$01
	dc.b		nA5
	smpsPSGAlterVol	$01
	smpsAlterNote	$01
	dc.b		nA5,	$01
	smpsPSGAlterVol	$02
	smpsAlterNote	$01
	dc.b		nA5
	smpsPSGAlterVol	$01
	smpsAlterNote	$01
	dc.b		nA5
	smpsPSGAlterVol	$01
	smpsAlterNote	$01
	dc.b		nA5,	$02
	smpsPSGAlterVol	$01
	smpsAlterNote	$01
	dc.b		nA5,	$01
	smpsPSGAlterVol	$01
	smpsAlterNote	$01
	dc.b		nA5,	$02
	smpsPSGAlterVol	$02
	smpsAlterNote	$01
	dc.b		nA5
	smpsPSGAlterVol	$01
	smpsAlterNote	$01
	dc.b		nA5
	smpsPSGAlterVol	$01
	smpsAlterNote	$01
	dc.b		nA5
	smpsPSGAlterVol	$01
	smpsAlterNote	$01
	dc.b		nA5,	$03
	smpsPSGAlterVol	$01
	smpsAlterNote	$01
	dc.b		nA5
	smpsPSGAlterVol	$F3
	smpsAlterNote	$01
	dc.b		nA5
	smpsPSGAlterVol	$01
	smpsAlterNote	$01
	dc.b		nA5,	$01
	smpsPSGAlterVol	$02
	smpsAlterNote	$01
	dc.b		nA5
	smpsPSGAlterVol	$01
	smpsAlterNote	$01
	dc.b		nA5
	smpsPSGAlterVol	$01
	smpsAlterNote	$01
	dc.b		nA5,	$02
	smpsPSGAlterVol	$01
	smpsAlterNote	$01
	dc.b		nA5,	$01
	smpsPSGAlterVol	$01
	smpsAlterNote	$01
	dc.b		nA5,	$02
	smpsPSGAlterVol	$02
	smpsAlterNote	$01
	dc.b		nA5
	smpsPSGAlterVol	$01
	smpsAlterNote	$01
	dc.b		nA5,	$03
	smpsPSGAlterVol	$01
	smpsAlterNote	$01
	dc.b		nA5,	$02
	smpsPSGAlterVol	$01
	smpsAlterNote	$01
	dc.b		nA5,	$03
	smpsPSGAlterVol	$01
	smpsAlterNote	$01
	dc.b		nA5,	$02
	smpsPSGAlterVol	$F3
	smpsAlterNote	$01
	dc.b		nA5,	$03
	smpsPSGAlterVol	$01
	smpsAlterNote	$01
	dc.b		nA5,	$01
	smpsPSGAlterVol	$02
	smpsAlterNote	$01
	dc.b		nA5
	smpsPSGAlterVol	$01
	smpsAlterNote	$01
	dc.b		nA5
	smpsPSGAlterVol	$01
	smpsAlterNote	$01
	dc.b		nA5,	$02
	smpsPSGAlterVol	$01
	smpsAlterNote	$01
	dc.b		nA5,	$01
	smpsPSGAlterVol	$01
	smpsAlterNote	$01
	dc.b		nA5,	$02
	smpsPSGAlterVol	$02
	smpsAlterNote	$01
	dc.b		nA5
	smpsPSGAlterVol	$01
	smpsAlterNote	$01
	dc.b		nA5,	$03
	smpsPSGAlterVol	$01
	smpsAlterNote	$01
	dc.b		nA5,	$02
	smpsPSGAlterVol	$01
	smpsAlterNote	$01
	dc.b		nA5,	$03
	smpsPSGAlterVol	$01
	smpsAlterNote	$01
	dc.b		nA5
	smpsPSGAlterVol	$F3
	smpsAlterNote	$01
	dc.b		nA5
	smpsPSGAlterVol	$01
	smpsAlterNote	$01
	dc.b		nA5,	$01
	smpsPSGAlterVol	$03
	smpsAlterNote	$01
	dc.b		nA5
	smpsPSGAlterVol	$01
	smpsAlterNote	$01
	dc.b		nA5,	$02
	smpsPSGAlterVol	$01
	smpsAlterNote	$01
	dc.b		nA5,	$01
	smpsPSGAlterVol	$01
	smpsAlterNote	$01
	dc.b		nA5,	$02
	smpsPSGAlterVol	$02
	smpsAlterNote	$01
	dc.b		nA5
	smpsPSGAlterVol	$01
	smpsAlterNote	$01
	dc.b		nA5,	$03
	smpsPSGAlterVol	$01
	smpsAlterNote	$01
	dc.b		nA5,	$02
	smpsPSGAlterVol	$01
	smpsAlterNote	$01
	dc.b		nA5,	$03
	smpsPSGAlterVol	$01
	smpsAlterNote	$01
	dc.b		nA5
	smpsPSGAlterVol	$F3
	smpsAlterNote	$01
	dc.b		nA5
	smpsPSGAlterVol	$01
	smpsAlterNote	$01
	dc.b		nA5,	$01
	smpsPSGAlterVol	$02
	smpsAlterNote	$01
	dc.b		nA5
	smpsPSGAlterVol	$01
	smpsAlterNote	$01
	dc.b		nA5
	smpsPSGAlterVol	$01
	smpsAlterNote	$01
	dc.b		nA5,	$02
	smpsPSGAlterVol	$01
	smpsAlterNote	$01
	dc.b		nA5,	$01
	smpsPSGAlterVol	$01
	smpsAlterNote	$01
	dc.b		nA5,	$02
	smpsPSGAlterVol	$02
	smpsAlterNote	$01
	dc.b		nA5,	$01
	smpsPSGAlterVol	$01
	smpsAlterNote	$01
	dc.b		nA5,	$03
	smpsPSGAlterVol	$01
	smpsAlterNote	$01
	dc.b		nA5,	$02
	smpsPSGAlterVol	$01
	smpsAlterNote	$01
	dc.b		nA5,	$03
	smpsPSGAlterVol	$01
	smpsAlterNote	$01
	dc.b		nA5
	smpsPSGAlterVol	$F3
	smpsAlterNote	$01
	dc.b		nA5
	smpsPSGAlterVol	$01
	smpsAlterNote	$01
	dc.b		nA5,	$01
	smpsPSGAlterVol	$02
	smpsAlterNote	$01
	dc.b		nA5
	smpsPSGAlterVol	$01
	smpsAlterNote	$01
	dc.b		nA5
	smpsPSGAlterVol	$01
	smpsAlterNote	$01
	dc.b		nA5,	$02
	smpsPSGAlterVol	$01
	smpsAlterNote	$01
	dc.b		nA5,	$01
	smpsPSGAlterVol	$01
	smpsAlterNote	$01
	dc.b		nA5,	$02
	smpsPSGAlterVol	$02
	smpsAlterNote	$01
	dc.b		nA5
	smpsPSGAlterVol	$01
	smpsAlterNote	$01
	dc.b		nA5,	$03
	smpsPSGAlterVol	$01
	smpsAlterNote	$01
	dc.b		nA5,	$02
	smpsPSGAlterVol	$01
	smpsAlterNote	$01
	dc.b		nA5
	smpsPSGAlterVol	$01
	smpsAlterNote	$01
	dc.b		nA5,	$03
	smpsPSGAlterVol	$F3
	smpsAlterNote	$01
	dc.b		nA5
	smpsPSGAlterVol	$01
	smpsAlterNote	$01
	dc.b		nA5,	$01
	smpsPSGAlterVol	$02
	smpsAlterNote	$01
	dc.b		nA5
	smpsPSGAlterVol	$01
	smpsAlterNote	$01
	dc.b		nA5
	smpsPSGAlterVol	$01
	smpsAlterNote	$01
	dc.b		nA5,	$02
	smpsPSGAlterVol	$01
	smpsAlterNote	$01
	dc.b		nA5,	$01
	smpsPSGAlterVol	$01
	smpsAlterNote	$01
	dc.b		nA5,	$02
	smpsPSGAlterVol	$02
	smpsAlterNote	$01
	dc.b		nA5
	smpsPSGAlterVol	$01
	smpsAlterNote	$01
	dc.b		nA5,	$03
	smpsPSGAlterVol	$01
	smpsAlterNote	$01
	dc.b		nA5,	$02
	smpsPSGAlterVol	$01
	smpsAlterNote	$01
	dc.b		nA5,	$03
	smpsPSGAlterVol	$01
	smpsAlterNote	$01
	dc.b		nA5
	smpsPSGAlterVol	$F3
	smpsAlterNote	$01
	dc.b		nA5,	$02
	smpsPSGAlterVol	$01
	smpsAlterNote	$01
	dc.b		nA5,	$01
	smpsPSGAlterVol	$02
	smpsAlterNote	$01
	dc.b		nA5
	smpsPSGAlterVol	$01
	smpsAlterNote	$01
	dc.b		nA5
	smpsPSGAlterVol	$01
	smpsAlterNote	$01
	dc.b		nA5,	$02
	smpsPSGAlterVol	$01
	smpsAlterNote	$01
	dc.b		nA5,	$01
	smpsPSGAlterVol	$01
	smpsAlterNote	$01
	dc.b		nA5,	$02
	smpsPSGAlterVol	$02
	smpsAlterNote	$01
	dc.b		nA5
	smpsPSGAlterVol	$01
	smpsAlterNote	$01
	dc.b		nA5,	$03
	smpsPSGAlterVol	$01
	smpsAlterNote	$01
	dc.b		nA5,	$02
	smpsPSGAlterVol	$01
	smpsAlterNote	$01
	dc.b		nA5,	$03
	smpsPSGAlterVol	$01
	smpsAlterNote	$01
	dc.b		nA5
	smpsPSGAlterVol	$F3
	smpsAlterNote	$01
	dc.b		nA5
	smpsPSGAlterVol	$01
	smpsAlterNote	$01
	dc.b		nA5,	$01
	smpsPSGAlterVol	$02
	smpsAlterNote	$01
	dc.b		nA5
	smpsPSGAlterVol	$01
	smpsAlterNote	$01
	dc.b		nA5
	smpsPSGAlterVol	$01
	smpsAlterNote	$01
	dc.b		nA5
	smpsPSGAlterVol	$01
	smpsAlterNote	$01
	dc.b		nA5
	smpsPSGAlterVol	$01
	smpsAlterNote	$01
	dc.b		nA5,	$02
	smpsPSGAlterVol	$02
	smpsAlterNote	$01
	dc.b		nA5,	$01
	smpsPSGAlterVol	$F7
	smpsAlterNote	$01
	dc.b		nA5,	$03
	smpsPSGAlterVol	$01
	smpsAlterNote	$01
	dc.b		nA5,	$01
	smpsPSGAlterVol	$02
	smpsAlterNote	$01
	dc.b		nA5
	smpsPSGAlterVol	$01
	smpsAlterNote	$01
	dc.b		nA5
	smpsPSGAlterVol	$FC
	smpsAlterNote	$01
	dc.b		nA5,	$03
	smpsPSGAlterVol	$01
	smpsAlterNote	$01
	dc.b		nA5,	$01
	smpsPSGAlterVol	$02
	smpsAlterNote	$01
	dc.b		nA5
	smpsPSGAlterVol	$01
	smpsAlterNote	$01
	dc.b		nA5
	smpsPSGAlterVol	$FC
	smpsAlterNote	$01
	dc.b		nA5,	$03
	smpsPSGAlterVol	$01
	smpsAlterNote	$01
	dc.b		nA5,	$01
	smpsPSGAlterVol	$02
	smpsAlterNote	$01
	dc.b		nA5
	smpsPSGAlterVol	$01
	smpsAlterNote	$01
	dc.b		nA5
	smpsPSGAlterVol	$FC
	smpsAlterNote	$01
	dc.b		nA5,	$03
	smpsPSGAlterVol	$01
	smpsAlterNote	$01
	dc.b		nA5,	$01
	smpsPSGAlterVol	$02
	smpsAlterNote	$01
	dc.b		nA5
	smpsPSGAlterVol	$01
	smpsAlterNote	$01
	dc.b		nA5
	smpsPSGAlterVol	$01
	smpsAlterNote	$01
	dc.b		nA5
	smpsPSGAlterVol	$01
	smpsAlterNote	$01
	dc.b		nA5
	smpsPSGAlterVol	$01
	smpsAlterNote	$01
	dc.b		nA5,	$02
	smpsPSGAlterVol	$02
	smpsAlterNote	$01
	dc.b		nA5
	smpsPSGAlterVol	$01
	smpsAlterNote	$01
	dc.b		nA5,	$03
	smpsPSGAlterVol	$01
	smpsAlterNote	$01
	dc.b		nA5,	$02
	smpsPSGAlterVol	$01
	smpsAlterNote	$01
	dc.b		nA5,	$03
	smpsPSGAlterVol	$01
	smpsAlterNote	$01
	dc.b		nA5,	$08
	smpsPSGAlterVol	$01
	smpsAlterNote	$01
	dc.b		nA5,	$01,	nRst,	$3A
	smpsPSGAlterVol	$F2
	smpsAlterNote	$01
	dc.b		nA5,	$03
	smpsPSGAlterVol	$01
	smpsAlterNote	$01
	dc.b		nA5,	$01
	smpsPSGAlterVol	$02
	smpsAlterNote	$01
	dc.b		nA5
	smpsPSGAlterVol	$01
	smpsAlterNote	$01
	dc.b		nA5
	smpsPSGAlterVol	$01
	smpsAlterNote	$01
	dc.b		nA5,	$02
	smpsPSGAlterVol	$01
	smpsAlterNote	$01
	dc.b		nA5,	$01
	smpsPSGAlterVol	$01
	smpsAlterNote	$01
	dc.b		nA5
	smpsPSGAlterVol	$02
	smpsAlterNote	$01
	dc.b		nA5,	$02
	smpsPSGAlterVol	$01
	smpsAlterNote	$01
	dc.b		nA5,	$03
	smpsPSGAlterVol	$01
	smpsAlterNote	$01
	dc.b		nA5,	$02
	smpsPSGAlterVol	$01
	smpsAlterNote	$01
	dc.b		nA5,	$03
	smpsPSGAlterVol	$01
	smpsAlterNote	$01
	dc.b		nA5
	smpsPSGAlterVol	$F3
	smpsAlterNote	$01
	dc.b		nA5
	smpsPSGAlterVol	$01
	smpsAlterNote	$01
	dc.b		nA5,	$01
	smpsPSGAlterVol	$02
	smpsAlterNote	$01
	dc.b		nA5
	smpsPSGAlterVol	$01
	smpsAlterNote	$01
	dc.b		nA5
	smpsPSGAlterVol	$01
	smpsAlterNote	$01
	dc.b		nA5,	$02
	smpsPSGAlterVol	$01
	smpsAlterNote	$01
	dc.b		nA5,	$01
	smpsPSGAlterVol	$01
	smpsAlterNote	$01
	dc.b		nA5,	$02
	smpsPSGAlterVol	$02
	smpsAlterNote	$01
	dc.b		nA5
	smpsPSGAlterVol	$01
	smpsAlterNote	$01
	dc.b		nA5,	$03
	smpsPSGAlterVol	$01
	smpsAlterNote	$01
	dc.b		nA5,	$01
	smpsPSGAlterVol	$01
	smpsAlterNote	$01
	dc.b		nA5,	$03
	smpsPSGAlterVol	$01
	smpsAlterNote	$01
	dc.b		nA5
	smpsPSGAlterVol	$F3
	smpsAlterNote	$01
	dc.b		nA5
	smpsPSGAlterVol	$01
	smpsAlterNote	$01
	dc.b		nA5,	$01
	smpsPSGAlterVol	$02
	smpsAlterNote	$01
	dc.b		nA5
	smpsPSGAlterVol	$01
	smpsAlterNote	$01
	dc.b		nA5
	smpsPSGAlterVol	$01
	smpsAlterNote	$01
	dc.b		nA5,	$02
	smpsPSGAlterVol	$01
	smpsAlterNote	$01
	dc.b		nA5,	$01
	smpsPSGAlterVol	$01
	smpsAlterNote	$01
	dc.b		nA5,	$02
	smpsPSGAlterVol	$02
	smpsAlterNote	$01
	dc.b		nA5
	smpsPSGAlterVol	$01
	smpsAlterNote	$01
	dc.b		nA5,	$03
	smpsPSGAlterVol	$01
	smpsAlterNote	$01
	dc.b		nA5,	$02
	smpsPSGAlterVol	$01
	smpsAlterNote	$01
	dc.b		nA5,	$03
	smpsPSGAlterVol	$01
	smpsAlterNote	$01
	dc.b		nA5,	$02
	smpsPSGAlterVol	$F3
	smpsAlterNote	$01
	dc.b		nA5,	$03
	smpsPSGAlterVol	$01
	smpsAlterNote	$01
	dc.b		nA5,	$01
	smpsPSGAlterVol	$02
	smpsAlterNote	$01
	dc.b		nA5
	smpsPSGAlterVol	$01
	smpsAlterNote	$01
	dc.b		nA5
	smpsPSGAlterVol	$01
	smpsAlterNote	$01
	dc.b		nA5,	$02
	smpsPSGAlterVol	$01
	smpsAlterNote	$01
	dc.b		nA5,	$01
	smpsPSGAlterVol	$01
	smpsAlterNote	$01
	dc.b		nA5,	$02
	smpsPSGAlterVol	$02
	smpsAlterNote	$01
	dc.b		nA5
	smpsPSGAlterVol	$01
	smpsAlterNote	$01
	dc.b		nA5,	$03
	smpsPSGAlterVol	$01
	smpsAlterNote	$01
	dc.b		nA5,	$02
	smpsPSGAlterVol	$01
	smpsAlterNote	$01
	dc.b		nA5,	$03
	smpsPSGAlterVol	$01
	smpsAlterNote	$01
	dc.b		nA5
	smpsPSGAlterVol	$F3
	smpsAlterNote	$01
	dc.b		nA5
	smpsPSGAlterVol	$01
	smpsAlterNote	$01
	dc.b		nA5,	$01
	smpsPSGAlterVol	$02
	smpsAlterNote	$01
	dc.b		nA5
	smpsPSGAlterVol	$02
	smpsAlterNote	$01
	dc.b		nA5,	$02
	smpsPSGAlterVol	$01
	smpsAlterNote	$01
	dc.b		nA5,	$01
	smpsPSGAlterVol	$01
	smpsAlterNote	$01
	dc.b		nA5,	$02
	smpsPSGAlterVol	$02
	smpsAlterNote	$01
	dc.b		nA5
	smpsPSGAlterVol	$01
	smpsAlterNote	$01
	dc.b		nA5,	$03
	smpsPSGAlterVol	$01
	smpsAlterNote	$01
	dc.b		nA5,	$02
	smpsPSGAlterVol	$01
	smpsAlterNote	$01
	dc.b		nA5,	$03
	smpsPSGAlterVol	$01
	smpsAlterNote	$01
	dc.b		nA5
	smpsPSGAlterVol	$F3
	smpsAlterNote	$01
	dc.b		nA5
	smpsPSGAlterVol	$01
	smpsAlterNote	$01
	dc.b		nA5,	$01
	smpsPSGAlterVol	$02
	smpsAlterNote	$01
	dc.b		nA5
	smpsPSGAlterVol	$01
	smpsAlterNote	$01
	dc.b		nA5
	smpsPSGAlterVol	$01
	smpsAlterNote	$01
	dc.b		nA5,	$02
	smpsPSGAlterVol	$01
	smpsAlterNote	$01
	dc.b		nA5,	$01
	smpsPSGAlterVol	$01
	smpsAlterNote	$01
	dc.b		nA5,	$02
	smpsPSGAlterVol	$02
	smpsAlterNote	$01
	dc.b		nA5,	$01
	smpsPSGAlterVol	$01
	smpsAlterNote	$01
	dc.b		nA5,	$03
	smpsPSGAlterVol	$01
	smpsAlterNote	$01
	dc.b		nA5,	$02
	smpsPSGAlterVol	$01
	smpsAlterNote	$01
	dc.b		nA5,	$03
	smpsPSGAlterVol	$01
	smpsAlterNote	$01
	dc.b		nA5
	smpsPSGAlterVol	$F3
	smpsAlterNote	$01
	dc.b		nA5
	smpsPSGAlterVol	$01
	smpsAlterNote	$01
	dc.b		nA5,	$01
	smpsPSGAlterVol	$02
	smpsAlterNote	$01
	dc.b		nA5
	smpsPSGAlterVol	$01
	smpsAlterNote	$01
	dc.b		nA5
	smpsPSGAlterVol	$01
	smpsAlterNote	$01
	dc.b		nA5,	$02
	smpsPSGAlterVol	$01
	smpsAlterNote	$01
	dc.b		nA5,	$01
	smpsPSGAlterVol	$01
	smpsAlterNote	$01
	dc.b		nA5,	$02
	smpsPSGAlterVol	$02
	smpsAlterNote	$01
	dc.b		nA5
	smpsPSGAlterVol	$01
	smpsAlterNote	$01
	dc.b		nA5,	$03
	smpsPSGAlterVol	$01
	smpsAlterNote	$01
	dc.b		nA5,	$02
	smpsPSGAlterVol	$01
	smpsAlterNote	$01
	dc.b		nA5
	smpsPSGAlterVol	$01
	smpsAlterNote	$01
	dc.b		nA5,	$03
	smpsPSGAlterVol	$F3
	smpsAlterNote	$01
	dc.b		nA5
	smpsPSGAlterVol	$01
	smpsAlterNote	$01
	dc.b		nA5,	$01
	smpsPSGAlterVol	$02
	smpsAlterNote	$01
	dc.b		nA5
	smpsPSGAlterVol	$01
	smpsAlterNote	$01
	dc.b		nA5
	smpsPSGAlterVol	$01
	smpsAlterNote	$01
	dc.b		nA5,	$02
	smpsPSGAlterVol	$01
	smpsAlterNote	$01
	dc.b		nA5,	$01
	smpsPSGAlterVol	$01
	smpsAlterNote	$01
	dc.b		nA5,	$02
	smpsPSGAlterVol	$02
	smpsAlterNote	$01
	dc.b		nA5
	smpsPSGAlterVol	$01
	smpsAlterNote	$01
	dc.b		nA5,	$03
	smpsPSGAlterVol	$01
	smpsAlterNote	$01
	dc.b		nA5,	$02
	smpsPSGAlterVol	$01
	smpsAlterNote	$01
	dc.b		nA5,	$03
	smpsPSGAlterVol	$01
	smpsAlterNote	$01
	dc.b		nA5
	smpsPSGAlterVol	$F3
	smpsAlterNote	$01
	dc.b		nA5,	$02
	smpsPSGAlterVol	$01
	smpsAlterNote	$01
	dc.b		nA5,	$01
	smpsPSGAlterVol	$02
	smpsAlterNote	$01
	dc.b		nA5
	smpsPSGAlterVol	$01
	smpsAlterNote	$01
	dc.b		nA5
	smpsPSGAlterVol	$01
	smpsAlterNote	$01
	dc.b		nA5,	$02
	smpsPSGAlterVol	$01
	smpsAlterNote	$01
	dc.b		nA5,	$01
	smpsPSGAlterVol	$01
	smpsAlterNote	$01
	dc.b		nA5,	$02
	smpsPSGAlterVol	$02
	smpsAlterNote	$01
	dc.b		nA5
	smpsPSGAlterVol	$01
	smpsAlterNote	$01
	dc.b		nA5,	$03
	smpsPSGAlterVol	$01
	smpsAlterNote	$01
	dc.b		nA5,	$02
	smpsPSGAlterVol	$01
	smpsAlterNote	$01
	dc.b		nA5,	$03
	smpsPSGAlterVol	$01
	smpsAlterNote	$01
	dc.b		nA5
	smpsPSGAlterVol	$F3
	smpsAlterNote	$01
	dc.b		nA5
	smpsPSGAlterVol	$01
	smpsAlterNote	$01
	dc.b		nA5,	$01
	smpsPSGAlterVol	$02
	smpsAlterNote	$01
	dc.b		nA5
	smpsPSGAlterVol	$01
	smpsAlterNote	$01
	dc.b		nA5
	smpsPSGAlterVol	$01
	smpsAlterNote	$01
	dc.b		nA5,	$02
	smpsPSGAlterVol	$02
	smpsAlterNote	$01
	dc.b		nA5
	smpsPSGAlterVol	$02
	smpsAlterNote	$01
	dc.b		nA5
	smpsPSGAlterVol	$01
	smpsAlterNote	$01
	dc.b		nA5,	$03
	smpsPSGAlterVol	$01
	smpsAlterNote	$01
	dc.b		nA5,	$02
	smpsPSGAlterVol	$01
	smpsAlterNote	$01
	dc.b		nA5,	$03
	smpsPSGAlterVol	$01
	smpsAlterNote	$01
	dc.b		nA5
	smpsPSGAlterVol	$F3
	smpsAlterNote	$01
	dc.b		nA5
	smpsPSGAlterVol	$01
	smpsAlterNote	$01
	dc.b		nA5,	$01
	smpsPSGAlterVol	$02
	smpsAlterNote	$01
	dc.b		nA5
	smpsPSGAlterVol	$01
	smpsAlterNote	$01
	dc.b		nA5
	smpsPSGAlterVol	$01
	smpsAlterNote	$01
	dc.b		nA5,	$02
	smpsPSGAlterVol	$01
	smpsAlterNote	$01
	dc.b		nA5,	$01
	smpsPSGAlterVol	$01
	smpsAlterNote	$01
	dc.b		nA5,	$02
	smpsPSGAlterVol	$02
	smpsAlterNote	$01
	dc.b		nA5
	smpsPSGAlterVol	$01
	smpsAlterNote	$01
	dc.b		nA5
	smpsPSGAlterVol	$01
	smpsAlterNote	$01
	dc.b		nA5
	smpsPSGAlterVol	$01
	smpsAlterNote	$01
	dc.b		nA5,	$03
	smpsPSGAlterVol	$01
	smpsAlterNote	$01
	dc.b		nA5
	smpsPSGAlterVol	$F3
	smpsAlterNote	$01
	dc.b		nA5
	smpsPSGAlterVol	$01
	smpsAlterNote	$01
	dc.b		nA5,	$01
	smpsPSGAlterVol	$02
	smpsAlterNote	$01
	dc.b		nA5
	smpsPSGAlterVol	$01
	smpsAlterNote	$01
	dc.b		nA5
	smpsPSGAlterVol	$01
	smpsAlterNote	$01
	dc.b		nA5,	$02
	smpsPSGAlterVol	$01
	smpsAlterNote	$01
	dc.b		nA5,	$01
	smpsPSGAlterVol	$01
	smpsAlterNote	$01
	dc.b		nA5,	$02
	smpsPSGAlterVol	$02
	smpsAlterNote	$01
	dc.b		nA5
	smpsPSGAlterVol	$01
	smpsAlterNote	$01
	dc.b		nA5,	$03
	smpsPSGAlterVol	$01
	smpsAlterNote	$01
	dc.b		nA5,	$02
	smpsPSGAlterVol	$01
	smpsAlterNote	$01
	dc.b		nA5,	$03
	smpsPSGAlterVol	$01
	smpsAlterNote	$01
	dc.b		nA5,	$02
	smpsPSGAlterVol	$F3
	smpsAlterNote	$01
	dc.b		nA5,	$03
	smpsPSGAlterVol	$01
	smpsAlterNote	$01
	dc.b		nA5,	$01
	smpsPSGAlterVol	$02
	smpsAlterNote	$01
	dc.b		nA5
	smpsPSGAlterVol	$01
	smpsAlterNote	$01
	dc.b		nA5
	smpsPSGAlterVol	$01
	smpsAlterNote	$01
	dc.b		nA5,	$02
	smpsPSGAlterVol	$01
	smpsAlterNote	$01
	dc.b		nA5,	$01
	smpsPSGAlterVol	$01
	smpsAlterNote	$01
	dc.b		nA5,	$02
	smpsPSGAlterVol	$02
	smpsAlterNote	$01
	dc.b		nA5
	smpsPSGAlterVol	$01
	smpsAlterNote	$01
	dc.b		nA5,	$03
	smpsPSGAlterVol	$01
	smpsAlterNote	$01
	dc.b		nA5,	$02
	smpsPSGAlterVol	$01
	smpsAlterNote	$01
	dc.b		nA5,	$03
	smpsPSGAlterVol	$01
	smpsAlterNote	$01
	dc.b		nA5
	smpsPSGAlterVol	$F3
	smpsAlterNote	$01
	dc.b		nA5
	smpsPSGAlterVol	$01
	smpsAlterNote	$01
	dc.b		nA5,	$01
	smpsPSGAlterVol	$03
	smpsAlterNote	$01
	dc.b		nA5
	smpsPSGAlterVol	$01
	smpsAlterNote	$01
	dc.b		nA5,	$02
	smpsPSGAlterVol	$01
	smpsAlterNote	$01
	dc.b		nA5,	$01
	smpsPSGAlterVol	$01
	smpsAlterNote	$01
	dc.b		nA5,	$02
	smpsPSGAlterVol	$02
	smpsAlterNote	$01
	dc.b		nA5
	smpsPSGAlterVol	$01
	smpsAlterNote	$01
	dc.b		nA5,	$03
	smpsPSGAlterVol	$01
	smpsAlterNote	$01
	dc.b		nA5,	$02
	smpsPSGAlterVol	$01
	smpsAlterNote	$01
	dc.b		nA5,	$03
	smpsPSGAlterVol	$01
	smpsAlterNote	$01
	dc.b		nA5
	smpsPSGAlterVol	$F3
	smpsAlterNote	$01
	dc.b		nA5
	smpsPSGAlterVol	$01
	smpsAlterNote	$01
	dc.b		nA5,	$01
	smpsPSGAlterVol	$02
	smpsAlterNote	$01
	dc.b		nA5
	smpsPSGAlterVol	$01
	smpsAlterNote	$01
	dc.b		nA5
	smpsPSGAlterVol	$01
	smpsAlterNote	$01
	dc.b		nA5,	$02
	smpsPSGAlterVol	$01
	smpsAlterNote	$01
	dc.b		nA5,	$01
	smpsPSGAlterVol	$01
	smpsAlterNote	$01
	dc.b		nA5
	smpsPSGAlterVol	$02
	smpsAlterNote	$01
	dc.b		nA5,	$02
	smpsPSGAlterVol	$01
	smpsAlterNote	$01
	dc.b		nA5,	$03
	smpsPSGAlterVol	$01
	smpsAlterNote	$01
	dc.b		nA5,	$02
	smpsPSGAlterVol	$01
	smpsAlterNote	$01
	dc.b		nA5,	$03
	smpsPSGAlterVol	$01
	smpsAlterNote	$01
	dc.b		nA5
	smpsPSGAlterVol	$F3
	smpsAlterNote	$01
	dc.b		nA5
	smpsPSGAlterVol	$01
	smpsAlterNote	$01
	dc.b		nA5,	$01
	smpsPSGAlterVol	$02
	smpsAlterNote	$01
	dc.b		nA5
	smpsPSGAlterVol	$01
	smpsAlterNote	$01
	dc.b		nA5
	smpsPSGAlterVol	$01
	smpsAlterNote	$01
	dc.b		nA5,	$02
	smpsPSGAlterVol	$01
	smpsAlterNote	$01
	dc.b		nA5,	$01
	smpsPSGAlterVol	$01
	smpsAlterNote	$01
	dc.b		nA5,	$02
	smpsPSGAlterVol	$02
	smpsAlterNote	$01
	dc.b		nA5
	smpsPSGAlterVol	$01
	smpsAlterNote	$01
	dc.b		nA5,	$03
	smpsPSGAlterVol	$01
	smpsAlterNote	$01
	dc.b		nA5,	$01
	smpsPSGAlterVol	$01
	smpsAlterNote	$01
	dc.b		nA5,	$03
	smpsPSGAlterVol	$01
	smpsAlterNote	$01
	dc.b		nA5
	smpsPSGAlterVol	$F3
	smpsAlterNote	$01
	dc.b		nA5
	smpsPSGAlterVol	$01
	smpsAlterNote	$01
	dc.b		nA5,	$01
	smpsPSGAlterVol	$02
	smpsAlterNote	$01
	dc.b		nA5
	smpsPSGAlterVol	$01
	smpsAlterNote	$01
	dc.b		nA5
	smpsPSGAlterVol	$01
	smpsAlterNote	$01
	dc.b		nA5,	$02
	smpsPSGAlterVol	$01
	smpsAlterNote	$01
	dc.b		nA5,	$01
	smpsPSGAlterVol	$01
	smpsAlterNote	$01
	dc.b		nA5,	$02
	smpsPSGAlterVol	$02
	smpsAlterNote	$01
	dc.b		nA5
	smpsPSGAlterVol	$01
	smpsAlterNote	$01
	dc.b		nA5,	$03
	smpsPSGAlterVol	$01
	smpsAlterNote	$01
	dc.b		nA5,	$02
	smpsPSGAlterVol	$01
	smpsAlterNote	$01
	dc.b		nA5,	$03
	smpsPSGAlterVol	$01
	smpsAlterNote	$01
	dc.b		nA5,	$02
	smpsPSGAlterVol	$F3
	smpsAlterNote	$01
	dc.b		nA5,	$03
	smpsPSGAlterVol	$01
	smpsAlterNote	$01
	dc.b		nA5,	$01
	smpsPSGAlterVol	$02
	smpsAlterNote	$01
	dc.b		nA5
	smpsPSGAlterVol	$01
	smpsAlterNote	$01
	dc.b		nA5
	smpsPSGAlterVol	$01
	smpsAlterNote	$01
	dc.b		nA5,	$02
	smpsPSGAlterVol	$01
	smpsAlterNote	$01
	dc.b		nA5,	$01
	smpsPSGAlterVol	$01
	smpsAlterNote	$01
	dc.b		nA5,	$02
	smpsPSGAlterVol	$02
	smpsAlterNote	$01
	dc.b		nA5
	smpsPSGAlterVol	$01
	smpsAlterNote	$01
	dc.b		nA5,	$03
	smpsPSGAlterVol	$01
	smpsAlterNote	$01
	dc.b		nA5,	$02
	smpsPSGAlterVol	$01
	smpsAlterNote	$01
	dc.b		nA5,	$03
	smpsPSGAlterVol	$01
	smpsAlterNote	$01
	dc.b		nA5
	smpsPSGAlterVol	$F3
	smpsAlterNote	$01
	dc.b		nA5
	smpsPSGAlterVol	$01
	smpsAlterNote	$01
	dc.b		nA5,	$01
	smpsPSGAlterVol	$02
	smpsAlterNote	$01
	dc.b		nA5
	smpsPSGAlterVol	$01
	smpsAlterNote	$01
	dc.b		nA5
	smpsPSGAlterVol	$01
	smpsAlterNote	$01
	dc.b		nA5
	smpsPSGAlterVol	$01
	smpsAlterNote	$01
	dc.b		nA5
	smpsPSGAlterVol	$01
	smpsAlterNote	$01
	dc.b		nA5,	$02
	smpsPSGAlterVol	$02
	smpsAlterNote	$01
	dc.b		nA5
	smpsPSGAlterVol	$01
	smpsAlterNote	$01
	dc.b		nA5,	$03
	smpsPSGAlterVol	$01
	smpsAlterNote	$01
	dc.b		nA5,	$02
	smpsPSGAlterVol	$01
	smpsAlterNote	$01
	dc.b		nA5,	$03
	smpsPSGAlterVol	$01
	smpsAlterNote	$01
	dc.b		nA5
	smpsPSGAlterVol	$F3
	smpsAlterNote	$01
	dc.b		nA5
	smpsPSGAlterVol	$01
	smpsAlterNote	$01
	dc.b		nA5,	$01
	smpsPSGAlterVol	$02
	smpsAlterNote	$01
	dc.b		nA5
	smpsPSGAlterVol	$01
	smpsAlterNote	$01
	dc.b		nA5
	smpsPSGAlterVol	$01
	smpsAlterNote	$01
	dc.b		nA5,	$02
	smpsPSGAlterVol	$01
	smpsAlterNote	$01
	dc.b		nA5,	$01
	smpsPSGAlterVol	$01
	smpsAlterNote	$01
	dc.b		nA5,	$02
	smpsPSGAlterVol	$02
	smpsAlterNote	$01
	dc.b		nA5
	smpsPSGAlterVol	$01
	smpsAlterNote	$01
	dc.b		nA5
	smpsPSGAlterVol	$01
	smpsAlterNote	$01
	dc.b		nA5
	smpsPSGAlterVol	$01
	smpsAlterNote	$01
	dc.b		nA5,	$03
	smpsPSGAlterVol	$01
	smpsAlterNote	$01
	dc.b		nA5
	smpsPSGAlterVol	$F3
	smpsAlterNote	$01
	dc.b		nA5
	smpsPSGAlterVol	$01
	smpsAlterNote	$01
	dc.b		nA5,	$01
	smpsPSGAlterVol	$02
	smpsAlterNote	$01
	dc.b		nA5
	smpsPSGAlterVol	$01
	smpsAlterNote	$01
	dc.b		nA5
	smpsPSGAlterVol	$01
	smpsAlterNote	$01
	dc.b		nA5,	$02
	smpsPSGAlterVol	$01
	smpsAlterNote	$01
	dc.b		nA5,	$01
	smpsPSGAlterVol	$01
	smpsAlterNote	$01
	dc.b		nA5,	$02
	smpsPSGAlterVol	$02
	smpsAlterNote	$01
	dc.b		nA5
	smpsPSGAlterVol	$01
	smpsAlterNote	$01
	dc.b		nA5,	$03
	smpsPSGAlterVol	$01
	smpsAlterNote	$01
	dc.b		nA5,	$02
	smpsPSGAlterVol	$01
	smpsAlterNote	$01
	dc.b		nA5
	smpsPSGAlterVol	$01
	smpsAlterNote	$01
	dc.b		nA5,	$03
	smpsPSGAlterVol	$F3
	smpsAlterNote	$01
	dc.b		nA5
	smpsPSGAlterVol	$01
	smpsAlterNote	$01
	dc.b		nA5,	$01
	smpsPSGAlterVol	$02
	smpsAlterNote	$01
	dc.b		nA5
	smpsPSGAlterVol	$01
	smpsAlterNote	$01
	dc.b		nA5
	smpsPSGAlterVol	$01
	smpsAlterNote	$01
	dc.b		nA5,	$02
	smpsPSGAlterVol	$01
	smpsAlterNote	$01
	dc.b		nA5,	$01
	smpsPSGAlterVol	$01
	smpsAlterNote	$01
	dc.b		nA5,	$02
	smpsPSGAlterVol	$02
	smpsAlterNote	$01
	dc.b		nA5
	smpsPSGAlterVol	$01
	smpsAlterNote	$01
	dc.b		nA5,	$03
	smpsPSGAlterVol	$01
	smpsAlterNote	$01
	dc.b		nA5,	$02
	smpsPSGAlterVol	$01
	smpsAlterNote	$01
	dc.b		nA5,	$03
	smpsPSGAlterVol	$01
	smpsAlterNote	$01
	dc.b		nA5
	smpsPSGAlterVol	$F3
	smpsAlterNote	$01
	dc.b		nA5,	$02
	smpsPSGAlterVol	$01
	smpsAlterNote	$01
	dc.b		nA5,	$01
	smpsPSGAlterVol	$02
	smpsAlterNote	$01
	dc.b		nA5
	smpsPSGAlterVol	$01
	smpsAlterNote	$01
	dc.b		nA5
	smpsPSGAlterVol	$01
	smpsAlterNote	$01
	dc.b		nA5,	$02
	smpsPSGAlterVol	$01
	smpsAlterNote	$01
	dc.b		nA5,	$01
	smpsPSGAlterVol	$01
	smpsAlterNote	$01
	dc.b		nA5,	$02
	smpsPSGAlterVol	$02
	smpsAlterNote	$01
	dc.b		nA5
	smpsPSGAlterVol	$01
	smpsAlterNote	$01
	dc.b		nA5,	$03
	smpsPSGAlterVol	$01
	smpsAlterNote	$01
	dc.b		nA5,	$02
	smpsPSGAlterVol	$01
	smpsAlterNote	$01
	dc.b		nA5,	$03
	smpsPSGAlterVol	$01
	smpsAlterNote	$01
	dc.b		nA5
	smpsPSGAlterVol	$F3
	smpsAlterNote	$01
	dc.b		nA5
	smpsPSGAlterVol	$01
	smpsAlterNote	$01
	dc.b		nA5,	$01
	smpsPSGAlterVol	$02
	smpsAlterNote	$01
	dc.b		nA5
	smpsPSGAlterVol	$01
	smpsAlterNote	$01
	dc.b		nA5
	smpsPSGAlterVol	$01
	smpsAlterNote	$01
	dc.b		nA5,	$02
	smpsPSGAlterVol	$01
	smpsAlterNote	$01
	dc.b		nA5,	$01
	smpsPSGAlterVol	$01
	smpsAlterNote	$01
	dc.b		nA5
	smpsPSGAlterVol	$02
	smpsAlterNote	$01
	dc.b		nA5,	$02
	smpsPSGAlterVol	$01
	smpsAlterNote	$01
	dc.b		nA5,	$03
	smpsPSGAlterVol	$01
	smpsAlterNote	$01
	dc.b		nA5,	$02
	smpsPSGAlterVol	$01
	smpsAlterNote	$01
	dc.b		nA5,	$03
	smpsPSGAlterVol	$01
	smpsAlterNote	$01
	dc.b		nA5
	smpsPSGAlterVol	$F3
	smpsAlterNote	$01
	dc.b		nA5
	smpsPSGAlterVol	$01
	smpsAlterNote	$01
	dc.b		nA5,	$01
	smpsPSGAlterVol	$02
	smpsAlterNote	$01
	dc.b		nA5
	smpsPSGAlterVol	$01
	smpsAlterNote	$01
	dc.b		nA5
	smpsPSGAlterVol	$01
	smpsAlterNote	$01
	dc.b		nA5,	$02
	smpsPSGAlterVol	$01
	smpsAlterNote	$01
	dc.b		nA5,	$01
	smpsPSGAlterVol	$01
	smpsAlterNote	$01
	dc.b		nA5,	$02
	smpsPSGAlterVol	$02
	smpsAlterNote	$01
	dc.b		nA5
	smpsPSGAlterVol	$01
	smpsAlterNote	$01
	dc.b		nA5
	smpsPSGAlterVol	$01
	smpsAlterNote	$01
	dc.b		nA5
	smpsPSGAlterVol	$01
	smpsAlterNote	$01
	dc.b		nA5,	$03
	smpsPSGAlterVol	$01
	smpsAlterNote	$01
	dc.b		nA5
	smpsPSGAlterVol	$F3
	smpsAlterNote	$01
	dc.b		nA5
	smpsPSGAlterVol	$01
	smpsAlterNote	$01
	dc.b		nA5,	$01
	smpsPSGAlterVol	$02
	smpsAlterNote	$01
	dc.b		nA5
	smpsPSGAlterVol	$01
	smpsAlterNote	$01
	dc.b		nA5
	smpsPSGAlterVol	$01
	smpsAlterNote	$01
	dc.b		nA5,	$02
	smpsPSGAlterVol	$01
	smpsAlterNote	$01
	dc.b		nA5,	$01
	smpsPSGAlterVol	$01
	smpsAlterNote	$01
	dc.b		nA5,	$02
	smpsPSGAlterVol	$02
	smpsAlterNote	$01
	dc.b		nA5
	smpsPSGAlterVol	$01
	smpsAlterNote	$01
	dc.b		nA5,	$03
	smpsPSGAlterVol	$01
	smpsAlterNote	$01
	dc.b		nA5,	$02
	smpsPSGAlterVol	$01
	smpsAlterNote	$01
	dc.b		nA5,	$03
	smpsPSGAlterVol	$01
	smpsAlterNote	$01
	dc.b		nA5,	$02
	smpsPSGAlterVol	$F3
	smpsAlterNote	$01
	dc.b		nA5,	$03
	smpsPSGAlterVol	$01
	smpsAlterNote	$01
	dc.b		nA5,	$01
	smpsPSGAlterVol	$02
	smpsAlterNote	$01
	dc.b		nA5
	smpsPSGAlterVol	$01
	smpsAlterNote	$01
	dc.b		nA5
	smpsPSGAlterVol	$01
	smpsAlterNote	$01
	dc.b		nA5,	$02
	smpsPSGAlterVol	$01
	smpsAlterNote	$01
	dc.b		nA5,	$01
	smpsPSGAlterVol	$01
	smpsAlterNote	$01
	dc.b		nA5,	$02
	smpsPSGAlterVol	$02
	smpsAlterNote	$01
	dc.b		nA5
	smpsPSGAlterVol	$01
	smpsAlterNote	$01
	dc.b		nA5,	$03
	smpsPSGAlterVol	$01
	smpsAlterNote	$01
	dc.b		nA5,	$02
	smpsPSGAlterVol	$01
	smpsAlterNote	$01
	dc.b		nA5,	$03
	smpsPSGAlterVol	$01
	smpsAlterNote	$01
	dc.b		nA5
	smpsPSGAlterVol	$F3
	smpsAlterNote	$01
	dc.b		nA5
	smpsPSGAlterVol	$01
	smpsAlterNote	$01
	dc.b		nA5,	$01
	smpsPSGAlterVol	$03
	smpsAlterNote	$01
	dc.b		nA5
	smpsPSGAlterVol	$01
	smpsAlterNote	$01
	dc.b		nA5,	$02
	smpsPSGAlterVol	$01
	smpsAlterNote	$01
	dc.b		nA5,	$01
	smpsPSGAlterVol	$01
	smpsAlterNote	$01
	dc.b		nA5,	$02
	smpsPSGAlterVol	$02
	smpsAlterNote	$01
	dc.b		nA5
	smpsPSGAlterVol	$01
	smpsAlterNote	$01
	dc.b		nA5,	$03
	smpsPSGAlterVol	$01
	smpsAlterNote	$01
	dc.b		nA5,	$02
	smpsPSGAlterVol	$01
	smpsAlterNote	$01
	dc.b		nA5,	$03
	smpsPSGAlterVol	$01
	smpsAlterNote	$01
	dc.b		nA5
	smpsPSGAlterVol	$F3
	smpsAlterNote	$01
	dc.b		nA5
	smpsPSGAlterVol	$01
	smpsAlterNote	$01
	dc.b		nA5,	$01
	smpsPSGAlterVol	$02
	smpsAlterNote	$01
	dc.b		nA5
	smpsPSGAlterVol	$01
	smpsAlterNote	$01
	dc.b		nA5
	smpsPSGAlterVol	$01
	smpsAlterNote	$01
	dc.b		nA5,	$02
	smpsPSGAlterVol	$01
	smpsAlterNote	$01
	dc.b		nA5,	$01
	smpsPSGAlterVol	$01
	smpsAlterNote	$01
	dc.b		nA5,	$02
	smpsPSGAlterVol	$02
	smpsAlterNote	$01
	dc.b		nA5,	$01
	smpsPSGAlterVol	$01
	smpsAlterNote	$01
	dc.b		nA5,	$03
	smpsPSGAlterVol	$01
	smpsAlterNote	$01
	dc.b		nA5,	$02
	smpsPSGAlterVol	$01
	smpsAlterNote	$01
	dc.b		nA5,	$03
	smpsPSGAlterVol	$01
	smpsAlterNote	$01
	dc.b		nA5
	smpsPSGAlterVol	$F3
	smpsAlterNote	$01
	dc.b		nA5
	smpsPSGAlterVol	$01
	smpsAlterNote	$01
	dc.b		nA5,	$01
	smpsPSGAlterVol	$02
	smpsAlterNote	$01
	dc.b		nA5
	smpsPSGAlterVol	$01
	smpsAlterNote	$01
	dc.b		nA5
	smpsPSGAlterVol	$01
	smpsAlterNote	$01
	dc.b		nA5,	$02
	smpsPSGAlterVol	$01
	smpsAlterNote	$01
	dc.b		nA5,	$01
	smpsPSGAlterVol	$01
	smpsAlterNote	$01
	dc.b		nA5,	$02
	smpsPSGAlterVol	$02
	smpsAlterNote	$01
	dc.b		nA5
	smpsPSGAlterVol	$01
	smpsAlterNote	$01
	dc.b		nA5,	$03
	smpsPSGAlterVol	$01
	smpsAlterNote	$01
	dc.b		nA5,	$02
	smpsPSGAlterVol	$01
	smpsAlterNote	$01
	dc.b		nA5
	smpsPSGAlterVol	$01
	smpsAlterNote	$01
	dc.b		nA5,	$03
	smpsPSGAlterVol	$F3
	smpsAlterNote	$01
	dc.b		nA5
	smpsPSGAlterVol	$01
	smpsAlterNote	$01
	dc.b		nA5,	$01
	smpsPSGAlterVol	$02
	smpsAlterNote	$01
	dc.b		nA5
	smpsPSGAlterVol	$01
	smpsAlterNote	$01
	dc.b		nA5
	smpsPSGAlterVol	$01
	smpsAlterNote	$01
	dc.b		nA5,	$02
	smpsPSGAlterVol	$01
	smpsAlterNote	$01
	dc.b		nA5,	$01
	smpsPSGAlterVol	$01
	smpsAlterNote	$01
	dc.b		nA5,	$02
	smpsPSGAlterVol	$02
	smpsAlterNote	$01
	dc.b		nA5
	smpsPSGAlterVol	$01
	smpsAlterNote	$01
	dc.b		nA5,	$03
	smpsPSGAlterVol	$01
	smpsAlterNote	$01
	dc.b		nA5,	$02
	smpsPSGAlterVol	$01
	smpsAlterNote	$01
	dc.b		nA5,	$03
	smpsPSGAlterVol	$01
	smpsAlterNote	$01
	dc.b		nA5
	smpsPSGAlterVol	$F3
	smpsAlterNote	$01
	dc.b		nA5,	$02
	smpsPSGAlterVol	$01
	smpsAlterNote	$01
	dc.b		nA5,	$01
	smpsPSGAlterVol	$02
	smpsAlterNote	$01
	dc.b		nA5
	smpsPSGAlterVol	$01
	smpsAlterNote	$01
	dc.b		nA5
	smpsPSGAlterVol	$01
	smpsAlterNote	$01
	dc.b		nA5,	$02
	smpsPSGAlterVol	$01
	smpsAlterNote	$01
	dc.b		nA5,	$01
	smpsPSGAlterVol	$01
	smpsAlterNote	$01
	dc.b		nA5,	$02
	smpsPSGAlterVol	$02
	smpsAlterNote	$01
	dc.b		nA5,	$01
	smpsPSGAlterVol	$03
	smpsJump	DJKK_Jump07

; DAC Data
DJKK_DAC:
	dc.b		dKick,	$2E,	dKick,	dKick,	$18,	dKick,	$11,	dKick
	dc.b		$06,	dKick,	$0B,	dKick,	$0C,	dKick,	dKick,	$0B
DJKK_Jump08:
	dc.b		dKick,	$17,	dKick,	$18,	dKick,	$17,	dKick,	dKick
	dc.b		dKick,	$18,	dKick,	$17,	dKick,	dKick,	dKick,	dKick
	dc.b		$18,	dKick,	$17,	dKick,	dKick,	$11,	dKick,	$06
	dc.b		dKick,	$0C,	dKick,	$0B,	dKick,	$0C,	dKick,	dKick
	dc.b		$17,	dKick,	dKick,	dKick,	$18,	dKick,	$17,	dKick
	dc.b		dKick,	dKick,	dKick,	$2F,	dKick,	$2E,	dKick,	$18
	dc.b		dKick,	$11,	dKick,	$06,	dKick,	$0B,	dKick,	$0C
	dc.b		dKick,	dKick,	$0B,	dKick,	$17,	dKick,	$18,	dKick
	dc.b		$17,	dKick,	dKick,	dKick,	dKick,	$18,	dKick,	$17
	dc.b		dKick,	dKick,	$12,	dKick,	$05,	dKick,	$0C,	dKick
	dc.b		dKick,	$0B,	dKick,	$0C,	dKick,	$17,	dKick,	dKick
	dc.b		dKick,	$18,	dKick,	$17,	dKick,	dKick,	dKick,	dKick
	dc.b		$18,	dKick,	$17,	dKick,	dKick,	dKick,	$06,	dKick
	dc.b		dKick,	dKick,	$4B,	dKick,	$17,	dKick,	$18,	dKick
	dc.b		$17,	dKick,	dKick,	dKick,	$18,	dKick,	$17,	dKick
	dc.b		dKick,	dKick,	dKick,	$18,	dKick,	$17,	dKick,	dKick
	dc.b		$11,	dKick,	$06,	dKick,	$0C,	dKick,	$0B,	dKick
	dc.b		$0C,	dKick,	dKick,	$17,	dKick,	dKick,	dKick,	$18
	dc.b		dKick,	$17,	dKick,	dKick,	dKick,	dKick,	$18,	dKick
	dc.b		$17,	dKick,	dKick,	dKick,	dKick,	$12,	dKick,	$06
	dc.b		dKick,	$0B,	dKick,	$0C,	dKick,	dKick,	$0B
	smpsJump	DJKK_Jump08

DJKK_Voices:
	dc.b		$32,$08,$71,$72,$60,$1F,$1F,$16,$13,$1F,$1F,$1F,$14,$00,$00,$18
	dc.b		$0D,$0F,$0F,$0F,$37,$10,$24,$00,$00;			Voice 00
	dc.b		$3A,$61,$3C,$14,$31,$9F,$DF,$9F,$DF,$04,$09,$04,$03,$03,$01,$03
	dc.b		$00,$1F,$0F,$0F,$AF,$25,$3D,$28,$00;			Voice 01
	dc.b		$32,$71,$37,$33,$01,$99,$55,$19,$56,$02,$0A,$04,$0F,$04,$06,$05
	dc.b		$04,$1F,$2F,$FF,$1F,$26,$24,$20,$00;			Voice 02
	dc.b		$3C,$09,$00,$01,$00,$1F,$5F,$1F,$1D,$1D,$12,$1E,$10,$09,$0E,$12
	dc.b		$1C,$10,$47,$96,$27,$03,$00,$10,$0A;			Voice 03
	dc.b		$3A,$32,$71,$01,$72,$8B,$0C,$0C,$4E,$06,$00,$00,$02,$04,$02,$02
	dc.b		$06,$16,$06,$06,$28,$14,$28,$14,$00;			Voice 04
	dc.b		$3A,$32,$71,$01,$72,$8F,$12,$11,$51,$06,$00,$00,$02,$04,$02,$02
	dc.b		$06,$16,$06,$06,$28,$14,$28,$14,$00;			Voice 05
	dc.b		$3A,$01,$73,$02,$01,$10,$11,$11,$18,$09,$0A,$0A,$0D,$00,$00,$00
	dc.b		$00,$06,$09,$09,$29,$1B,$22,$1D,$00;			Voice 06
	smpsFooterEndSong	"TG2000Tracks/DJKK.asm"	
	even
