Elevator_Header:
	smpsHeaderStartSong 1
	smpsHeaderVoice	Elevator_Voices
	smpsHeaderChan	$06,	$03
	smpsHeaderTempo	$01,	$00

	smpsHeaderDAC	Elevator_DAC
	smpsHeaderFM	Elevator_FM1,	smpsPitch00,	$00
	smpsHeaderFM	Elevator_FM2,	smpsPitch00,	$00
	smpsHeaderFM	Elevator_FM3,	smpsPitch00,	$00
	smpsHeaderFM	Elevator_FM4,	smpsPitch00,	$00
	smpsHeaderFM	Elevator_FM5,	smpsPitch00,	$00
	smpsHeaderPSG       Elevator_PSG1,	$00, $00, $00, $00
	smpsHeaderPSG       Elevator_PSG2,	$00, $00, $00, $00
	smpsHeaderPSG       Elevator_PSG3,	$00, $00, $00, $00
	dc.b		$00,	$00,	$00,	$00

; PSG1 Data
Elevator_PSG1:
	smpsStop
; PSG2 Data
Elevator_PSG2:
	smpsStop

; FM1 Data
Elevator_FM1:
	smpsFMvoice	$00
	smpsAlterVol	$09
	smpsPan		panCentre,	$00
	dc.b		nC5,	$01
Elevator_Jump01:
	dc.b		smpsNoAttack,	nC5,	$7F,	smpsNoAttack,	$20,	nC5,	$7F,	smpsNoAttack
	dc.b		$21,	nCs5,	$7F,	smpsNoAttack,	$21,	nE5,	$7F,	smpsNoAttack
	dc.b		$21,	nC5,	$01
	smpsPan		panCentre,	$00
	smpsJump	Elevator_Jump01

; FM2 Data
Elevator_FM2:
	smpsFMvoice	$00
	smpsAlterVol	$09
	smpsPan		panCentre,	$00
	dc.b		nAb4,	$01
Elevator_Jump02:
	dc.b		smpsNoAttack,	nAb4,	$7F,	smpsNoAttack,	$20,	nG4,	$7F,	smpsNoAttack
	dc.b		$21,	nFs4,	$7F,	smpsNoAttack,	$21,	nA4,	$7F,	smpsNoAttack
	dc.b		$21,	nAb4,	$01
	smpsPan		panCentre,	$00
	smpsJump	Elevator_Jump02

; FM3 Data
Elevator_FM3:
	smpsFMvoice	$01
	smpsPan		panCentre,	$00
	dc.b		nCs3,	$01
Elevator_Jump03:
	dc.b		smpsNoAttack,	nCs3,	$13,	nRst,	$0A,	nCs3,	$02,	nRst
	dc.b		$08,	nAb2,	$1E,	nRst,	$0A,	nCs3,	$14,	nRst
	dc.b		$0A,	nCs3,	$02,	nRst,	$08,	nAb2,	$1E,	nRst
	dc.b		$0A,	nC3,	$14,	nRst,	$0A,	nC3,	$02,	nRst
	dc.b		$08,	nG3,	$1E,	nRst,	$0A,	nC3,	$14,	nRst
	dc.b		$0A,	nC3,	$02,	nRst,	$08,	nG3,	$1E,	nRst
	dc.b		$0A,	nEb3,	$14,	nRst,	$0A,	nEb3,	$02,	nRst
	dc.b		$08,	nBb2,	$1E,	nRst,	$0A,	nEb3,	$14,	nRst
	dc.b		$0A,	nEb3,	$02,	nRst,	$08,	nBb3,	$14,	smpsNoAttack
	smpsAlterNote	$F0
	dc.b		nBb3,	$01,	smpsNoAttack
	smpsAlterNote	$20
	dc.b		nA3,	smpsNoAttack
	smpsAlterNote	$10
	dc.b		nA3,	$01,	smpsNoAttack
	smpsAlterNote	$00
	dc.b		nA3,	$01,	smpsNoAttack
	smpsAlterNote	$F0
	dc.b		nA3,	$01,	smpsNoAttack
	smpsAlterNote	$1D
	dc.b		nAb3,	smpsNoAttack
	smpsAlterNote	$0D
	dc.b		nAb3,	$01,	smpsNoAttack
	smpsAlterNote	$FD
	dc.b		nAb3,	$01,	smpsNoAttack
	smpsAlterNote	$ED
	dc.b		nAb3,	$01,	smpsNoAttack
	smpsAlterNote	$17
	dc.b		nG3,	nRst,	$0A
	smpsAlterNote	$00
	dc.b		nFs3,	$14,	nRst,	$0A,	nFs3,	$02,	nRst,	$08
	dc.b		nCs3,	$1E,	nRst,	$0A,	nA2,	$14,	nRst,	$0A
	dc.b		nA2,	$02,	nRst,	$08,	nFs2,	$1E,	nRst,	$0A
	dc.b		nCs3,	$01
	smpsPan		panCentre,	$00
	smpsJump	Elevator_Jump03

; FM4 Data
Elevator_FM4:
	smpsFMvoice	$02
	smpsAlterVol	$0E
	smpsPan		panRight,	$00
	dc.b		nC4,	$01
Elevator_Jump04:
	dc.b		smpsNoAttack,	nC4,	$09,	nRst,	$0A,	nC4,	nRst,	nBb3
	dc.b		$14,	nRst,	$0A,	nC4,	nRst,	nC4,	nRst,	nC4
	dc.b		nBb3,	nBb3,	nBb3,	nRst,	nC4,	nRst,	nC4,	nRst
	dc.b		nBb3,	$14,	nRst,	$0A,	nC4,	nRst,	nC4,	nRst
	dc.b		nC4,	nBb3,	nBb3,	nBb3,	nRst,	nCs4,	nRst,	nCs4
	dc.b		nRst,	nBb3,	nBb3,	nRst,	nBb3,	nBb3,	nBb3,	nRst
	dc.b		nBb3,	nC4,	nC4,	nBb3,	nRst,	nA3,	nRst,	nA3
	dc.b		nRst,	nA3,	nA3,	nRst,	nA3,	nRst,	nA3,	nRst
	dc.b		nA3,	nA3,	nA3,	nA3,	nRst,	nC4,	$01
	smpsPan		panRight,	$00
	smpsJump	Elevator_Jump04

; FM5 Data
Elevator_FM5:
	smpsFMvoice	$02
	smpsAlterVol	$13
	smpsPan		panLeft,	$00
	dc.b		nAb3,	$01
Elevator_Jump05:
	dc.b		smpsNoAttack,	nAb3,	$09,	nRst,	$0A,	nAb3,	nRst,	nAb3
	dc.b		$14,	nRst,	$0A,	nAb3,	nRst,	nAb3,	nRst,	nAb3
	dc.b		nAb3,	$1E,	nRst,	$0A,	nG3,	nRst,	nG3,	nRst
	dc.b		nG3,	$14,	nRst,	$0A,	nG3,	nRst,	nG3,	nRst
	dc.b		nG3,	nG3,	$1E,	nRst,	$0A,	nFs4,	nRst,	nFs4
	dc.b		nRst,	nEb4,	nEb4,	nRst,	nEb4,	nEb4,	nEb4,	nRst
	dc.b		nEb4,	nEb4,	nEb4,	nEb4,	nRst,	nFs3,	nRst,	nFs3
	dc.b		nRst,	nFs3,	nFs3,	nRst,	nFs3,	nRst,	nFs3,	nRst
	dc.b		nFs3,	nFs3,	nFs3,	nFs3,	nRst,	nAb3,	$01
	smpsPan		panLeft,	$00
	smpsJump	Elevator_Jump05

; PSG3 Data
Elevator_PSG3:
	smpsPSGAlterVol	$02
	smpsPSGform	$E7
	smpsAlterNote	$01
	dc.b		nA5,	$01
Elevator_Jump06:
	smpsPSGAlterVol	$02
	smpsAlterNote	$01
	dc.b		nA5
	smpsPSGAlterVol	$01
	smpsAlterNote	$01
	dc.b		nA5
	smpsPSGAlterVol	$01
	smpsAlterNote	$01
	dc.b		nA5
	smpsPSGAlterVol	$01
	smpsAlterNote	$01
	dc.b		nA5
	smpsPSGAlterVol	$01
	smpsAlterNote	$01
	dc.b		nA5,	$02
	smpsPSGAlterVol	$01
	smpsAlterNote	$01
	dc.b		nA5
	smpsPSGAlterVol	$01
	smpsAlterNote	$01
	dc.b		nA5,	$01
	smpsPSGAlterVol	$FC
	smpsAlterNote	$01
	dc.b		nA5
	smpsPSGAlterVol	$02
	smpsAlterNote	$01
	dc.b		nA5
	smpsPSGAlterVol	$01
	smpsAlterNote	$01
	dc.b		nA5
	smpsPSGAlterVol	$01
	smpsAlterNote	$01
	dc.b		nA5
	smpsPSGAlterVol	$01
	smpsAlterNote	$01
	dc.b		nA5
	smpsPSGAlterVol	$01
	smpsAlterNote	$01
	dc.b		nA5,	$02
	smpsPSGAlterVol	$01
	smpsAlterNote	$01
	dc.b		nA5
	smpsPSGAlterVol	$01
	smpsAlterNote	$01
	dc.b		nA5,	$01
	smpsPSGAlterVol	$F4
	smpsAlterNote	$01
	dc.b		nA5
	smpsPSGAlterVol	$02
	smpsAlterNote	$01
	dc.b		nA5
	smpsPSGAlterVol	$01
	smpsAlterNote	$01
	dc.b		nA5
	smpsPSGAlterVol	$01
	smpsAlterNote	$01
	dc.b		nA5
	smpsPSGAlterVol	$01
	smpsAlterNote	$01
	dc.b		nA5
	smpsPSGAlterVol	$01
	smpsAlterNote	$01
	dc.b		nA5,	$02
	smpsPSGAlterVol	$01
	smpsAlterNote	$01
	dc.b		nA5
	smpsPSGAlterVol	$01
	smpsAlterNote	$01
	dc.b		nA5,	$01
	smpsPSGAlterVol	$FC
	smpsAlterNote	$01
	dc.b		nA5
	smpsPSGAlterVol	$02
	smpsAlterNote	$01
	dc.b		nA5
	smpsPSGAlterVol	$01
	smpsAlterNote	$01
	dc.b		nA5
	smpsPSGAlterVol	$01
	smpsAlterNote	$01
	dc.b		nA5
	smpsPSGAlterVol	$01
	smpsAlterNote	$01
	dc.b		nA5
	smpsPSGAlterVol	$01
	smpsAlterNote	$01
	dc.b		nA5,	$02
	smpsPSGAlterVol	$01
	smpsAlterNote	$01
	dc.b		nA5
	smpsPSGAlterVol	$01
	smpsAlterNote	$01
	dc.b		nA5,	$01
	smpsPSGAlterVol	$F4
	smpsAlterNote	$01
	dc.b		nA5
	smpsPSGAlterVol	$02
	smpsAlterNote	$01
	dc.b		nA5
	smpsPSGAlterVol	$01
	smpsAlterNote	$01
	dc.b		nA5
	smpsPSGAlterVol	$01
	smpsAlterNote	$01
	dc.b		nA5
	smpsPSGAlterVol	$01
	smpsAlterNote	$01
	dc.b		nA5
	smpsPSGAlterVol	$01
	smpsAlterNote	$01
	dc.b		nA5,	$02
	smpsPSGAlterVol	$01
	smpsAlterNote	$01
	dc.b		nA5
	smpsPSGAlterVol	$01
	smpsAlterNote	$01
	dc.b		nA5,	$01
	smpsPSGAlterVol	$FC
	smpsAlterNote	$01
	dc.b		nA5
	smpsPSGAlterVol	$02
	smpsAlterNote	$01
	dc.b		nA5
	smpsPSGAlterVol	$01
	smpsAlterNote	$01
	dc.b		nA5
	smpsPSGAlterVol	$01
	smpsAlterNote	$01
	dc.b		nA5
	smpsPSGAlterVol	$01
	smpsAlterNote	$01
	dc.b		nA5
	smpsPSGAlterVol	$01
	smpsAlterNote	$01
	dc.b		nA5,	$02
	smpsPSGAlterVol	$01
	smpsAlterNote	$01
	dc.b		nA5
	smpsPSGAlterVol	$01
	smpsAlterNote	$01
	dc.b		nA5,	$01
	smpsPSGAlterVol	$F4
	smpsAlterNote	$01
	dc.b		nA5
	smpsPSGAlterVol	$02
	smpsAlterNote	$01
	dc.b		nA5
	smpsPSGAlterVol	$01
	smpsAlterNote	$01
	dc.b		nA5
	smpsPSGAlterVol	$01
	smpsAlterNote	$01
	dc.b		nA5
	smpsPSGAlterVol	$01
	smpsAlterNote	$01
	dc.b		nA5
	smpsPSGAlterVol	$01
	smpsAlterNote	$01
	dc.b		nA5,	$02
	smpsPSGAlterVol	$01
	smpsAlterNote	$01
	dc.b		nA5
	smpsPSGAlterVol	$01
	smpsAlterNote	$01
	dc.b		nA5,	$01
	smpsPSGAlterVol	$FC
	smpsAlterNote	$01
	dc.b		nA5
	smpsPSGAlterVol	$02
	smpsAlterNote	$01
	dc.b		nA5
	smpsPSGAlterVol	$01
	smpsAlterNote	$01
	dc.b		nA5
	smpsPSGAlterVol	$01
	smpsAlterNote	$01
	dc.b		nA5
	smpsPSGAlterVol	$01
	smpsAlterNote	$01
	dc.b		nA5
	smpsPSGAlterVol	$01
	smpsAlterNote	$01
	dc.b		nA5,	$02
	smpsPSGAlterVol	$01
	smpsAlterNote	$01
	dc.b		nA5
	smpsPSGAlterVol	$01
	smpsAlterNote	$01
	dc.b		nA5,	$01
	smpsPSGAlterVol	$F4
	smpsAlterNote	$01
	dc.b		nA5
	smpsPSGAlterVol	$02
	smpsAlterNote	$01
	dc.b		nA5
	smpsPSGAlterVol	$01
	smpsAlterNote	$01
	dc.b		nA5
	smpsPSGAlterVol	$01
	smpsAlterNote	$01
	dc.b		nA5
	smpsPSGAlterVol	$01
	smpsAlterNote	$01
	dc.b		nA5
	smpsPSGAlterVol	$01
	smpsAlterNote	$01
	dc.b		nA5,	$02
	smpsPSGAlterVol	$01
	smpsAlterNote	$01
	dc.b		nA5
	smpsPSGAlterVol	$01
	smpsAlterNote	$01
	dc.b		nA5,	$01
	smpsPSGAlterVol	$FC
	smpsAlterNote	$01
	dc.b		nA5
	smpsPSGAlterVol	$02
	smpsAlterNote	$01
	dc.b		nA5
	smpsPSGAlterVol	$01
	smpsAlterNote	$01
	dc.b		nA5
	smpsPSGAlterVol	$01
	smpsAlterNote	$01
	dc.b		nA5
	smpsPSGAlterVol	$01
	smpsAlterNote	$01
	dc.b		nA5
	smpsPSGAlterVol	$01
	smpsAlterNote	$01
	dc.b		nA5,	$02
	smpsPSGAlterVol	$01
	smpsAlterNote	$01
	dc.b		nA5
	smpsPSGAlterVol	$01
	smpsAlterNote	$01
	dc.b		nA5,	$01
	smpsPSGAlterVol	$F4
	smpsAlterNote	$01
	dc.b		nA5
	smpsPSGAlterVol	$02
	smpsAlterNote	$01
	dc.b		nA5
	smpsPSGAlterVol	$01
	smpsAlterNote	$01
	dc.b		nA5
	smpsPSGAlterVol	$01
	smpsAlterNote	$01
	dc.b		nA5
	smpsPSGAlterVol	$01
	smpsAlterNote	$01
	dc.b		nA5
	smpsPSGAlterVol	$01
	smpsAlterNote	$01
	dc.b		nA5,	$02
	smpsPSGAlterVol	$01
	smpsAlterNote	$01
	dc.b		nA5
	smpsPSGAlterVol	$01
	smpsAlterNote	$01
	dc.b		nA5,	$01
	smpsPSGAlterVol	$FC
	smpsAlterNote	$01
	dc.b		nA5
	smpsPSGAlterVol	$02
	smpsAlterNote	$01
	dc.b		nA5
	smpsPSGAlterVol	$01
	smpsAlterNote	$01
	dc.b		nA5
	smpsPSGAlterVol	$01
	smpsAlterNote	$01
	dc.b		nA5
	smpsPSGAlterVol	$01
	smpsAlterNote	$01
	dc.b		nA5
	smpsPSGAlterVol	$01
	smpsAlterNote	$01
	dc.b		nA5,	$02
	smpsPSGAlterVol	$01
	smpsAlterNote	$01
	dc.b		nA5
	smpsPSGAlterVol	$01
	smpsAlterNote	$01
	dc.b		nA5,	$01
	smpsPSGAlterVol	$F4
	smpsAlterNote	$01
	dc.b		nA5
	smpsPSGAlterVol	$02
	smpsAlterNote	$01
	dc.b		nA5
	smpsPSGAlterVol	$01
	smpsAlterNote	$01
	dc.b		nA5
	smpsPSGAlterVol	$01
	smpsAlterNote	$01
	dc.b		nA5
	smpsPSGAlterVol	$01
	smpsAlterNote	$01
	dc.b		nA5
	smpsPSGAlterVol	$01
	smpsAlterNote	$01
	dc.b		nA5,	$02
	smpsPSGAlterVol	$01
	smpsAlterNote	$01
	dc.b		nA5
	smpsPSGAlterVol	$01
	smpsAlterNote	$01
	dc.b		nA5,	$01
	smpsPSGAlterVol	$FC
	smpsAlterNote	$01
	dc.b		nA5
	smpsPSGAlterVol	$02
	smpsAlterNote	$01
	dc.b		nA5
	smpsPSGAlterVol	$01
	smpsAlterNote	$01
	dc.b		nA5
	smpsPSGAlterVol	$01
	smpsAlterNote	$01
	dc.b		nA5
	smpsPSGAlterVol	$01
	smpsAlterNote	$01
	dc.b		nA5
	smpsPSGAlterVol	$01
	smpsAlterNote	$01
	dc.b		nA5,	$02
	smpsPSGAlterVol	$01
	smpsAlterNote	$01
	dc.b		nA5
	smpsPSGAlterVol	$01
	smpsAlterNote	$01
	dc.b		nA5,	$01
	smpsPSGAlterVol	$F4
	smpsAlterNote	$01
	dc.b		nA5
	smpsPSGAlterVol	$02
	smpsAlterNote	$01
	dc.b		nA5
	smpsPSGAlterVol	$01
	smpsAlterNote	$01
	dc.b		nA5
	smpsPSGAlterVol	$01
	smpsAlterNote	$01
	dc.b		nA5
	smpsPSGAlterVol	$01
	smpsAlterNote	$01
	dc.b		nA5
	smpsPSGAlterVol	$01
	smpsAlterNote	$01
	dc.b		nA5,	$02
	smpsPSGAlterVol	$01
	smpsAlterNote	$01
	dc.b		nA5
	smpsPSGAlterVol	$01
	smpsAlterNote	$01
	dc.b		nA5,	$01
	smpsPSGAlterVol	$FC
	smpsAlterNote	$01
	dc.b		nA5
	smpsPSGAlterVol	$02
	smpsAlterNote	$01
	dc.b		nA5
	smpsPSGAlterVol	$01
	smpsAlterNote	$01
	dc.b		nA5
	smpsPSGAlterVol	$01
	smpsAlterNote	$01
	dc.b		nA5
	smpsPSGAlterVol	$01
	smpsAlterNote	$01
	dc.b		nA5
	smpsPSGAlterVol	$01
	smpsAlterNote	$01
	dc.b		nA5,	$02
	smpsPSGAlterVol	$01
	smpsAlterNote	$01
	dc.b		nA5
	smpsPSGAlterVol	$01
	smpsAlterNote	$01
	dc.b		nA5,	$01
	smpsPSGAlterVol	$F4
	smpsAlterNote	$01
	dc.b		nA5
	smpsPSGAlterVol	$02
	smpsAlterNote	$01
	dc.b		nA5
	smpsPSGAlterVol	$01
	smpsAlterNote	$01
	dc.b		nA5
	smpsPSGAlterVol	$01
	smpsAlterNote	$01
	dc.b		nA5
	smpsPSGAlterVol	$01
	smpsAlterNote	$01
	dc.b		nA5
	smpsPSGAlterVol	$01
	smpsAlterNote	$01
	dc.b		nA5,	$02
	smpsPSGAlterVol	$01
	smpsAlterNote	$01
	dc.b		nA5
	smpsPSGAlterVol	$01
	smpsAlterNote	$01
	dc.b		nA5,	$01
	smpsPSGAlterVol	$FC
	smpsAlterNote	$01
	dc.b		nA5
	smpsPSGAlterVol	$02
	smpsAlterNote	$01
	dc.b		nA5
	smpsPSGAlterVol	$01
	smpsAlterNote	$01
	dc.b		nA5
	smpsPSGAlterVol	$01
	smpsAlterNote	$01
	dc.b		nA5
	smpsPSGAlterVol	$01
	smpsAlterNote	$01
	dc.b		nA5
	smpsPSGAlterVol	$01
	smpsAlterNote	$01
	dc.b		nA5,	$02
	smpsPSGAlterVol	$01
	smpsAlterNote	$01
	dc.b		nA5
	smpsPSGAlterVol	$01
	smpsAlterNote	$01
	dc.b		nA5,	$01
	smpsPSGAlterVol	$F4
	smpsAlterNote	$01
	dc.b		nA5
	smpsPSGAlterVol	$02
	smpsAlterNote	$01
	dc.b		nA5
	smpsPSGAlterVol	$01
	smpsAlterNote	$01
	dc.b		nA5
	smpsPSGAlterVol	$01
	smpsAlterNote	$01
	dc.b		nA5
	smpsPSGAlterVol	$01
	smpsAlterNote	$01
	dc.b		nA5
	smpsPSGAlterVol	$01
	smpsAlterNote	$01
	dc.b		nA5,	$02
	smpsPSGAlterVol	$01
	smpsAlterNote	$01
	dc.b		nA5
	smpsPSGAlterVol	$01
	smpsAlterNote	$01
	dc.b		nA5,	$01
	smpsPSGAlterVol	$FC
	smpsAlterNote	$01
	dc.b		nA5
	smpsPSGAlterVol	$02
	smpsAlterNote	$01
	dc.b		nA5
	smpsPSGAlterVol	$01
	smpsAlterNote	$01
	dc.b		nA5
	smpsPSGAlterVol	$01
	smpsAlterNote	$01
	dc.b		nA5
	smpsPSGAlterVol	$01
	smpsAlterNote	$01
	dc.b		nA5
	smpsPSGAlterVol	$01
	smpsAlterNote	$01
	dc.b		nA5,	$02
	smpsPSGAlterVol	$01
	smpsAlterNote	$01
	dc.b		nA5
	smpsPSGAlterVol	$01
	smpsAlterNote	$01
	dc.b		nA5,	$01
	smpsPSGAlterVol	$F4
	smpsAlterNote	$01
	dc.b		nA5
	smpsPSGAlterVol	$02
	smpsAlterNote	$01
	dc.b		nA5
	smpsPSGAlterVol	$01
	smpsAlterNote	$01
	dc.b		nA5
	smpsPSGAlterVol	$01
	smpsAlterNote	$01
	dc.b		nA5
	smpsPSGAlterVol	$01
	smpsAlterNote	$01
	dc.b		nA5
	smpsPSGAlterVol	$01
	smpsAlterNote	$01
	dc.b		nA5,	$02
	smpsPSGAlterVol	$01
	smpsAlterNote	$01
	dc.b		nA5
	smpsPSGAlterVol	$01
	smpsAlterNote	$01
	dc.b		nA5,	$01
	smpsPSGAlterVol	$FC
	smpsAlterNote	$01
	dc.b		nA5
	smpsPSGAlterVol	$02
	smpsAlterNote	$01
	dc.b		nA5
	smpsPSGAlterVol	$01
	smpsAlterNote	$01
	dc.b		nA5
	smpsPSGAlterVol	$01
	smpsAlterNote	$01
	dc.b		nA5
	smpsPSGAlterVol	$01
	smpsAlterNote	$01
	dc.b		nA5
	smpsPSGAlterVol	$01
	smpsAlterNote	$01
	dc.b		nA5,	$02
	smpsPSGAlterVol	$01
	smpsAlterNote	$01
	dc.b		nA5
	smpsPSGAlterVol	$01
	smpsAlterNote	$01
	dc.b		nA5,	$01
	smpsPSGAlterVol	$F4
	smpsAlterNote	$01
	dc.b		nA5
	smpsPSGAlterVol	$02
	smpsAlterNote	$01
	dc.b		nA5
	smpsPSGAlterVol	$01
	smpsAlterNote	$01
	dc.b		nA5
	smpsPSGAlterVol	$01
	smpsAlterNote	$01
	dc.b		nA5
	smpsPSGAlterVol	$01
	smpsAlterNote	$01
	dc.b		nA5
	smpsPSGAlterVol	$01
	smpsAlterNote	$01
	dc.b		nA5,	$02
	smpsPSGAlterVol	$01
	smpsAlterNote	$01
	dc.b		nA5
	smpsPSGAlterVol	$01
	smpsAlterNote	$01
	dc.b		nA5,	$01
	smpsPSGAlterVol	$FC
	smpsAlterNote	$01
	dc.b		nA5
	smpsPSGAlterVol	$02
	smpsAlterNote	$01
	dc.b		nA5
	smpsPSGAlterVol	$01
	smpsAlterNote	$01
	dc.b		nA5
	smpsPSGAlterVol	$01
	smpsAlterNote	$01
	dc.b		nA5
	smpsPSGAlterVol	$01
	smpsAlterNote	$01
	dc.b		nA5
	smpsPSGAlterVol	$01
	smpsAlterNote	$01
	dc.b		nA5,	$02
	smpsPSGAlterVol	$01
	smpsAlterNote	$01
	dc.b		nA5
	smpsPSGAlterVol	$01
	smpsAlterNote	$01
	dc.b		nA5,	$01
	smpsPSGAlterVol	$F4
	smpsAlterNote	$01
	dc.b		nA5
	smpsPSGAlterVol	$02
	smpsAlterNote	$01
	dc.b		nA5
	smpsPSGAlterVol	$01
	smpsAlterNote	$01
	dc.b		nA5
	smpsPSGAlterVol	$01
	smpsAlterNote	$01
	dc.b		nA5
	smpsPSGAlterVol	$01
	smpsAlterNote	$01
	dc.b		nA5
	smpsPSGAlterVol	$01
	smpsAlterNote	$01
	dc.b		nA5,	$02
	smpsPSGAlterVol	$01
	smpsAlterNote	$01
	dc.b		nA5
	smpsPSGAlterVol	$01
	smpsAlterNote	$01
	dc.b		nA5,	$01
	smpsPSGAlterVol	$FC
	smpsAlterNote	$01
	dc.b		nA5
	smpsPSGAlterVol	$02
	smpsAlterNote	$01
	dc.b		nA5
	smpsPSGAlterVol	$01
	smpsAlterNote	$01
	dc.b		nA5
	smpsPSGAlterVol	$01
	smpsAlterNote	$01
	dc.b		nA5
	smpsPSGAlterVol	$01
	smpsAlterNote	$01
	dc.b		nA5
	smpsPSGAlterVol	$01
	smpsAlterNote	$01
	dc.b		nA5,	$02
	smpsPSGAlterVol	$01
	smpsAlterNote	$01
	dc.b		nA5
	smpsPSGAlterVol	$01
	smpsAlterNote	$01
	dc.b		nA5,	$01
	smpsPSGAlterVol	$F4
	smpsAlterNote	$01
	dc.b		nA5
	smpsPSGAlterVol	$02
	smpsAlterNote	$01
	dc.b		nA5
	smpsPSGAlterVol	$01
	smpsAlterNote	$01
	dc.b		nA5
	smpsPSGAlterVol	$01
	smpsAlterNote	$01
	dc.b		nA5
	smpsPSGAlterVol	$01
	smpsAlterNote	$01
	dc.b		nA5
	smpsPSGAlterVol	$01
	smpsAlterNote	$01
	dc.b		nA5,	$02
	smpsPSGAlterVol	$01
	smpsAlterNote	$01
	dc.b		nA5
	smpsPSGAlterVol	$01
	smpsAlterNote	$01
	dc.b		nA5,	$01
	smpsPSGAlterVol	$FC
	smpsAlterNote	$01
	dc.b		nA5
	smpsPSGAlterVol	$02
	smpsAlterNote	$01
	dc.b		nA5
	smpsPSGAlterVol	$01
	smpsAlterNote	$01
	dc.b		nA5
	smpsPSGAlterVol	$01
	smpsAlterNote	$01
	dc.b		nA5
	smpsPSGAlterVol	$01
	smpsAlterNote	$01
	dc.b		nA5
	smpsPSGAlterVol	$01
	smpsAlterNote	$01
	dc.b		nA5,	$02
	smpsPSGAlterVol	$01
	smpsAlterNote	$01
	dc.b		nA5
	smpsPSGAlterVol	$01
	smpsAlterNote	$01
	dc.b		nA5,	$01
	smpsPSGAlterVol	$F4
	smpsAlterNote	$01
	dc.b		nA5
	smpsPSGAlterVol	$02
	smpsAlterNote	$01
	dc.b		nA5
	smpsPSGAlterVol	$01
	smpsAlterNote	$01
	dc.b		nA5
	smpsPSGAlterVol	$01
	smpsAlterNote	$01
	dc.b		nA5
	smpsPSGAlterVol	$01
	smpsAlterNote	$01
	dc.b		nA5
	smpsPSGAlterVol	$01
	smpsAlterNote	$01
	dc.b		nA5,	$02
	smpsPSGAlterVol	$01
	smpsAlterNote	$01
	dc.b		nA5
	smpsPSGAlterVol	$01
	smpsAlterNote	$01
	dc.b		nA5,	$01
	smpsPSGAlterVol	$FC
	smpsAlterNote	$01
	dc.b		nA5
	smpsPSGAlterVol	$02
	smpsAlterNote	$01
	dc.b		nA5
	smpsPSGAlterVol	$01
	smpsAlterNote	$01
	dc.b		nA5
	smpsPSGAlterVol	$01
	smpsAlterNote	$01
	dc.b		nA5
	smpsPSGAlterVol	$01
	smpsAlterNote	$01
	dc.b		nA5
	smpsPSGAlterVol	$01
	smpsAlterNote	$01
	dc.b		nA5,	$02
	smpsPSGAlterVol	$01
	smpsAlterNote	$01
	dc.b		nA5
	smpsPSGAlterVol	$01
	smpsAlterNote	$01
	dc.b		nA5,	$01
	smpsPSGAlterVol	$F4
	smpsAlterNote	$01
	dc.b		nA5
	smpsPSGAlterVol	$02
	smpsAlterNote	$01
	dc.b		nA5
	smpsPSGAlterVol	$01
	smpsAlterNote	$01
	dc.b		nA5
	smpsPSGAlterVol	$01
	smpsAlterNote	$01
	dc.b		nA5
	smpsPSGAlterVol	$01
	smpsAlterNote	$01
	dc.b		nA5
	smpsPSGAlterVol	$01
	smpsAlterNote	$01
	dc.b		nA5,	$02
	smpsPSGAlterVol	$01
	smpsAlterNote	$01
	dc.b		nA5
	smpsPSGAlterVol	$01
	smpsAlterNote	$01
	dc.b		nA5,	$01
	smpsPSGAlterVol	$FC
	smpsAlterNote	$01
	dc.b		nA5
	smpsPSGAlterVol	$02
	smpsAlterNote	$01
	dc.b		nA5
	smpsPSGAlterVol	$01
	smpsAlterNote	$01
	dc.b		nA5
	smpsPSGAlterVol	$01
	smpsAlterNote	$01
	dc.b		nA5
	smpsPSGAlterVol	$01
	smpsAlterNote	$01
	dc.b		nA5
	smpsPSGAlterVol	$01
	smpsAlterNote	$01
	dc.b		nA5,	$02
	smpsPSGAlterVol	$01
	smpsAlterNote	$01
	dc.b		nA5
	smpsPSGAlterVol	$01
	smpsAlterNote	$01
	dc.b		nA5,	$01
	smpsPSGAlterVol	$F4
	smpsAlterNote	$01
	dc.b		nA5
	smpsPSGAlterVol	$02
	smpsAlterNote	$01
	dc.b		nA5
	smpsPSGAlterVol	$01
	smpsAlterNote	$01
	dc.b		nA5
	smpsPSGAlterVol	$01
	smpsAlterNote	$01
	dc.b		nA5
	smpsPSGAlterVol	$01
	smpsAlterNote	$01
	dc.b		nA5
	smpsPSGAlterVol	$01
	smpsAlterNote	$01
	dc.b		nA5,	$02
	smpsPSGAlterVol	$01
	smpsAlterNote	$01
	dc.b		nA5
	smpsPSGAlterVol	$01
	smpsAlterNote	$01
	dc.b		nA5,	$01
	smpsPSGAlterVol	$FC
	smpsAlterNote	$01
	dc.b		nA5
	smpsPSGAlterVol	$02
	smpsAlterNote	$01
	dc.b		nA5
	smpsPSGAlterVol	$01
	smpsAlterNote	$01
	dc.b		nA5
	smpsPSGAlterVol	$01
	smpsAlterNote	$01
	dc.b		nA5
	smpsPSGAlterVol	$01
	smpsAlterNote	$01
	dc.b		nA5
	smpsPSGAlterVol	$01
	smpsAlterNote	$01
	dc.b		nA5,	$02
	smpsPSGAlterVol	$01
	smpsAlterNote	$01
	dc.b		nA5
	smpsPSGAlterVol	$01
	smpsAlterNote	$01
	dc.b		nA5,	$01
	smpsPSGAlterVol	$F4
	smpsAlterNote	$01
	dc.b		nA5
	smpsPSGAlterVol	$02
	smpsAlterNote	$01
	dc.b		nA5
	smpsPSGAlterVol	$01
	smpsAlterNote	$01
	dc.b		nA5
	smpsPSGAlterVol	$01
	smpsAlterNote	$01
	dc.b		nA5
	smpsPSGAlterVol	$01
	smpsAlterNote	$01
	dc.b		nA5
	smpsPSGAlterVol	$01
	smpsAlterNote	$01
	dc.b		nA5,	$02
	smpsPSGAlterVol	$01
	smpsAlterNote	$01
	dc.b		nA5
	smpsPSGAlterVol	$01
	smpsAlterNote	$01
	dc.b		nA5,	$01
	smpsPSGAlterVol	$FC
	smpsAlterNote	$01
	dc.b		nA5
	smpsPSGAlterVol	$02
	smpsAlterNote	$01
	dc.b		nA5
	smpsPSGAlterVol	$01
	smpsAlterNote	$01
	dc.b		nA5
	smpsPSGAlterVol	$01
	smpsAlterNote	$01
	dc.b		nA5
	smpsPSGAlterVol	$01
	smpsAlterNote	$01
	dc.b		nA5
	smpsPSGAlterVol	$01
	smpsAlterNote	$01
	dc.b		nA5,	$02
	smpsPSGAlterVol	$01
	smpsAlterNote	$01
	dc.b		nA5
	smpsPSGAlterVol	$01
	smpsAlterNote	$01
	dc.b		nA5,	$01
	smpsPSGAlterVol	$F4
	smpsAlterNote	$01
	dc.b		nA5
	smpsPSGAlterVol	$02
	smpsAlterNote	$01
	dc.b		nA5
	smpsPSGAlterVol	$01
	smpsAlterNote	$01
	dc.b		nA5
	smpsPSGAlterVol	$01
	smpsAlterNote	$01
	dc.b		nA5
	smpsPSGAlterVol	$01
	smpsAlterNote	$01
	dc.b		nA5
	smpsPSGAlterVol	$01
	smpsAlterNote	$01
	dc.b		nA5,	$02
	smpsPSGAlterVol	$01
	smpsAlterNote	$01
	dc.b		nA5
	smpsPSGAlterVol	$01
	smpsAlterNote	$01
	dc.b		nA5,	$01
	smpsPSGAlterVol	$FC
	smpsAlterNote	$01
	dc.b		nA5
	smpsPSGAlterVol	$02
	smpsAlterNote	$01
	dc.b		nA5
	smpsPSGAlterVol	$01
	smpsAlterNote	$01
	dc.b		nA5
	smpsPSGAlterVol	$01
	smpsAlterNote	$01
	dc.b		nA5
	smpsPSGAlterVol	$01
	smpsAlterNote	$01
	dc.b		nA5
	smpsPSGAlterVol	$01
	smpsAlterNote	$01
	dc.b		nA5,	$02
	smpsPSGAlterVol	$01
	smpsAlterNote	$01
	dc.b		nA5
	smpsPSGAlterVol	$01
	smpsAlterNote	$01
	dc.b		nA5,	$01
	smpsPSGAlterVol	$F4
	smpsAlterNote	$01
	dc.b		nA5
	smpsPSGAlterVol	$02
	smpsAlterNote	$01
	dc.b		nA5
	smpsPSGAlterVol	$01
	smpsAlterNote	$01
	dc.b		nA5
	smpsPSGAlterVol	$01
	smpsAlterNote	$01
	dc.b		nA5
	smpsPSGAlterVol	$01
	smpsAlterNote	$01
	dc.b		nA5
	smpsPSGAlterVol	$01
	smpsAlterNote	$01
	dc.b		nA5,	$02
	smpsPSGAlterVol	$01
	smpsAlterNote	$01
	dc.b		nA5
	smpsPSGAlterVol	$01
	smpsAlterNote	$01
	dc.b		nA5,	$01
	smpsPSGAlterVol	$FC
	smpsAlterNote	$01
	dc.b		nA5
	smpsPSGAlterVol	$02
	smpsAlterNote	$01
	dc.b		nA5
	smpsPSGAlterVol	$01
	smpsAlterNote	$01
	dc.b		nA5
	smpsPSGAlterVol	$01
	smpsAlterNote	$01
	dc.b		nA5
	smpsPSGAlterVol	$01
	smpsAlterNote	$01
	dc.b		nA5
	smpsPSGAlterVol	$01
	smpsAlterNote	$01
	dc.b		nA5,	$02
	smpsPSGAlterVol	$01
	smpsAlterNote	$01
	dc.b		nA5
	smpsPSGAlterVol	$01
	smpsAlterNote	$01
	dc.b		nA5,	$01
	smpsPSGAlterVol	$F4
	smpsAlterNote	$01
	dc.b		nA5
	smpsPSGAlterVol	$02
	smpsAlterNote	$01
	dc.b		nA5
	smpsPSGAlterVol	$01
	smpsAlterNote	$01
	dc.b		nA5
	smpsPSGAlterVol	$01
	smpsAlterNote	$01
	dc.b		nA5
	smpsPSGAlterVol	$01
	smpsAlterNote	$01
	dc.b		nA5
	smpsPSGAlterVol	$01
	smpsAlterNote	$01
	dc.b		nA5,	$02
	smpsPSGAlterVol	$01
	smpsAlterNote	$01
	dc.b		nA5
	smpsPSGAlterVol	$01
	smpsAlterNote	$01
	dc.b		nA5,	$01
	smpsPSGAlterVol	$FC
	smpsAlterNote	$01
	dc.b		nA5
	smpsPSGAlterVol	$02
	smpsAlterNote	$01
	dc.b		nA5
	smpsPSGAlterVol	$01
	smpsAlterNote	$01
	dc.b		nA5
	smpsPSGAlterVol	$01
	smpsAlterNote	$01
	dc.b		nA5
	smpsPSGAlterVol	$01
	smpsAlterNote	$01
	dc.b		nA5
	smpsPSGAlterVol	$01
	smpsAlterNote	$01
	dc.b		nA5,	$02
	smpsPSGAlterVol	$01
	smpsAlterNote	$01
	dc.b		nA5
	smpsPSGAlterVol	$01
	smpsAlterNote	$01
	dc.b		nA5,	$01
	smpsPSGAlterVol	$F4
	smpsAlterNote	$01
	dc.b		nA5
	smpsPSGAlterVol	$02
	smpsAlterNote	$01
	dc.b		nA5
	smpsPSGAlterVol	$01
	smpsAlterNote	$01
	dc.b		nA5
	smpsPSGAlterVol	$01
	smpsAlterNote	$01
	dc.b		nA5
	smpsPSGAlterVol	$01
	smpsAlterNote	$01
	dc.b		nA5
	smpsPSGAlterVol	$01
	smpsAlterNote	$01
	dc.b		nA5,	$02
	smpsPSGAlterVol	$01
	smpsAlterNote	$01
	dc.b		nA5
	smpsPSGAlterVol	$01
	smpsAlterNote	$01
	dc.b		nA5,	$01
	smpsPSGAlterVol	$FC
	smpsAlterNote	$01
	dc.b		nA5
	smpsPSGAlterVol	$02
	smpsAlterNote	$01
	dc.b		nA5
	smpsPSGAlterVol	$01
	smpsAlterNote	$01
	dc.b		nA5
	smpsPSGAlterVol	$01
	smpsAlterNote	$01
	dc.b		nA5
	smpsPSGAlterVol	$01
	smpsAlterNote	$01
	dc.b		nA5
	smpsPSGAlterVol	$01
	smpsAlterNote	$01
	dc.b		nA5,	$02
	smpsPSGAlterVol	$01
	smpsAlterNote	$01
	dc.b		nA5
	smpsPSGAlterVol	$01
	smpsAlterNote	$01
	dc.b		nA5,	$01
	smpsPSGAlterVol	$F4
	smpsAlterNote	$01
	dc.b		nA5
	smpsPSGAlterVol	$02
	smpsAlterNote	$01
	dc.b		nA5
	smpsPSGAlterVol	$01
	smpsAlterNote	$01
	dc.b		nA5
	smpsPSGAlterVol	$01
	smpsAlterNote	$01
	dc.b		nA5
	smpsPSGAlterVol	$01
	smpsAlterNote	$01
	dc.b		nA5
	smpsPSGAlterVol	$01
	smpsAlterNote	$01
	dc.b		nA5,	$02
	smpsPSGAlterVol	$01
	smpsAlterNote	$01
	dc.b		nA5
	smpsPSGAlterVol	$01
	smpsAlterNote	$01
	dc.b		nA5,	$01
	smpsPSGAlterVol	$FC
	smpsAlterNote	$01
	dc.b		nA5
	smpsPSGAlterVol	$02
	smpsAlterNote	$01
	dc.b		nA5
	smpsPSGAlterVol	$01
	smpsAlterNote	$01
	dc.b		nA5
	smpsPSGAlterVol	$01
	smpsAlterNote	$01
	dc.b		nA5
	smpsPSGAlterVol	$01
	smpsAlterNote	$01
	dc.b		nA5
	smpsPSGAlterVol	$01
	smpsAlterNote	$01
	dc.b		nA5,	$02
	smpsPSGAlterVol	$01
	smpsAlterNote	$01
	dc.b		nA5
	smpsPSGAlterVol	$01
	smpsAlterNote	$01
	dc.b		nA5,	$01
	smpsPSGAlterVol	$F4
	smpsAlterNote	$01
	dc.b		nA5
	smpsPSGAlterVol	$02
	smpsAlterNote	$01
	dc.b		nA5
	smpsPSGAlterVol	$01
	smpsAlterNote	$01
	dc.b		nA5
	smpsPSGAlterVol	$01
	smpsAlterNote	$01
	dc.b		nA5
	smpsPSGAlterVol	$01
	smpsAlterNote	$01
	dc.b		nA5
	smpsPSGAlterVol	$01
	smpsAlterNote	$01
	dc.b		nA5,	$02
	smpsPSGAlterVol	$01
	smpsAlterNote	$01
	dc.b		nA5
	smpsPSGAlterVol	$01
	smpsAlterNote	$01
	dc.b		nA5,	$01
	smpsPSGAlterVol	$FC
	smpsAlterNote	$01
	dc.b		nA5
	smpsPSGAlterVol	$02
	smpsAlterNote	$01
	dc.b		nA5
	smpsPSGAlterVol	$01
	smpsAlterNote	$01
	dc.b		nA5
	smpsPSGAlterVol	$01
	smpsAlterNote	$01
	dc.b		nA5
	smpsPSGAlterVol	$01
	smpsAlterNote	$01
	dc.b		nA5
	smpsPSGAlterVol	$01
	smpsAlterNote	$01
	dc.b		nA5,	$02
	smpsPSGAlterVol	$01
	smpsAlterNote	$01
	dc.b		nA5
	smpsPSGAlterVol	$01
	smpsAlterNote	$01
	dc.b		nA5,	$01
	smpsPSGAlterVol	$F4
	smpsAlterNote	$01
	dc.b		nA5
	smpsPSGAlterVol	$02
	smpsAlterNote	$01
	dc.b		nA5
	smpsPSGAlterVol	$01
	smpsAlterNote	$01
	dc.b		nA5
	smpsPSGAlterVol	$01
	smpsAlterNote	$01
	dc.b		nA5
	smpsPSGAlterVol	$01
	smpsAlterNote	$01
	dc.b		nA5
	smpsPSGAlterVol	$01
	smpsAlterNote	$01
	dc.b		nA5,	$02
	smpsPSGAlterVol	$01
	smpsAlterNote	$01
	dc.b		nA5
	smpsPSGAlterVol	$01
	smpsAlterNote	$01
	dc.b		nA5,	$01
	smpsPSGAlterVol	$FC
	smpsAlterNote	$01
	dc.b		nA5
	smpsPSGAlterVol	$02
	smpsAlterNote	$01
	dc.b		nA5
	smpsPSGAlterVol	$01
	smpsAlterNote	$01
	dc.b		nA5
	smpsPSGAlterVol	$01
	smpsAlterNote	$01
	dc.b		nA5
	smpsPSGAlterVol	$01
	smpsAlterNote	$01
	dc.b		nA5
	smpsPSGAlterVol	$01
	smpsAlterNote	$01
	dc.b		nA5,	$02
	smpsPSGAlterVol	$01
	smpsAlterNote	$01
	dc.b		nA5
	smpsPSGAlterVol	$01
	smpsAlterNote	$01
	dc.b		nA5,	$01
	smpsPSGAlterVol	$F4
	smpsAlterNote	$01
	dc.b		nA5
	smpsPSGAlterVol	$02
	smpsAlterNote	$01
	dc.b		nA5
	smpsPSGAlterVol	$01
	smpsAlterNote	$01
	dc.b		nA5
	smpsPSGAlterVol	$01
	smpsAlterNote	$01
	dc.b		nA5
	smpsPSGAlterVol	$01
	smpsAlterNote	$01
	dc.b		nA5
	smpsPSGAlterVol	$01
	smpsAlterNote	$01
	dc.b		nA5,	$02
	smpsPSGAlterVol	$01
	smpsAlterNote	$01
	dc.b		nA5
	smpsPSGAlterVol	$01
	smpsAlterNote	$01
	dc.b		nA5,	$01
	smpsPSGAlterVol	$FC
	smpsAlterNote	$01
	dc.b		nA5
	smpsPSGAlterVol	$02
	smpsAlterNote	$01
	dc.b		nA5
	smpsPSGAlterVol	$01
	smpsAlterNote	$01
	dc.b		nA5
	smpsPSGAlterVol	$01
	smpsAlterNote	$01
	dc.b		nA5
	smpsPSGAlterVol	$01
	smpsAlterNote	$01
	dc.b		nA5
	smpsPSGAlterVol	$01
	smpsAlterNote	$01
	dc.b		nA5,	$02
	smpsPSGAlterVol	$01
	smpsAlterNote	$01
	dc.b		nA5
	smpsPSGAlterVol	$01
	smpsAlterNote	$01
	dc.b		nA5,	$01
	smpsPSGAlterVol	$F4
	smpsAlterNote	$01
	dc.b		nA5
	smpsPSGAlterVol	$02
	smpsAlterNote	$01
	dc.b		nA5
	smpsPSGAlterVol	$01
	smpsAlterNote	$01
	dc.b		nA5
	smpsPSGAlterVol	$01
	smpsAlterNote	$01
	dc.b		nA5
	smpsPSGAlterVol	$01
	smpsAlterNote	$01
	dc.b		nA5
	smpsPSGAlterVol	$01
	smpsAlterNote	$01
	dc.b		nA5,	$02
	smpsPSGAlterVol	$01
	smpsAlterNote	$01
	dc.b		nA5
	smpsPSGAlterVol	$01
	smpsAlterNote	$01
	dc.b		nA5,	$01
	smpsPSGAlterVol	$FC
	smpsAlterNote	$01
	dc.b		nA5
	smpsPSGAlterVol	$02
	smpsAlterNote	$01
	dc.b		nA5
	smpsPSGAlterVol	$01
	smpsAlterNote	$01
	dc.b		nA5
	smpsPSGAlterVol	$01
	smpsAlterNote	$01
	dc.b		nA5
	smpsPSGAlterVol	$01
	smpsAlterNote	$01
	dc.b		nA5
	smpsPSGAlterVol	$01
	smpsAlterNote	$01
	dc.b		nA5,	$02
	smpsPSGAlterVol	$01
	smpsAlterNote	$01
	dc.b		nA5
	smpsPSGAlterVol	$01
	smpsAlterNote	$01
	dc.b		nA5,	$01
	smpsPSGAlterVol	$F4
	smpsAlterNote	$01
	dc.b		nA5
	smpsPSGAlterVol	$02
	smpsAlterNote	$01
	dc.b		nA5
	smpsPSGAlterVol	$01
	smpsAlterNote	$01
	dc.b		nA5
	smpsPSGAlterVol	$01
	smpsAlterNote	$01
	dc.b		nA5
	smpsPSGAlterVol	$01
	smpsAlterNote	$01
	dc.b		nA5
	smpsPSGAlterVol	$01
	smpsAlterNote	$01
	dc.b		nA5,	$02
	smpsPSGAlterVol	$01
	smpsAlterNote	$01
	dc.b		nA5
	smpsPSGAlterVol	$01
	smpsAlterNote	$01
	dc.b		nA5,	$01
	smpsPSGAlterVol	$FC
	smpsAlterNote	$01
	dc.b		nA5
	smpsPSGAlterVol	$02
	smpsAlterNote	$01
	dc.b		nA5
	smpsPSGAlterVol	$01
	smpsAlterNote	$01
	dc.b		nA5
	smpsPSGAlterVol	$01
	smpsAlterNote	$01
	dc.b		nA5
	smpsPSGAlterVol	$01
	smpsAlterNote	$01
	dc.b		nA5
	smpsPSGAlterVol	$01
	smpsAlterNote	$01
	dc.b		nA5,	$02
	smpsPSGAlterVol	$01
	smpsAlterNote	$01
	dc.b		nA5
	smpsPSGAlterVol	$01
	smpsAlterNote	$01
	dc.b		nA5,	$01
	smpsPSGAlterVol	$F4
	smpsAlterNote	$01
	dc.b		nA5
	smpsPSGAlterVol	$02
	smpsAlterNote	$01
	dc.b		nA5
	smpsPSGAlterVol	$01
	smpsAlterNote	$01
	dc.b		nA5
	smpsPSGAlterVol	$01
	smpsAlterNote	$01
	dc.b		nA5
	smpsPSGAlterVol	$01
	smpsAlterNote	$01
	dc.b		nA5
	smpsPSGAlterVol	$01
	smpsAlterNote	$01
	dc.b		nA5,	$02
	smpsPSGAlterVol	$01
	smpsAlterNote	$01
	dc.b		nA5
	smpsPSGAlterVol	$01
	smpsAlterNote	$01
	dc.b		nA5,	$01
	smpsPSGAlterVol	$FC
	smpsAlterNote	$01
	dc.b		nA5
	smpsPSGAlterVol	$02
	smpsAlterNote	$01
	dc.b		nA5
	smpsPSGAlterVol	$01
	smpsAlterNote	$01
	dc.b		nA5
	smpsPSGAlterVol	$01
	smpsAlterNote	$01
	dc.b		nA5
	smpsPSGAlterVol	$01
	smpsAlterNote	$01
	dc.b		nA5
	smpsPSGAlterVol	$01
	smpsAlterNote	$01
	dc.b		nA5,	$02
	smpsPSGAlterVol	$01
	smpsAlterNote	$01
	dc.b		nA5
	smpsPSGAlterVol	$01
	smpsAlterNote	$01
	dc.b		nA5,	$01
	smpsPSGAlterVol	$F4
	smpsAlterNote	$01
	dc.b		nA5
	smpsPSGAlterVol	$02
	smpsAlterNote	$01
	dc.b		nA5
	smpsPSGAlterVol	$01
	smpsAlterNote	$01
	dc.b		nA5
	smpsPSGAlterVol	$01
	smpsAlterNote	$01
	dc.b		nA5
	smpsPSGAlterVol	$01
	smpsAlterNote	$01
	dc.b		nA5
	smpsPSGAlterVol	$01
	smpsAlterNote	$01
	dc.b		nA5,	$02
	smpsPSGAlterVol	$01
	smpsAlterNote	$01
	dc.b		nA5
	smpsPSGAlterVol	$01
	smpsAlterNote	$01
	dc.b		nA5,	$01
	smpsPSGAlterVol	$FC
	smpsAlterNote	$01
	dc.b		nA5
	smpsPSGAlterVol	$02
	smpsAlterNote	$01
	dc.b		nA5
	smpsPSGAlterVol	$01
	smpsAlterNote	$01
	dc.b		nA5
	smpsPSGAlterVol	$01
	smpsAlterNote	$01
	dc.b		nA5
	smpsPSGAlterVol	$01
	smpsAlterNote	$01
	dc.b		nA5
	smpsPSGAlterVol	$01
	smpsAlterNote	$01
	dc.b		nA5,	$02
	smpsPSGAlterVol	$01
	smpsAlterNote	$01
	dc.b		nA5
	smpsPSGAlterVol	$01
	smpsAlterNote	$01
	dc.b		nA5,	$01
	smpsPSGAlterVol	$F4
	smpsAlterNote	$01
	dc.b		nA5
	smpsPSGAlterVol	$02
	smpsAlterNote	$01
	dc.b		nA5
	smpsPSGAlterVol	$01
	smpsAlterNote	$01
	dc.b		nA5
	smpsPSGAlterVol	$01
	smpsAlterNote	$01
	dc.b		nA5
	smpsPSGAlterVol	$01
	smpsAlterNote	$01
	dc.b		nA5
	smpsPSGAlterVol	$01
	smpsAlterNote	$01
	dc.b		nA5,	$02
	smpsPSGAlterVol	$01
	smpsAlterNote	$01
	dc.b		nA5
	smpsPSGAlterVol	$01
	smpsAlterNote	$01
	dc.b		nA5,	$01
	smpsPSGAlterVol	$FC
	smpsAlterNote	$01
	dc.b		nA5
	smpsPSGAlterVol	$02
	smpsAlterNote	$01
	dc.b		nA5
	smpsPSGAlterVol	$01
	smpsAlterNote	$01
	dc.b		nA5
	smpsPSGAlterVol	$01
	smpsAlterNote	$01
	dc.b		nA5
	smpsPSGAlterVol	$01
	smpsAlterNote	$01
	dc.b		nA5
	smpsPSGAlterVol	$01
	smpsAlterNote	$01
	dc.b		nA5,	$02
	smpsPSGAlterVol	$01
	smpsAlterNote	$01
	dc.b		nA5
	smpsPSGAlterVol	$01
	smpsAlterNote	$01
	dc.b		nA5,	$01
	smpsPSGAlterVol	$F4
	smpsAlterNote	$01
	dc.b		nA5
	smpsPSGAlterVol	$02
	smpsAlterNote	$01
	dc.b		nA5
	smpsPSGAlterVol	$01
	smpsAlterNote	$01
	dc.b		nA5
	smpsPSGAlterVol	$01
	smpsAlterNote	$01
	dc.b		nA5
	smpsPSGAlterVol	$01
	smpsAlterNote	$01
	dc.b		nA5
	smpsPSGAlterVol	$01
	smpsAlterNote	$01
	dc.b		nA5,	$02
	smpsPSGAlterVol	$01
	smpsAlterNote	$01
	dc.b		nA5
	smpsPSGAlterVol	$01
	smpsAlterNote	$01
	dc.b		nA5,	$01
	smpsPSGAlterVol	$FC
	smpsAlterNote	$01
	dc.b		nA5
	smpsPSGAlterVol	$02
	smpsAlterNote	$01
	dc.b		nA5
	smpsPSGAlterVol	$01
	smpsAlterNote	$01
	dc.b		nA5
	smpsPSGAlterVol	$01
	smpsAlterNote	$01
	dc.b		nA5
	smpsPSGAlterVol	$01
	smpsAlterNote	$01
	dc.b		nA5
	smpsPSGAlterVol	$01
	smpsAlterNote	$01
	dc.b		nA5,	$02
	smpsPSGAlterVol	$01
	smpsAlterNote	$01
	dc.b		nA5
	smpsPSGAlterVol	$01
	smpsAlterNote	$01
	dc.b		nA5,	$01
	smpsPSGAlterVol	$F4
	smpsAlterNote	$01
	dc.b		nA5
	smpsPSGAlterVol	$FE
	smpsJump	Elevator_Jump06

; DAC Data
Elevator_DAC:
	dc.b		dKick,	$01
Elevator_Jump07:
	dc.b		nRst,	$13,	dSnare,	$14,	dKick,	$0A,	dSnare,	$14
	dc.b		dKick,	$0A,	dKick,	$14,	dSnare,	dKick,	$0A,	dSnare
	dc.b		$14,	dKick,	$0A,	dKick,	$14,	dSnare,	dKick,	$0A
	dc.b		dSnare,	$14,	dKick,	$0A,	dKick,	$14,	dSnare,	dKick
	dc.b		$0A,	dSnare,	$14,	dSnare,	$0A,	dKick,	$14,	dSnare
	dc.b		dKick,	$0A,	dSnare,	$14,	dKick,	$0A,	dKick,	$14
	dc.b		dSnare,	dKick,	$0A,	dSnare,	$14,	dKick,	$0A,	dKick
	dc.b		$14,	dSnare,	dKick,	$0A,	dSnare,	$14,	dKick,	$0A
	dc.b		dKick,	$14,	dSnare,	dKick,	$0A,	dSnare,	$05,	dSnare
	dc.b		dSnare,	$0A
	smpsJump	Elevator_Jump07

Elevator_Voices:
	dc.b		$05,$08,$37,$01,$74,$1F,$1F,$1F,$1F,$0C,$92,$87,$0C,$02,$00,$00
	dc.b		$00,$A7,$F8,$F6,$F7,$2D,$03,$03,$00;			Voice 00
	dc.b		$2C,$30,$08,$70,$01,$1F,$1F,$1F,$1F,$08,$0E,$10,$0C,$00,$06,$03
	dc.b		$05,$30,$29,$20,$28,$22,$2A,$14,$00;			Voice 01
	dc.b		$39,$0D,$02,$01,$01,$9F,$1F,$1F,$5F,$0A,$09,$09,$04,$08,$07,$07
	dc.b		$07,$24,$24,$24,$28,$22,$24,$26,$00;			Voice 02
	smpsFooterEndSong	"TG2000Tracks/Elevator (BACKUP IN CASE IF USED TRACK IS TOO BROKEN).asm"
	even
